<?xml version="1.0" encoding="utf-8" standalone="no"?>
<!DOCTYPE svg PUBLIC "-//W3C//DTD SVG 1.1//EN"
  "http://www.w3.org/Graphics/SVG/1.1/DTD/svg11.dtd">
<!-- Created with matplotlib (https://matplotlib.org/) -->
<svg height="505.44pt" version="1.1" viewBox="0 0 983.52 505.44" width="983.52pt" xmlns="http://www.w3.org/2000/svg" xmlns:xlink="http://www.w3.org/1999/xlink">
 <metadata>
  <rdf:RDF xmlns:cc="http://creativecommons.org/ns#" xmlns:dc="http://purl.org/dc/elements/1.1/" xmlns:rdf="http://www.w3.org/1999/02/22-rdf-syntax-ns#">
   <cc:Work>
    <dc:type rdf:resource="http://purl.org/dc/dcmitype/StillImage"/>
    <dc:date>2021-01-21T18:01:31.951978</dc:date>
    <dc:format>image/svg+xml</dc:format>
    <dc:creator>
     <cc:Agent>
      <dc:title>Matplotlib v3.3.2, https://matplotlib.org/</dc:title>
     </cc:Agent>
    </dc:creator>
   </cc:Work>
  </rdf:RDF>
 </metadata>
 <defs>
  <style type="text/css">*{stroke-linecap:butt;stroke-linejoin:round;}</style>
 </defs>
 <g id="figure_1">
  <g id="patch_1">
   <path d="M 0 505.44 
L 983.52 505.44 
L 983.52 0 
L 0 0 
z
" style="fill:#ffffff;"/>
  </g>
  <g id="axes_1">
   <g id="patch_2">
    <path d="M 115.444075 203.494991 
L 486.424062 203.494991 
L 486.424062 10.204565 
L 115.444075 10.204565 
z
" style="fill:#ffffff;"/>
   </g>
   <g id="matplotlib.axis_1">
    <g id="xtick_1">
     <g id="line2d_1">
      <defs>
       <path d="M 0 0 
L 0 3.5 
" id="m22154f25f8" style="stroke:#000000;stroke-width:0.8;"/>
      </defs>
      <g>
       <use style="stroke:#000000;stroke-width:0.8;" x="130.287313" xlink:href="#m22154f25f8" y="203.494991"/>
      </g>
     </g>
     <g id="text_1">
      <!-- 0 -->
      <g transform="translate(127.106063 218.093429)scale(0.1 -0.1)">
       <defs>
        <path d="M 31.78125 66.40625 
Q 24.171875 66.40625 20.328125 58.90625 
Q 16.5 51.421875 16.5 36.375 
Q 16.5 21.390625 20.328125 13.890625 
Q 24.171875 6.390625 31.78125 6.390625 
Q 39.453125 6.390625 43.28125 13.890625 
Q 47.125 21.390625 47.125 36.375 
Q 47.125 51.421875 43.28125 58.90625 
Q 39.453125 66.40625 31.78125 66.40625 
z
M 31.78125 74.21875 
Q 44.046875 74.21875 50.515625 64.515625 
Q 56.984375 54.828125 56.984375 36.375 
Q 56.984375 17.96875 50.515625 8.265625 
Q 44.046875 -1.421875 31.78125 -1.421875 
Q 19.53125 -1.421875 13.0625 8.265625 
Q 6.59375 17.96875 6.59375 36.375 
Q 6.59375 54.828125 13.0625 64.515625 
Q 19.53125 74.21875 31.78125 74.21875 
z
" id="DejaVuSans-48"/>
       </defs>
       <use xlink:href="#DejaVuSans-48"/>
      </g>
     </g>
    </g>
    <g id="xtick_2">
     <g id="line2d_2">
      <g>
       <use style="stroke:#000000;stroke-width:0.8;" x="180.774519" xlink:href="#m22154f25f8" y="203.494991"/>
      </g>
     </g>
     <g id="text_2">
      <!-- 25 -->
      <g transform="translate(174.412019 218.093429)scale(0.1 -0.1)">
       <defs>
        <path d="M 19.1875 8.296875 
L 53.609375 8.296875 
L 53.609375 0 
L 7.328125 0 
L 7.328125 8.296875 
Q 12.9375 14.109375 22.625 23.890625 
Q 32.328125 33.6875 34.8125 36.53125 
Q 39.546875 41.84375 41.421875 45.53125 
Q 43.3125 49.21875 43.3125 52.78125 
Q 43.3125 58.59375 39.234375 62.25 
Q 35.15625 65.921875 28.609375 65.921875 
Q 23.96875 65.921875 18.8125 64.3125 
Q 13.671875 62.703125 7.8125 59.421875 
L 7.8125 69.390625 
Q 13.765625 71.78125 18.9375 73 
Q 24.125 74.21875 28.421875 74.21875 
Q 39.75 74.21875 46.484375 68.546875 
Q 53.21875 62.890625 53.21875 53.421875 
Q 53.21875 48.921875 51.53125 44.890625 
Q 49.859375 40.875 45.40625 35.40625 
Q 44.1875 33.984375 37.640625 27.21875 
Q 31.109375 20.453125 19.1875 8.296875 
z
" id="DejaVuSans-50"/>
        <path d="M 10.796875 72.90625 
L 49.515625 72.90625 
L 49.515625 64.59375 
L 19.828125 64.59375 
L 19.828125 46.734375 
Q 21.96875 47.46875 24.109375 47.828125 
Q 26.265625 48.1875 28.421875 48.1875 
Q 40.625 48.1875 47.75 41.5 
Q 54.890625 34.8125 54.890625 23.390625 
Q 54.890625 11.625 47.5625 5.09375 
Q 40.234375 -1.421875 26.90625 -1.421875 
Q 22.3125 -1.421875 17.546875 -0.640625 
Q 12.796875 0.140625 7.71875 1.703125 
L 7.71875 11.625 
Q 12.109375 9.234375 16.796875 8.0625 
Q 21.484375 6.890625 26.703125 6.890625 
Q 35.15625 6.890625 40.078125 11.328125 
Q 45.015625 15.765625 45.015625 23.390625 
Q 45.015625 31 40.078125 35.4375 
Q 35.15625 39.890625 26.703125 39.890625 
Q 22.75 39.890625 18.8125 39.015625 
Q 14.890625 38.140625 10.796875 36.28125 
z
" id="DejaVuSans-53"/>
       </defs>
       <use xlink:href="#DejaVuSans-50"/>
       <use x="63.623047" xlink:href="#DejaVuSans-53"/>
      </g>
     </g>
    </g>
    <g id="xtick_3">
     <g id="line2d_3">
      <g>
       <use style="stroke:#000000;stroke-width:0.8;" x="231.261725" xlink:href="#m22154f25f8" y="203.494991"/>
      </g>
     </g>
     <g id="text_3">
      <!-- 50 -->
      <g transform="translate(224.899225 218.093429)scale(0.1 -0.1)">
       <use xlink:href="#DejaVuSans-53"/>
       <use x="63.623047" xlink:href="#DejaVuSans-48"/>
      </g>
     </g>
    </g>
    <g id="xtick_4">
     <g id="line2d_4">
      <g>
       <use style="stroke:#000000;stroke-width:0.8;" x="281.748931" xlink:href="#m22154f25f8" y="203.494991"/>
      </g>
     </g>
     <g id="text_4">
      <!-- 75 -->
      <g transform="translate(275.386431 218.093429)scale(0.1 -0.1)">
       <defs>
        <path d="M 8.203125 72.90625 
L 55.078125 72.90625 
L 55.078125 68.703125 
L 28.609375 0 
L 18.3125 0 
L 43.21875 64.59375 
L 8.203125 64.59375 
z
" id="DejaVuSans-55"/>
       </defs>
       <use xlink:href="#DejaVuSans-55"/>
       <use x="63.623047" xlink:href="#DejaVuSans-53"/>
      </g>
     </g>
    </g>
    <g id="xtick_5">
     <g id="line2d_5">
      <g>
       <use style="stroke:#000000;stroke-width:0.8;" x="332.236136" xlink:href="#m22154f25f8" y="203.494991"/>
      </g>
     </g>
     <g id="text_5">
      <!-- 100 -->
      <g transform="translate(322.692386 218.093429)scale(0.1 -0.1)">
       <defs>
        <path d="M 12.40625 8.296875 
L 28.515625 8.296875 
L 28.515625 63.921875 
L 10.984375 60.40625 
L 10.984375 69.390625 
L 28.421875 72.90625 
L 38.28125 72.90625 
L 38.28125 8.296875 
L 54.390625 8.296875 
L 54.390625 0 
L 12.40625 0 
z
" id="DejaVuSans-49"/>
       </defs>
       <use xlink:href="#DejaVuSans-49"/>
       <use x="63.623047" xlink:href="#DejaVuSans-48"/>
       <use x="127.246094" xlink:href="#DejaVuSans-48"/>
      </g>
     </g>
    </g>
    <g id="xtick_6">
     <g id="line2d_6">
      <g>
       <use style="stroke:#000000;stroke-width:0.8;" x="382.723342" xlink:href="#m22154f25f8" y="203.494991"/>
      </g>
     </g>
     <g id="text_6">
      <!-- 125 -->
      <g transform="translate(373.179592 218.093429)scale(0.1 -0.1)">
       <use xlink:href="#DejaVuSans-49"/>
       <use x="63.623047" xlink:href="#DejaVuSans-50"/>
       <use x="127.246094" xlink:href="#DejaVuSans-53"/>
      </g>
     </g>
    </g>
    <g id="xtick_7">
     <g id="line2d_7">
      <g>
       <use style="stroke:#000000;stroke-width:0.8;" x="433.210548" xlink:href="#m22154f25f8" y="203.494991"/>
      </g>
     </g>
     <g id="text_7">
      <!-- 150 -->
      <g transform="translate(423.666798 218.093429)scale(0.1 -0.1)">
       <use xlink:href="#DejaVuSans-49"/>
       <use x="63.623047" xlink:href="#DejaVuSans-53"/>
       <use x="127.246094" xlink:href="#DejaVuSans-48"/>
      </g>
     </g>
    </g>
    <g id="xtick_8">
     <g id="line2d_8">
      <g>
       <use style="stroke:#000000;stroke-width:0.8;" x="483.697753" xlink:href="#m22154f25f8" y="203.494991"/>
      </g>
     </g>
     <g id="text_8">
      <!-- 175 -->
      <g transform="translate(474.154003 218.093429)scale(0.1 -0.1)">
       <use xlink:href="#DejaVuSans-49"/>
       <use x="63.623047" xlink:href="#DejaVuSans-55"/>
       <use x="127.246094" xlink:href="#DejaVuSans-53"/>
      </g>
     </g>
    </g>
    <g id="text_9">
     <!-- Cycle -->
     <g transform="translate(287.268444 231.771554)scale(0.1 -0.1)">
      <defs>
       <path d="M 64.40625 67.28125 
L 64.40625 56.890625 
Q 59.421875 61.53125 53.78125 63.8125 
Q 48.140625 66.109375 41.796875 66.109375 
Q 29.296875 66.109375 22.65625 58.46875 
Q 16.015625 50.828125 16.015625 36.375 
Q 16.015625 21.96875 22.65625 14.328125 
Q 29.296875 6.6875 41.796875 6.6875 
Q 48.140625 6.6875 53.78125 8.984375 
Q 59.421875 11.28125 64.40625 15.921875 
L 64.40625 5.609375 
Q 59.234375 2.09375 53.4375 0.328125 
Q 47.65625 -1.421875 41.21875 -1.421875 
Q 24.65625 -1.421875 15.125 8.703125 
Q 5.609375 18.84375 5.609375 36.375 
Q 5.609375 53.953125 15.125 64.078125 
Q 24.65625 74.21875 41.21875 74.21875 
Q 47.75 74.21875 53.53125 72.484375 
Q 59.328125 70.75 64.40625 67.28125 
z
" id="DejaVuSans-67"/>
       <path d="M 32.171875 -5.078125 
Q 28.375 -14.84375 24.75 -17.8125 
Q 21.140625 -20.796875 15.09375 -20.796875 
L 7.90625 -20.796875 
L 7.90625 -13.28125 
L 13.1875 -13.28125 
Q 16.890625 -13.28125 18.9375 -11.515625 
Q 21 -9.765625 23.484375 -3.21875 
L 25.09375 0.875 
L 2.984375 54.6875 
L 12.5 54.6875 
L 29.59375 11.921875 
L 46.6875 54.6875 
L 56.203125 54.6875 
z
" id="DejaVuSans-121"/>
       <path d="M 48.78125 52.59375 
L 48.78125 44.1875 
Q 44.96875 46.296875 41.140625 47.34375 
Q 37.3125 48.390625 33.40625 48.390625 
Q 24.65625 48.390625 19.8125 42.84375 
Q 14.984375 37.3125 14.984375 27.296875 
Q 14.984375 17.28125 19.8125 11.734375 
Q 24.65625 6.203125 33.40625 6.203125 
Q 37.3125 6.203125 41.140625 7.25 
Q 44.96875 8.296875 48.78125 10.40625 
L 48.78125 2.09375 
Q 45.015625 0.34375 40.984375 -0.53125 
Q 36.96875 -1.421875 32.421875 -1.421875 
Q 20.0625 -1.421875 12.78125 6.34375 
Q 5.515625 14.109375 5.515625 27.296875 
Q 5.515625 40.671875 12.859375 48.328125 
Q 20.21875 56 33.015625 56 
Q 37.15625 56 41.109375 55.140625 
Q 45.0625 54.296875 48.78125 52.59375 
z
" id="DejaVuSans-99"/>
       <path d="M 9.421875 75.984375 
L 18.40625 75.984375 
L 18.40625 0 
L 9.421875 0 
z
" id="DejaVuSans-108"/>
       <path d="M 56.203125 29.59375 
L 56.203125 25.203125 
L 14.890625 25.203125 
Q 15.484375 15.921875 20.484375 11.0625 
Q 25.484375 6.203125 34.421875 6.203125 
Q 39.59375 6.203125 44.453125 7.46875 
Q 49.3125 8.734375 54.109375 11.28125 
L 54.109375 2.78125 
Q 49.265625 0.734375 44.1875 -0.34375 
Q 39.109375 -1.421875 33.890625 -1.421875 
Q 20.796875 -1.421875 13.15625 6.1875 
Q 5.515625 13.8125 5.515625 26.8125 
Q 5.515625 40.234375 12.765625 48.109375 
Q 20.015625 56 32.328125 56 
Q 43.359375 56 49.78125 48.890625 
Q 56.203125 41.796875 56.203125 29.59375 
z
M 47.21875 32.234375 
Q 47.125 39.59375 43.09375 43.984375 
Q 39.0625 48.390625 32.421875 48.390625 
Q 24.90625 48.390625 20.390625 44.140625 
Q 15.875 39.890625 15.1875 32.171875 
z
" id="DejaVuSans-101"/>
      </defs>
      <use xlink:href="#DejaVuSans-67"/>
      <use x="69.824219" xlink:href="#DejaVuSans-121"/>
      <use x="129.003906" xlink:href="#DejaVuSans-99"/>
      <use x="183.984375" xlink:href="#DejaVuSans-108"/>
      <use x="211.767578" xlink:href="#DejaVuSans-101"/>
     </g>
    </g>
   </g>
   <g id="matplotlib.axis_2">
    <g id="ytick_1">
     <g id="line2d_9">
      <defs>
       <path d="M 0 0 
L -3.5 0 
" id="mc2e6af7ece" style="stroke:#000000;stroke-width:0.8;"/>
      </defs>
      <g>
       <use style="stroke:#000000;stroke-width:0.8;" x="115.444075" xlink:href="#mc2e6af7ece" y="182.490306"/>
      </g>
     </g>
     <g id="text_10">
      <!-- 2400 -->
      <g transform="translate(82.994075 186.289525)scale(0.1 -0.1)">
       <defs>
        <path d="M 37.796875 64.3125 
L 12.890625 25.390625 
L 37.796875 25.390625 
z
M 35.203125 72.90625 
L 47.609375 72.90625 
L 47.609375 25.390625 
L 58.015625 25.390625 
L 58.015625 17.1875 
L 47.609375 17.1875 
L 47.609375 0 
L 37.796875 0 
L 37.796875 17.1875 
L 4.890625 17.1875 
L 4.890625 26.703125 
z
" id="DejaVuSans-52"/>
       </defs>
       <use xlink:href="#DejaVuSans-50"/>
       <use x="63.623047" xlink:href="#DejaVuSans-52"/>
       <use x="127.246094" xlink:href="#DejaVuSans-48"/>
       <use x="190.869141" xlink:href="#DejaVuSans-48"/>
      </g>
     </g>
    </g>
    <g id="ytick_2">
     <g id="line2d_10">
      <g>
       <use style="stroke:#000000;stroke-width:0.8;" x="115.444075" xlink:href="#mc2e6af7ece" y="148.666759"/>
      </g>
     </g>
     <g id="text_11">
      <!-- 2600 -->
      <g transform="translate(82.994075 152.465978)scale(0.1 -0.1)">
       <defs>
        <path d="M 33.015625 40.375 
Q 26.375 40.375 22.484375 35.828125 
Q 18.609375 31.296875 18.609375 23.390625 
Q 18.609375 15.53125 22.484375 10.953125 
Q 26.375 6.390625 33.015625 6.390625 
Q 39.65625 6.390625 43.53125 10.953125 
Q 47.40625 15.53125 47.40625 23.390625 
Q 47.40625 31.296875 43.53125 35.828125 
Q 39.65625 40.375 33.015625 40.375 
z
M 52.59375 71.296875 
L 52.59375 62.3125 
Q 48.875 64.0625 45.09375 64.984375 
Q 41.3125 65.921875 37.59375 65.921875 
Q 27.828125 65.921875 22.671875 59.328125 
Q 17.53125 52.734375 16.796875 39.40625 
Q 19.671875 43.65625 24.015625 45.921875 
Q 28.375 48.1875 33.59375 48.1875 
Q 44.578125 48.1875 50.953125 41.515625 
Q 57.328125 34.859375 57.328125 23.390625 
Q 57.328125 12.15625 50.6875 5.359375 
Q 44.046875 -1.421875 33.015625 -1.421875 
Q 20.359375 -1.421875 13.671875 8.265625 
Q 6.984375 17.96875 6.984375 36.375 
Q 6.984375 53.65625 15.1875 63.9375 
Q 23.390625 74.21875 37.203125 74.21875 
Q 40.921875 74.21875 44.703125 73.484375 
Q 48.484375 72.75 52.59375 71.296875 
z
" id="DejaVuSans-54"/>
       </defs>
       <use xlink:href="#DejaVuSans-50"/>
       <use x="63.623047" xlink:href="#DejaVuSans-54"/>
       <use x="127.246094" xlink:href="#DejaVuSans-48"/>
       <use x="190.869141" xlink:href="#DejaVuSans-48"/>
      </g>
     </g>
    </g>
    <g id="ytick_3">
     <g id="line2d_11">
      <g>
       <use style="stroke:#000000;stroke-width:0.8;" x="115.444075" xlink:href="#mc2e6af7ece" y="114.843212"/>
      </g>
     </g>
     <g id="text_12">
      <!-- 2800 -->
      <g transform="translate(82.994075 118.642431)scale(0.1 -0.1)">
       <defs>
        <path d="M 31.78125 34.625 
Q 24.75 34.625 20.71875 30.859375 
Q 16.703125 27.09375 16.703125 20.515625 
Q 16.703125 13.921875 20.71875 10.15625 
Q 24.75 6.390625 31.78125 6.390625 
Q 38.8125 6.390625 42.859375 10.171875 
Q 46.921875 13.96875 46.921875 20.515625 
Q 46.921875 27.09375 42.890625 30.859375 
Q 38.875 34.625 31.78125 34.625 
z
M 21.921875 38.8125 
Q 15.578125 40.375 12.03125 44.71875 
Q 8.5 49.078125 8.5 55.328125 
Q 8.5 64.0625 14.71875 69.140625 
Q 20.953125 74.21875 31.78125 74.21875 
Q 42.671875 74.21875 48.875 69.140625 
Q 55.078125 64.0625 55.078125 55.328125 
Q 55.078125 49.078125 51.53125 44.71875 
Q 48 40.375 41.703125 38.8125 
Q 48.828125 37.15625 52.796875 32.3125 
Q 56.78125 27.484375 56.78125 20.515625 
Q 56.78125 9.90625 50.3125 4.234375 
Q 43.84375 -1.421875 31.78125 -1.421875 
Q 19.734375 -1.421875 13.25 4.234375 
Q 6.78125 9.90625 6.78125 20.515625 
Q 6.78125 27.484375 10.78125 32.3125 
Q 14.796875 37.15625 21.921875 38.8125 
z
M 18.3125 54.390625 
Q 18.3125 48.734375 21.84375 45.5625 
Q 25.390625 42.390625 31.78125 42.390625 
Q 38.140625 42.390625 41.71875 45.5625 
Q 45.3125 48.734375 45.3125 54.390625 
Q 45.3125 60.0625 41.71875 63.234375 
Q 38.140625 66.40625 31.78125 66.40625 
Q 25.390625 66.40625 21.84375 63.234375 
Q 18.3125 60.0625 18.3125 54.390625 
z
" id="DejaVuSans-56"/>
       </defs>
       <use xlink:href="#DejaVuSans-50"/>
       <use x="63.623047" xlink:href="#DejaVuSans-56"/>
       <use x="127.246094" xlink:href="#DejaVuSans-48"/>
       <use x="190.869141" xlink:href="#DejaVuSans-48"/>
      </g>
     </g>
    </g>
    <g id="ytick_4">
     <g id="line2d_12">
      <g>
       <use style="stroke:#000000;stroke-width:0.8;" x="115.444075" xlink:href="#mc2e6af7ece" y="81.019665"/>
      </g>
     </g>
     <g id="text_13">
      <!-- 3000 -->
      <g transform="translate(82.994075 84.818884)scale(0.1 -0.1)">
       <defs>
        <path d="M 40.578125 39.3125 
Q 47.65625 37.796875 51.625 33 
Q 55.609375 28.21875 55.609375 21.1875 
Q 55.609375 10.40625 48.1875 4.484375 
Q 40.765625 -1.421875 27.09375 -1.421875 
Q 22.515625 -1.421875 17.65625 -0.515625 
Q 12.796875 0.390625 7.625 2.203125 
L 7.625 11.71875 
Q 11.71875 9.328125 16.59375 8.109375 
Q 21.484375 6.890625 26.8125 6.890625 
Q 36.078125 6.890625 40.9375 10.546875 
Q 45.796875 14.203125 45.796875 21.1875 
Q 45.796875 27.640625 41.28125 31.265625 
Q 36.765625 34.90625 28.71875 34.90625 
L 20.21875 34.90625 
L 20.21875 43.015625 
L 29.109375 43.015625 
Q 36.375 43.015625 40.234375 45.921875 
Q 44.09375 48.828125 44.09375 54.296875 
Q 44.09375 59.90625 40.109375 62.90625 
Q 36.140625 65.921875 28.71875 65.921875 
Q 24.65625 65.921875 20.015625 65.03125 
Q 15.375 64.15625 9.8125 62.3125 
L 9.8125 71.09375 
Q 15.4375 72.65625 20.34375 73.4375 
Q 25.25 74.21875 29.59375 74.21875 
Q 40.828125 74.21875 47.359375 69.109375 
Q 53.90625 64.015625 53.90625 55.328125 
Q 53.90625 49.265625 50.4375 45.09375 
Q 46.96875 40.921875 40.578125 39.3125 
z
" id="DejaVuSans-51"/>
       </defs>
       <use xlink:href="#DejaVuSans-51"/>
       <use x="63.623047" xlink:href="#DejaVuSans-48"/>
       <use x="127.246094" xlink:href="#DejaVuSans-48"/>
       <use x="190.869141" xlink:href="#DejaVuSans-48"/>
      </g>
     </g>
    </g>
    <g id="ytick_5">
     <g id="line2d_13">
      <g>
       <use style="stroke:#000000;stroke-width:0.8;" x="115.444075" xlink:href="#mc2e6af7ece" y="47.196118"/>
      </g>
     </g>
     <g id="text_14">
      <!-- 3200 -->
      <g transform="translate(82.994075 50.995337)scale(0.1 -0.1)">
       <use xlink:href="#DejaVuSans-51"/>
       <use x="63.623047" xlink:href="#DejaVuSans-50"/>
       <use x="127.246094" xlink:href="#DejaVuSans-48"/>
       <use x="190.869141" xlink:href="#DejaVuSans-48"/>
      </g>
     </g>
    </g>
    <g id="ytick_6">
     <g id="line2d_14">
      <g>
       <use style="stroke:#000000;stroke-width:0.8;" x="115.444075" xlink:href="#mc2e6af7ece" y="13.372572"/>
      </g>
     </g>
     <g id="text_15">
      <!-- 3400 -->
      <g transform="translate(82.994075 17.17179)scale(0.1 -0.1)">
       <use xlink:href="#DejaVuSans-51"/>
       <use x="63.623047" xlink:href="#DejaVuSans-52"/>
       <use x="127.246094" xlink:href="#DejaVuSans-48"/>
       <use x="190.869141" xlink:href="#DejaVuSans-48"/>
      </g>
     </g>
    </g>
    <g id="text_16">
     <!-- Critical Point ($T_{TM}$) -->
     <g transform="translate(76.914388 152.399778)rotate(-90)scale(0.1 -0.1)">
      <defs>
       <path d="M 41.109375 46.296875 
Q 39.59375 47.171875 37.8125 47.578125 
Q 36.03125 48 33.890625 48 
Q 26.265625 48 22.1875 43.046875 
Q 18.109375 38.09375 18.109375 28.8125 
L 18.109375 0 
L 9.078125 0 
L 9.078125 54.6875 
L 18.109375 54.6875 
L 18.109375 46.1875 
Q 20.953125 51.171875 25.484375 53.578125 
Q 30.03125 56 36.53125 56 
Q 37.453125 56 38.578125 55.875 
Q 39.703125 55.765625 41.0625 55.515625 
z
" id="DejaVuSans-114"/>
       <path d="M 9.421875 54.6875 
L 18.40625 54.6875 
L 18.40625 0 
L 9.421875 0 
z
M 9.421875 75.984375 
L 18.40625 75.984375 
L 18.40625 64.59375 
L 9.421875 64.59375 
z
" id="DejaVuSans-105"/>
       <path d="M 18.3125 70.21875 
L 18.3125 54.6875 
L 36.8125 54.6875 
L 36.8125 47.703125 
L 18.3125 47.703125 
L 18.3125 18.015625 
Q 18.3125 11.328125 20.140625 9.421875 
Q 21.96875 7.515625 27.59375 7.515625 
L 36.8125 7.515625 
L 36.8125 0 
L 27.59375 0 
Q 17.1875 0 13.234375 3.875 
Q 9.28125 7.765625 9.28125 18.015625 
L 9.28125 47.703125 
L 2.6875 47.703125 
L 2.6875 54.6875 
L 9.28125 54.6875 
L 9.28125 70.21875 
z
" id="DejaVuSans-116"/>
       <path d="M 34.28125 27.484375 
Q 23.390625 27.484375 19.1875 25 
Q 14.984375 22.515625 14.984375 16.5 
Q 14.984375 11.71875 18.140625 8.90625 
Q 21.296875 6.109375 26.703125 6.109375 
Q 34.1875 6.109375 38.703125 11.40625 
Q 43.21875 16.703125 43.21875 25.484375 
L 43.21875 27.484375 
z
M 52.203125 31.203125 
L 52.203125 0 
L 43.21875 0 
L 43.21875 8.296875 
Q 40.140625 3.328125 35.546875 0.953125 
Q 30.953125 -1.421875 24.3125 -1.421875 
Q 15.921875 -1.421875 10.953125 3.296875 
Q 6 8.015625 6 15.921875 
Q 6 25.140625 12.171875 29.828125 
Q 18.359375 34.515625 30.609375 34.515625 
L 43.21875 34.515625 
L 43.21875 35.40625 
Q 43.21875 41.609375 39.140625 45 
Q 35.0625 48.390625 27.6875 48.390625 
Q 23 48.390625 18.546875 47.265625 
Q 14.109375 46.140625 10.015625 43.890625 
L 10.015625 52.203125 
Q 14.9375 54.109375 19.578125 55.046875 
Q 24.21875 56 28.609375 56 
Q 40.484375 56 46.34375 49.84375 
Q 52.203125 43.703125 52.203125 31.203125 
z
" id="DejaVuSans-97"/>
       <path id="DejaVuSans-32"/>
       <path d="M 19.671875 64.796875 
L 19.671875 37.40625 
L 32.078125 37.40625 
Q 38.96875 37.40625 42.71875 40.96875 
Q 46.484375 44.53125 46.484375 51.125 
Q 46.484375 57.671875 42.71875 61.234375 
Q 38.96875 64.796875 32.078125 64.796875 
z
M 9.8125 72.90625 
L 32.078125 72.90625 
Q 44.34375 72.90625 50.609375 67.359375 
Q 56.890625 61.8125 56.890625 51.125 
Q 56.890625 40.328125 50.609375 34.8125 
Q 44.34375 29.296875 32.078125 29.296875 
L 19.671875 29.296875 
L 19.671875 0 
L 9.8125 0 
z
" id="DejaVuSans-80"/>
       <path d="M 30.609375 48.390625 
Q 23.390625 48.390625 19.1875 42.75 
Q 14.984375 37.109375 14.984375 27.296875 
Q 14.984375 17.484375 19.15625 11.84375 
Q 23.34375 6.203125 30.609375 6.203125 
Q 37.796875 6.203125 41.984375 11.859375 
Q 46.1875 17.53125 46.1875 27.296875 
Q 46.1875 37.015625 41.984375 42.703125 
Q 37.796875 48.390625 30.609375 48.390625 
z
M 30.609375 56 
Q 42.328125 56 49.015625 48.375 
Q 55.71875 40.765625 55.71875 27.296875 
Q 55.71875 13.875 49.015625 6.21875 
Q 42.328125 -1.421875 30.609375 -1.421875 
Q 18.84375 -1.421875 12.171875 6.21875 
Q 5.515625 13.875 5.515625 27.296875 
Q 5.515625 40.765625 12.171875 48.375 
Q 18.84375 56 30.609375 56 
z
" id="DejaVuSans-111"/>
       <path d="M 54.890625 33.015625 
L 54.890625 0 
L 45.90625 0 
L 45.90625 32.71875 
Q 45.90625 40.484375 42.875 44.328125 
Q 39.84375 48.1875 33.796875 48.1875 
Q 26.515625 48.1875 22.3125 43.546875 
Q 18.109375 38.921875 18.109375 30.90625 
L 18.109375 0 
L 9.078125 0 
L 9.078125 54.6875 
L 18.109375 54.6875 
L 18.109375 46.1875 
Q 21.34375 51.125 25.703125 53.5625 
Q 30.078125 56 35.796875 56 
Q 45.21875 56 50.046875 50.171875 
Q 54.890625 44.34375 54.890625 33.015625 
z
" id="DejaVuSans-110"/>
       <path d="M 31 75.875 
Q 24.46875 64.65625 21.28125 53.65625 
Q 18.109375 42.671875 18.109375 31.390625 
Q 18.109375 20.125 21.3125 9.0625 
Q 24.515625 -2 31 -13.1875 
L 23.1875 -13.1875 
Q 15.875 -1.703125 12.234375 9.375 
Q 8.59375 20.453125 8.59375 31.390625 
Q 8.59375 42.28125 12.203125 53.3125 
Q 15.828125 64.359375 23.1875 75.875 
z
" id="DejaVuSans-40"/>
       <path d="M 5.90625 72.90625 
L 67.578125 72.90625 
L 66.015625 64.59375 
L 39.984375 64.59375 
L 27.484375 0 
L 17.578125 0 
L 30.078125 64.59375 
L 4.296875 64.59375 
z
" id="DejaVuSans-Oblique-84"/>
       <path d="M 16.890625 72.90625 
L 31.6875 72.90625 
L 40.1875 23.78125 
L 68.40625 72.90625 
L 83.59375 72.90625 
L 69.390625 0 
L 59.8125 0 
L 72.21875 63.921875 
L 43.609375 14.015625 
L 33.984375 14.015625 
L 24.703125 64.109375 
L 12.3125 0 
L 2.6875 0 
z
" id="DejaVuSans-Oblique-77"/>
       <path d="M 8.015625 75.875 
L 15.828125 75.875 
Q 23.140625 64.359375 26.78125 53.3125 
Q 30.421875 42.28125 30.421875 31.390625 
Q 30.421875 20.453125 26.78125 9.375 
Q 23.140625 -1.703125 15.828125 -13.1875 
L 8.015625 -13.1875 
Q 14.5 -2 17.703125 9.0625 
Q 20.90625 20.125 20.90625 31.390625 
Q 20.90625 42.671875 17.703125 53.65625 
Q 14.5 64.65625 8.015625 75.875 
z
" id="DejaVuSans-41"/>
      </defs>
      <use transform="translate(0 0.015625)" xlink:href="#DejaVuSans-67"/>
      <use transform="translate(69.824219 0.015625)" xlink:href="#DejaVuSans-114"/>
      <use transform="translate(110.9375 0.015625)" xlink:href="#DejaVuSans-105"/>
      <use transform="translate(138.720703 0.015625)" xlink:href="#DejaVuSans-116"/>
      <use transform="translate(177.929688 0.015625)" xlink:href="#DejaVuSans-105"/>
      <use transform="translate(205.712891 0.015625)" xlink:href="#DejaVuSans-99"/>
      <use transform="translate(260.693359 0.015625)" xlink:href="#DejaVuSans-97"/>
      <use transform="translate(321.972656 0.015625)" xlink:href="#DejaVuSans-108"/>
      <use transform="translate(349.755859 0.015625)" xlink:href="#DejaVuSans-32"/>
      <use transform="translate(381.542969 0.015625)" xlink:href="#DejaVuSans-80"/>
      <use transform="translate(441.845703 0.015625)" xlink:href="#DejaVuSans-111"/>
      <use transform="translate(503.027344 0.015625)" xlink:href="#DejaVuSans-105"/>
      <use transform="translate(530.810547 0.015625)" xlink:href="#DejaVuSans-110"/>
      <use transform="translate(594.189453 0.015625)" xlink:href="#DejaVuSans-116"/>
      <use transform="translate(633.398438 0.015625)" xlink:href="#DejaVuSans-32"/>
      <use transform="translate(665.185547 0.015625)" xlink:href="#DejaVuSans-40"/>
      <use transform="translate(704.199219 0.015625)" xlink:href="#DejaVuSans-Oblique-84"/>
      <use transform="translate(765.283203 -16.390625)scale(0.7)" xlink:href="#DejaVuSans-Oblique-84"/>
      <use transform="translate(808.041992 -16.390625)scale(0.7)" xlink:href="#DejaVuSans-Oblique-77"/>
      <use transform="translate(871.171875 0.015625)" xlink:href="#DejaVuSans-41"/>
     </g>
    </g>
   </g>
   <g id="line2d_15">
    <path clip-path="url(#p0bf10b89ae)" d="M 132.306802 18.990494 
L 134.32629 22.042392 
L 136.345778 25.332409 
L 138.365266 25.295372 
L 140.384755 25.628365 
L 142.404243 25.371982 
L 144.423731 25.522666 
L 146.443219 28.368579 
L 148.462708 28.656587 
L 152.501684 28.590462 
L 154.521172 31.832787 
L 158.560149 31.951677 
L 160.579637 35.212605 
L 162.599125 35.397451 
L 166.638102 35.220553 
L 168.65759 35.257421 
L 170.677078 21.849598 
L 172.696566 21.669826 
L 176.735543 28.162425 
L 178.755031 28.429293 
L 180.774519 28.270829 
L 182.794007 31.779853 
L 184.813496 31.534294 
L 186.832984 31.859169 
L 188.852472 35.233745 
L 190.87196 34.824141 
L 192.891449 22.563106 
L 194.910937 30.503691 
L 196.930425 33.716928 
L 198.949913 38.504989 
L 200.969401 38.314901 
L 205.008378 41.615233 
L 207.027866 44.860095 
L 209.047354 47.883244 
L 211.066843 47.962391 
L 215.105819 51.149246 
L 217.125307 45.874971 
L 219.144796 51.056907 
L 221.164284 52.668768 
L 223.183772 57.351131 
L 225.20326 59.058205 
L 227.222748 40.019269 
L 229.242237 44.80733 
L 231.261725 47.954442 
L 233.281213 52.623783 
L 235.300701 55.733858 
L 237.32019 57.335234 
L 239.339678 57.322043 
L 241.359166 61.999163 
L 243.378654 65.178069 
L 245.398142 66.813776 
L 247.417631 66.602379 
L 249.437119 69.937211 
L 251.456607 71.623146 
L 253.476095 72.962727 
L 255.495584 76.096648 
L 259.53456 79.209598 
L 263.573537 82.330328 
L 265.593025 85.670403 
L 267.612513 87.150183 
L 269.632001 90.371369 
L 271.651489 91.824597 
L 273.670978 91.94095 
L 275.690466 96.824225 
L 277.709954 96.636673 
L 279.729442 98.15349 
L 281.748931 101.461772 
L 283.768419 103.007677 
L 285.787907 103.137052 
L 287.807395 99.9688 
L 289.826883 106.16798 
L 291.846372 110.913762 
L 293.86586 110.850512 
L 295.885348 110.99849 
L 297.904836 112.42263 
L 299.924325 114.161499 
L 301.943813 117.30878 
L 303.963301 122.035959 
L 305.982789 120.363384 
L 310.021766 123.587107 
L 312.041254 98.56563 
L 314.060742 109.653496 
L 318.099719 119.055259 
L 320.119207 120.712105 
L 322.138695 123.732548 
L 328.19716 128.414911 
L 330.216648 131.672964 
L 334.255625 134.772723 
L 336.275113 136.432106 
L 340.314089 130.113867 
L 342.333577 134.748877 
L 344.353066 138.059864 
L 346.372554 142.808521 
L 348.392042 142.890205 
L 350.41153 142.612852 
L 352.431019 144.306735 
L 354.450507 147.440656 
L 356.469995 149.134539 
L 358.489483 149.121179 
L 366.567436 155.418277 
L 368.586924 155.42352 
L 370.606413 156.956234 
L 372.625901 149.152973 
L 374.645389 147.593876 
L 376.664877 153.9226 
L 378.684366 157.030139 
L 380.703854 158.774081 
L 382.723342 160.164059 
L 392.820783 168.062534 
L 394.840271 168.065071 
L 396.85976 169.758954 
L 400.898736 163.316583 
L 402.918224 168.22624 
L 404.937712 169.764197 
L 406.957201 172.943103 
L 410.996177 172.834698 
L 417.054642 177.599083 
L 419.07413 177.644068 
L 421.093618 179.081569 
L 427.152083 183.912079 
L 433.210548 183.82752 
L 435.230036 171.238734 
L 437.249524 177.469708 
L 439.269012 180.63796 
L 443.307989 183.742961 
L 445.327477 186.937595 
L 447.346965 185.383742 
L 449.366454 187.035345 
L 451.385942 188.528317 
L 455.424918 188.356662 
L 457.444406 190.045134 
L 459.463895 190.002854 
L 461.483383 191.48534 
L 463.502871 194.709063 
L 465.522359 193.26615 
L 469.561336 183.57638 
L 469.561336 183.57638 
" style="fill:none;stroke:#1f77b4;stroke-linecap:square;stroke-width:1.5;"/>
   </g>
   <g id="patch_3">
    <path d="M 115.444075 203.494991 
L 115.444075 10.204565 
" style="fill:none;stroke:#000000;stroke-linecap:square;stroke-linejoin:miter;stroke-width:0.8;"/>
   </g>
   <g id="patch_4">
    <path d="M 486.424062 203.494991 
L 486.424062 10.204565 
" style="fill:none;stroke:#000000;stroke-linecap:square;stroke-linejoin:miter;stroke-width:0.8;"/>
   </g>
   <g id="patch_5">
    <path d="M 115.444075 203.494991 
L 486.424062 203.494991 
" style="fill:none;stroke:#000000;stroke-linecap:square;stroke-linejoin:miter;stroke-width:0.8;"/>
   </g>
   <g id="patch_6">
    <path d="M 115.444075 10.204565 
L 486.424062 10.204565 
" style="fill:none;stroke:#000000;stroke-linecap:square;stroke-linejoin:miter;stroke-width:0.8;"/>
   </g>
  </g>
  <g id="axes_2">
   <g id="patch_7">
    <path d="M 601.868137 203.494991 
L 972.848125 203.494991 
L 972.848125 10.204565 
L 601.868137 10.204565 
z
" style="fill:#ffffff;"/>
   </g>
   <g id="matplotlib.axis_3">
    <g id="xtick_9">
     <g id="line2d_16">
      <g>
       <use style="stroke:#000000;stroke-width:0.8;" x="616.711376" xlink:href="#m22154f25f8" y="203.494991"/>
      </g>
     </g>
     <g id="text_17">
      <!-- 0 -->
      <g transform="translate(613.530126 218.093429)scale(0.1 -0.1)">
       <use xlink:href="#DejaVuSans-48"/>
      </g>
     </g>
    </g>
    <g id="xtick_10">
     <g id="line2d_17">
      <g>
       <use style="stroke:#000000;stroke-width:0.8;" x="667.198582" xlink:href="#m22154f25f8" y="203.494991"/>
      </g>
     </g>
     <g id="text_18">
      <!-- 25 -->
      <g transform="translate(660.836082 218.093429)scale(0.1 -0.1)">
       <use xlink:href="#DejaVuSans-50"/>
       <use x="63.623047" xlink:href="#DejaVuSans-53"/>
      </g>
     </g>
    </g>
    <g id="xtick_11">
     <g id="line2d_18">
      <g>
       <use style="stroke:#000000;stroke-width:0.8;" x="717.685787" xlink:href="#m22154f25f8" y="203.494991"/>
      </g>
     </g>
     <g id="text_19">
      <!-- 50 -->
      <g transform="translate(711.323287 218.093429)scale(0.1 -0.1)">
       <use xlink:href="#DejaVuSans-53"/>
       <use x="63.623047" xlink:href="#DejaVuSans-48"/>
      </g>
     </g>
    </g>
    <g id="xtick_12">
     <g id="line2d_19">
      <g>
       <use style="stroke:#000000;stroke-width:0.8;" x="768.172993" xlink:href="#m22154f25f8" y="203.494991"/>
      </g>
     </g>
     <g id="text_20">
      <!-- 75 -->
      <g transform="translate(761.810493 218.093429)scale(0.1 -0.1)">
       <use xlink:href="#DejaVuSans-55"/>
       <use x="63.623047" xlink:href="#DejaVuSans-53"/>
      </g>
     </g>
    </g>
    <g id="xtick_13">
     <g id="line2d_20">
      <g>
       <use style="stroke:#000000;stroke-width:0.8;" x="818.660199" xlink:href="#m22154f25f8" y="203.494991"/>
      </g>
     </g>
     <g id="text_21">
      <!-- 100 -->
      <g transform="translate(809.116449 218.093429)scale(0.1 -0.1)">
       <use xlink:href="#DejaVuSans-49"/>
       <use x="63.623047" xlink:href="#DejaVuSans-48"/>
       <use x="127.246094" xlink:href="#DejaVuSans-48"/>
      </g>
     </g>
    </g>
    <g id="xtick_14">
     <g id="line2d_21">
      <g>
       <use style="stroke:#000000;stroke-width:0.8;" x="869.147404" xlink:href="#m22154f25f8" y="203.494991"/>
      </g>
     </g>
     <g id="text_22">
      <!-- 125 -->
      <g transform="translate(859.603654 218.093429)scale(0.1 -0.1)">
       <use xlink:href="#DejaVuSans-49"/>
       <use x="63.623047" xlink:href="#DejaVuSans-50"/>
       <use x="127.246094" xlink:href="#DejaVuSans-53"/>
      </g>
     </g>
    </g>
    <g id="xtick_15">
     <g id="line2d_22">
      <g>
       <use style="stroke:#000000;stroke-width:0.8;" x="919.63461" xlink:href="#m22154f25f8" y="203.494991"/>
      </g>
     </g>
     <g id="text_23">
      <!-- 150 -->
      <g transform="translate(910.09086 218.093429)scale(0.1 -0.1)">
       <use xlink:href="#DejaVuSans-49"/>
       <use x="63.623047" xlink:href="#DejaVuSans-53"/>
       <use x="127.246094" xlink:href="#DejaVuSans-48"/>
      </g>
     </g>
    </g>
    <g id="xtick_16">
     <g id="line2d_23">
      <g>
       <use style="stroke:#000000;stroke-width:0.8;" x="970.121816" xlink:href="#m22154f25f8" y="203.494991"/>
      </g>
     </g>
     <g id="text_24">
      <!-- 175 -->
      <g transform="translate(960.578066 218.093429)scale(0.1 -0.1)">
       <use xlink:href="#DejaVuSans-49"/>
       <use x="63.623047" xlink:href="#DejaVuSans-55"/>
       <use x="127.246094" xlink:href="#DejaVuSans-53"/>
      </g>
     </g>
    </g>
    <g id="text_25">
     <!-- Cycle -->
     <g transform="translate(773.692506 231.771554)scale(0.1 -0.1)">
      <use xlink:href="#DejaVuSans-67"/>
      <use x="69.824219" xlink:href="#DejaVuSans-121"/>
      <use x="129.003906" xlink:href="#DejaVuSans-99"/>
      <use x="183.984375" xlink:href="#DejaVuSans-108"/>
      <use x="211.767578" xlink:href="#DejaVuSans-101"/>
     </g>
    </g>
   </g>
   <g id="matplotlib.axis_4">
    <g id="ytick_7">
     <g id="line2d_24">
      <g>
       <use style="stroke:#000000;stroke-width:0.8;" x="601.868137" xlink:href="#mc2e6af7ece" y="180.538626"/>
      </g>
     </g>
     <g id="text_26">
      <!-- 2400 -->
      <g transform="translate(569.418137 184.337844)scale(0.1 -0.1)">
       <use xlink:href="#DejaVuSans-50"/>
       <use x="63.623047" xlink:href="#DejaVuSans-52"/>
       <use x="127.246094" xlink:href="#DejaVuSans-48"/>
       <use x="190.869141" xlink:href="#DejaVuSans-48"/>
      </g>
     </g>
    </g>
    <g id="ytick_8">
     <g id="line2d_25">
      <g>
       <use style="stroke:#000000;stroke-width:0.8;" x="601.868137" xlink:href="#mc2e6af7ece" y="146.418482"/>
      </g>
     </g>
     <g id="text_27">
      <!-- 2600 -->
      <g transform="translate(569.418137 150.217701)scale(0.1 -0.1)">
       <use xlink:href="#DejaVuSans-50"/>
       <use x="63.623047" xlink:href="#DejaVuSans-54"/>
       <use x="127.246094" xlink:href="#DejaVuSans-48"/>
       <use x="190.869141" xlink:href="#DejaVuSans-48"/>
      </g>
     </g>
    </g>
    <g id="ytick_9">
     <g id="line2d_26">
      <g>
       <use style="stroke:#000000;stroke-width:0.8;" x="601.868137" xlink:href="#mc2e6af7ece" y="112.298338"/>
      </g>
     </g>
     <g id="text_28">
      <!-- 2800 -->
      <g transform="translate(569.418137 116.097557)scale(0.1 -0.1)">
       <use xlink:href="#DejaVuSans-50"/>
       <use x="63.623047" xlink:href="#DejaVuSans-56"/>
       <use x="127.246094" xlink:href="#DejaVuSans-48"/>
       <use x="190.869141" xlink:href="#DejaVuSans-48"/>
      </g>
     </g>
    </g>
    <g id="ytick_10">
     <g id="line2d_27">
      <g>
       <use style="stroke:#000000;stroke-width:0.8;" x="601.868137" xlink:href="#mc2e6af7ece" y="78.178195"/>
      </g>
     </g>
     <g id="text_29">
      <!-- 3000 -->
      <g transform="translate(569.418137 81.977414)scale(0.1 -0.1)">
       <use xlink:href="#DejaVuSans-51"/>
       <use x="63.623047" xlink:href="#DejaVuSans-48"/>
       <use x="127.246094" xlink:href="#DejaVuSans-48"/>
       <use x="190.869141" xlink:href="#DejaVuSans-48"/>
      </g>
     </g>
    </g>
    <g id="ytick_11">
     <g id="line2d_28">
      <g>
       <use style="stroke:#000000;stroke-width:0.8;" x="601.868137" xlink:href="#mc2e6af7ece" y="44.058051"/>
      </g>
     </g>
     <g id="text_30">
      <!-- 3200 -->
      <g transform="translate(569.418137 47.85727)scale(0.1 -0.1)">
       <use xlink:href="#DejaVuSans-51"/>
       <use x="63.623047" xlink:href="#DejaVuSans-50"/>
       <use x="127.246094" xlink:href="#DejaVuSans-48"/>
       <use x="190.869141" xlink:href="#DejaVuSans-48"/>
      </g>
     </g>
    </g>
    <g id="text_31">
     <!-- Critical Point ($T_{VM}$) -->
     <g transform="translate(563.33845 152.649778)rotate(-90)scale(0.1 -0.1)">
      <defs>
       <path d="M 20.609375 0 
L 7.8125 72.90625 
L 17.484375 72.90625 
L 28.078125 10.203125 
L 63.484375 72.90625 
L 74.21875 72.90625 
L 32.078125 0 
z
" id="DejaVuSans-Oblique-86"/>
      </defs>
      <use transform="translate(0 0.015625)" xlink:href="#DejaVuSans-67"/>
      <use transform="translate(69.824219 0.015625)" xlink:href="#DejaVuSans-114"/>
      <use transform="translate(110.9375 0.015625)" xlink:href="#DejaVuSans-105"/>
      <use transform="translate(138.720703 0.015625)" xlink:href="#DejaVuSans-116"/>
      <use transform="translate(177.929688 0.015625)" xlink:href="#DejaVuSans-105"/>
      <use transform="translate(205.712891 0.015625)" xlink:href="#DejaVuSans-99"/>
      <use transform="translate(260.693359 0.015625)" xlink:href="#DejaVuSans-97"/>
      <use transform="translate(321.972656 0.015625)" xlink:href="#DejaVuSans-108"/>
      <use transform="translate(349.755859 0.015625)" xlink:href="#DejaVuSans-32"/>
      <use transform="translate(381.542969 0.015625)" xlink:href="#DejaVuSans-80"/>
      <use transform="translate(441.845703 0.015625)" xlink:href="#DejaVuSans-111"/>
      <use transform="translate(503.027344 0.015625)" xlink:href="#DejaVuSans-105"/>
      <use transform="translate(530.810547 0.015625)" xlink:href="#DejaVuSans-110"/>
      <use transform="translate(594.189453 0.015625)" xlink:href="#DejaVuSans-116"/>
      <use transform="translate(633.398438 0.015625)" xlink:href="#DejaVuSans-32"/>
      <use transform="translate(665.185547 0.015625)" xlink:href="#DejaVuSans-40"/>
      <use transform="translate(704.199219 0.015625)" xlink:href="#DejaVuSans-Oblique-84"/>
      <use transform="translate(765.283203 -16.390625)scale(0.7)" xlink:href="#DejaVuSans-Oblique-86"/>
      <use transform="translate(813.168945 -16.390625)scale(0.7)" xlink:href="#DejaVuSans-Oblique-77"/>
      <use transform="translate(876.298828 0.015625)" xlink:href="#DejaVuSans-41"/>
     </g>
    </g>
   </g>
   <g id="line2d_29">
    <path clip-path="url(#p12b8ebc45f)" d="M 618.730864 18.990494 
L 620.750352 22.079902 
L 622.769841 25.390579 
L 624.789329 25.339911 
L 626.808817 25.686401 
L 628.828305 25.419923 
L 630.847794 25.56118 
L 632.867282 28.450815 
L 634.88677 28.722582 
L 638.925746 28.664066 
L 640.945235 31.942671 
L 644.984211 32.062774 
L 647.003699 35.346667 
L 649.023188 35.530574 
L 655.081652 35.397335 
L 657.101141 21.87211 
L 659.120629 21.680014 
L 663.159605 28.272026 
L 665.179093 28.504043 
L 667.198582 28.330883 
L 669.21807 31.886714 
L 671.237558 31.660156 
L 673.257046 31.958707 
L 675.276535 35.370721 
L 677.296023 34.976293 
L 679.315511 22.463754 
L 681.334999 28.842685 
L 685.373976 35.29071 
L 687.393464 36.719661 
L 689.412952 38.398884 
L 691.43244 41.67493 
L 693.451929 43.332998 
L 695.471417 46.377197 
L 697.490905 46.486382 
L 699.510393 48.021788 
L 701.529882 49.701182 
L 703.54937 46.107989 
L 707.588346 52.868043 
L 709.607834 55.952163 
L 711.627323 57.668747 
L 713.646811 40.083566 
L 715.666299 43.263564 
L 717.685787 48.064439 
L 721.724764 54.331456 
L 725.76374 57.570311 
L 729.802717 63.850464 
L 731.822205 65.511092 
L 733.841693 66.95062 
L 737.88067 70.346598 
L 739.900158 73.326822 
L 741.919646 76.514838 
L 743.939134 76.490783 
L 745.958623 79.662933 
L 749.997599 82.789703 
L 752.017087 86.156337 
L 758.075552 90.735943 
L 760.09504 92.4846 
L 762.114528 95.781971 
L 766.153505 98.762195 
L 768.172993 102.107505 
L 770.192481 103.64837 
L 772.21197 103.797475 
L 774.231458 100.582846 
L 776.250946 106.844404 
L 778.270434 109.979192 
L 780.289922 111.567997 
L 782.309411 111.709254 
L 784.328899 113.143324 
L 786.348387 114.905288 
L 790.387364 121.212226 
L 792.406852 121.15098 
L 796.445828 124.427026 
L 798.465317 97.520051 
L 800.484805 110.349737 
L 804.523781 119.858168 
L 806.543269 121.513507 
L 808.562758 124.560265 
L 814.621222 129.286417 
L 816.640711 132.575769 
L 820.679687 135.69998 
L 822.699175 137.368626 
L 826.738152 131.00829 
L 828.75764 135.678655 
L 830.777128 139.023965 
L 832.796616 143.808803 
L 834.816105 143.883355 
L 836.835593 143.60357 
L 838.855081 145.309577 
L 840.874569 148.502882 
L 842.894058 150.201041 
L 844.913546 150.182275 
L 852.991499 156.523845 
L 855.010987 156.518556 
L 857.030475 158.075288 
L 859.049963 150.182275 
L 861.069452 148.628273 
L 863.08894 155.007205 
L 865.108428 158.136534 
L 867.127916 159.906516 
L 869.147404 161.311413 
L 879.244846 169.276419 
L 881.264334 169.262942 
L 883.283822 170.993004 
L 887.322799 164.486292 
L 889.342287 169.438831 
L 891.361775 171.001022 
L 893.381263 174.191767 
L 897.42024 174.082412 
L 903.478704 178.909901 
L 905.498193 178.952551 
L 907.517681 180.39208 
L 913.576146 185.251471 
L 917.615122 185.227416 
L 919.63461 183.545463 
L 921.654098 172.475012 
L 923.673587 178.766084 
L 925.693075 181.948641 
L 931.75154 186.696288 
L 933.771028 186.757534 
L 935.790516 188.42345 
L 937.810004 189.905629 
L 941.848981 189.748335 
L 943.868469 191.441035 
L 945.887957 191.417151 
L 947.907445 192.893871 
L 949.926934 194.509289 
L 951.946422 194.709063 
L 953.96591 188.111762 
L 955.985398 183.276255 
L 955.985398 183.276255 
" style="fill:none;stroke:#1f77b4;stroke-linecap:square;stroke-width:1.5;"/>
   </g>
   <g id="patch_8">
    <path d="M 601.868137 203.494991 
L 601.868137 10.204565 
" style="fill:none;stroke:#000000;stroke-linecap:square;stroke-linejoin:miter;stroke-width:0.8;"/>
   </g>
   <g id="patch_9">
    <path d="M 972.848125 203.494991 
L 972.848125 10.204565 
" style="fill:none;stroke:#000000;stroke-linecap:square;stroke-linejoin:miter;stroke-width:0.8;"/>
   </g>
   <g id="patch_10">
    <path d="M 601.868137 203.494991 
L 972.848125 203.494991 
" style="fill:none;stroke:#000000;stroke-linecap:square;stroke-linejoin:miter;stroke-width:0.8;"/>
   </g>
   <g id="patch_11">
    <path d="M 601.868137 10.204565 
L 972.848125 10.204565 
" style="fill:none;stroke:#000000;stroke-linecap:square;stroke-linejoin:miter;stroke-width:0.8;"/>
   </g>
  </g>
  <g id="axes_3">
   <g id="patch_12">
    <path d="M 115.444075 452.556 
L 486.424062 452.556 
L 486.424062 259.265574 
L 115.444075 259.265574 
z
" style="fill:#ffffff;"/>
   </g>
   <g id="matplotlib.axis_5">
    <g id="xtick_17">
     <g id="line2d_30">
      <g>
       <use style="stroke:#000000;stroke-width:0.8;" x="130.287313" xlink:href="#m22154f25f8" y="452.556"/>
      </g>
     </g>
     <g id="text_32">
      <!-- 0 -->
      <g transform="translate(127.106063 467.154437)scale(0.1 -0.1)">
       <use xlink:href="#DejaVuSans-48"/>
      </g>
     </g>
    </g>
    <g id="xtick_18">
     <g id="line2d_31">
      <g>
       <use style="stroke:#000000;stroke-width:0.8;" x="180.774519" xlink:href="#m22154f25f8" y="452.556"/>
      </g>
     </g>
     <g id="text_33">
      <!-- 25 -->
      <g transform="translate(174.412019 467.154437)scale(0.1 -0.1)">
       <use xlink:href="#DejaVuSans-50"/>
       <use x="63.623047" xlink:href="#DejaVuSans-53"/>
      </g>
     </g>
    </g>
    <g id="xtick_19">
     <g id="line2d_32">
      <g>
       <use style="stroke:#000000;stroke-width:0.8;" x="231.261725" xlink:href="#m22154f25f8" y="452.556"/>
      </g>
     </g>
     <g id="text_34">
      <!-- 50 -->
      <g transform="translate(224.899225 467.154437)scale(0.1 -0.1)">
       <use xlink:href="#DejaVuSans-53"/>
       <use x="63.623047" xlink:href="#DejaVuSans-48"/>
      </g>
     </g>
    </g>
    <g id="xtick_20">
     <g id="line2d_33">
      <g>
       <use style="stroke:#000000;stroke-width:0.8;" x="281.748931" xlink:href="#m22154f25f8" y="452.556"/>
      </g>
     </g>
     <g id="text_35">
      <!-- 75 -->
      <g transform="translate(275.386431 467.154437)scale(0.1 -0.1)">
       <use xlink:href="#DejaVuSans-55"/>
       <use x="63.623047" xlink:href="#DejaVuSans-53"/>
      </g>
     </g>
    </g>
    <g id="xtick_21">
     <g id="line2d_34">
      <g>
       <use style="stroke:#000000;stroke-width:0.8;" x="332.236136" xlink:href="#m22154f25f8" y="452.556"/>
      </g>
     </g>
     <g id="text_36">
      <!-- 100 -->
      <g transform="translate(322.692386 467.154437)scale(0.1 -0.1)">
       <use xlink:href="#DejaVuSans-49"/>
       <use x="63.623047" xlink:href="#DejaVuSans-48"/>
       <use x="127.246094" xlink:href="#DejaVuSans-48"/>
      </g>
     </g>
    </g>
    <g id="xtick_22">
     <g id="line2d_35">
      <g>
       <use style="stroke:#000000;stroke-width:0.8;" x="382.723342" xlink:href="#m22154f25f8" y="452.556"/>
      </g>
     </g>
     <g id="text_37">
      <!-- 125 -->
      <g transform="translate(373.179592 467.154437)scale(0.1 -0.1)">
       <use xlink:href="#DejaVuSans-49"/>
       <use x="63.623047" xlink:href="#DejaVuSans-50"/>
       <use x="127.246094" xlink:href="#DejaVuSans-53"/>
      </g>
     </g>
    </g>
    <g id="xtick_23">
     <g id="line2d_36">
      <g>
       <use style="stroke:#000000;stroke-width:0.8;" x="433.210548" xlink:href="#m22154f25f8" y="452.556"/>
      </g>
     </g>
     <g id="text_38">
      <!-- 150 -->
      <g transform="translate(423.666798 467.154437)scale(0.1 -0.1)">
       <use xlink:href="#DejaVuSans-49"/>
       <use x="63.623047" xlink:href="#DejaVuSans-53"/>
       <use x="127.246094" xlink:href="#DejaVuSans-48"/>
      </g>
     </g>
    </g>
    <g id="xtick_24">
     <g id="line2d_37">
      <g>
       <use style="stroke:#000000;stroke-width:0.8;" x="483.697753" xlink:href="#m22154f25f8" y="452.556"/>
      </g>
     </g>
     <g id="text_39">
      <!-- 175 -->
      <g transform="translate(474.154003 467.154437)scale(0.1 -0.1)">
       <use xlink:href="#DejaVuSans-49"/>
       <use x="63.623047" xlink:href="#DejaVuSans-55"/>
       <use x="127.246094" xlink:href="#DejaVuSans-53"/>
      </g>
     </g>
    </g>
    <g id="text_40">
     <!-- Cycle -->
     <g transform="translate(287.268444 480.832562)scale(0.1 -0.1)">
      <use xlink:href="#DejaVuSans-67"/>
      <use x="69.824219" xlink:href="#DejaVuSans-121"/>
      <use x="129.003906" xlink:href="#DejaVuSans-99"/>
      <use x="183.984375" xlink:href="#DejaVuSans-108"/>
      <use x="211.767578" xlink:href="#DejaVuSans-101"/>
     </g>
    </g>
   </g>
   <g id="matplotlib.axis_6">
    <g id="ytick_12">
     <g id="line2d_38">
      <g>
       <use style="stroke:#000000;stroke-width:0.8;" x="115.444075" xlink:href="#mc2e6af7ece" y="431.376991"/>
      </g>
     </g>
     <g id="text_41">
      <!-- 2400 -->
      <g transform="translate(82.994075 435.17621)scale(0.1 -0.1)">
       <use xlink:href="#DejaVuSans-50"/>
       <use x="63.623047" xlink:href="#DejaVuSans-52"/>
       <use x="127.246094" xlink:href="#DejaVuSans-48"/>
       <use x="190.869141" xlink:href="#DejaVuSans-48"/>
      </g>
     </g>
    </g>
    <g id="ytick_13">
     <g id="line2d_39">
      <g>
       <use style="stroke:#000000;stroke-width:0.8;" x="115.444075" xlink:href="#mc2e6af7ece" y="397.589507"/>
      </g>
     </g>
     <g id="text_42">
      <!-- 2600 -->
      <g transform="translate(82.994075 401.388726)scale(0.1 -0.1)">
       <use xlink:href="#DejaVuSans-50"/>
       <use x="63.623047" xlink:href="#DejaVuSans-54"/>
       <use x="127.246094" xlink:href="#DejaVuSans-48"/>
       <use x="190.869141" xlink:href="#DejaVuSans-48"/>
      </g>
     </g>
    </g>
    <g id="ytick_14">
     <g id="line2d_40">
      <g>
       <use style="stroke:#000000;stroke-width:0.8;" x="115.444075" xlink:href="#mc2e6af7ece" y="363.802023"/>
      </g>
     </g>
     <g id="text_43">
      <!-- 2800 -->
      <g transform="translate(82.994075 367.601242)scale(0.1 -0.1)">
       <use xlink:href="#DejaVuSans-50"/>
       <use x="63.623047" xlink:href="#DejaVuSans-56"/>
       <use x="127.246094" xlink:href="#DejaVuSans-48"/>
       <use x="190.869141" xlink:href="#DejaVuSans-48"/>
      </g>
     </g>
    </g>
    <g id="ytick_15">
     <g id="line2d_41">
      <g>
       <use style="stroke:#000000;stroke-width:0.8;" x="115.444075" xlink:href="#mc2e6af7ece" y="330.014539"/>
      </g>
     </g>
     <g id="text_44">
      <!-- 3000 -->
      <g transform="translate(82.994075 333.813757)scale(0.1 -0.1)">
       <use xlink:href="#DejaVuSans-51"/>
       <use x="63.623047" xlink:href="#DejaVuSans-48"/>
       <use x="127.246094" xlink:href="#DejaVuSans-48"/>
       <use x="190.869141" xlink:href="#DejaVuSans-48"/>
      </g>
     </g>
    </g>
    <g id="ytick_16">
     <g id="line2d_42">
      <g>
       <use style="stroke:#000000;stroke-width:0.8;" x="115.444075" xlink:href="#mc2e6af7ece" y="296.227055"/>
      </g>
     </g>
     <g id="text_45">
      <!-- 3200 -->
      <g transform="translate(82.994075 300.026273)scale(0.1 -0.1)">
       <use xlink:href="#DejaVuSans-51"/>
       <use x="63.623047" xlink:href="#DejaVuSans-50"/>
       <use x="127.246094" xlink:href="#DejaVuSans-48"/>
       <use x="190.869141" xlink:href="#DejaVuSans-48"/>
      </g>
     </g>
    </g>
    <g id="ytick_17">
     <g id="line2d_43">
      <g>
       <use style="stroke:#000000;stroke-width:0.8;" x="115.444075" xlink:href="#mc2e6af7ece" y="262.43957"/>
      </g>
     </g>
     <g id="text_46">
      <!-- 3400 -->
      <g transform="translate(82.994075 266.238789)scale(0.1 -0.1)">
       <use xlink:href="#DejaVuSans-51"/>
       <use x="63.623047" xlink:href="#DejaVuSans-52"/>
       <use x="127.246094" xlink:href="#DejaVuSans-48"/>
       <use x="190.869141" xlink:href="#DejaVuSans-48"/>
      </g>
     </g>
    </g>
    <g id="text_47">
     <!-- Critical Point ($T_{VL}$) -->
     <g transform="translate(76.914388 400.610787)rotate(-90)scale(0.1 -0.1)">
      <defs>
       <path d="M 16.796875 72.90625 
L 26.703125 72.90625 
L 14.203125 8.203125 
L 49.703125 8.203125 
L 48.09375 0 
L 2.6875 0 
z
" id="DejaVuSans-Oblique-76"/>
      </defs>
      <use transform="translate(0 0.015625)" xlink:href="#DejaVuSans-67"/>
      <use transform="translate(69.824219 0.015625)" xlink:href="#DejaVuSans-114"/>
      <use transform="translate(110.9375 0.015625)" xlink:href="#DejaVuSans-105"/>
      <use transform="translate(138.720703 0.015625)" xlink:href="#DejaVuSans-116"/>
      <use transform="translate(177.929688 0.015625)" xlink:href="#DejaVuSans-105"/>
      <use transform="translate(205.712891 0.015625)" xlink:href="#DejaVuSans-99"/>
      <use transform="translate(260.693359 0.015625)" xlink:href="#DejaVuSans-97"/>
      <use transform="translate(321.972656 0.015625)" xlink:href="#DejaVuSans-108"/>
      <use transform="translate(349.755859 0.015625)" xlink:href="#DejaVuSans-32"/>
      <use transform="translate(381.542969 0.015625)" xlink:href="#DejaVuSans-80"/>
      <use transform="translate(441.845703 0.015625)" xlink:href="#DejaVuSans-111"/>
      <use transform="translate(503.027344 0.015625)" xlink:href="#DejaVuSans-105"/>
      <use transform="translate(530.810547 0.015625)" xlink:href="#DejaVuSans-110"/>
      <use transform="translate(594.189453 0.015625)" xlink:href="#DejaVuSans-116"/>
      <use transform="translate(633.398438 0.015625)" xlink:href="#DejaVuSans-32"/>
      <use transform="translate(665.185547 0.015625)" xlink:href="#DejaVuSans-40"/>
      <use transform="translate(704.199219 0.015625)" xlink:href="#DejaVuSans-Oblique-84"/>
      <use transform="translate(765.283203 -16.390625)scale(0.7)" xlink:href="#DejaVuSans-Oblique-86"/>
      <use transform="translate(813.168945 -16.390625)scale(0.7)" xlink:href="#DejaVuSans-Oblique-76"/>
      <use transform="translate(854.902344 0.015625)" xlink:href="#DejaVuSans-41"/>
     </g>
    </g>
   </g>
   <g id="line2d_44">
    <path clip-path="url(#p3a5fa7e3a8)" d="M 132.306802 268.051503 
L 134.32629 271.100147 
L 136.345778 274.386656 
L 138.365266 274.349659 
L 140.384755 274.682296 
L 142.404243 274.426187 
L 144.423731 274.57671 
L 146.443219 277.419589 
L 148.462708 277.70729 
L 152.501684 277.641235 
L 154.521172 280.880103 
L 158.560149 280.998866 
L 160.579637 284.256318 
L 162.599125 284.440966 
L 166.638102 284.264258 
L 168.65759 284.301086 
L 170.677078 270.907559 
L 172.696566 270.727978 
L 176.735543 277.213655 
L 178.755031 277.480238 
L 180.774519 277.321943 
L 182.794007 280.827226 
L 184.813496 280.581929 
L 186.832984 280.906458 
L 188.852472 284.277435 
L 190.87196 283.868269 
L 192.891449 273.235854 
L 194.910937 279.552424 
L 198.949913 285.929812 
L 200.969401 287.355306 
L 202.98889 289.010217 
L 205.008378 292.254322 
L 207.027866 293.893522 
L 209.047354 296.913447 
L 211.066843 296.99251 
L 215.105819 300.175967 
L 217.125307 294.907315 
L 219.144796 300.083727 
L 223.183772 306.37124 
L 225.20326 308.076494 
L 227.222748 290.681177 
L 229.242237 293.840813 
L 231.261725 298.589475 
L 235.300701 304.755691 
L 239.339678 307.970908 
L 243.378654 314.189833 
L 245.398142 315.823795 
L 247.417631 317.262466 
L 251.456607 320.628038 
L 255.495584 326.730733 
L 257.515072 326.712319 
L 259.53456 329.856075 
L 263.573537 332.95236 
L 265.593025 336.288875 
L 271.651489 340.807951 
L 273.670978 342.552736 
L 275.690466 345.802248 
L 279.729442 348.764058 
L 281.748931 352.071346 
L 283.768419 353.607832 
L 285.787907 353.7369 
L 287.807395 350.572027 
L 289.826883 356.764766 
L 291.846372 359.876762 
L 293.86586 361.442136 
L 295.885348 361.587422 
L 297.904836 363.004807 
L 299.924325 364.760236 
L 303.963301 370.9871 
L 305.982789 370.939629 
L 310.021766 374.175794 
L 312.041254 347.541796 
L 314.060742 360.2491 
L 318.099719 369.648947 
L 320.119207 371.288147 
L 322.138695 374.31314 
L 328.19716 378.987977 
L 330.216648 382.245259 
L 334.255625 385.33901 
L 336.275113 386.996624 
L 340.314089 380.679885 
L 342.333577 385.315021 
L 344.353066 388.627884 
L 346.372554 393.368775 
L 348.392042 393.445134 
L 350.41153 393.176017 
L 352.431019 394.860154 
L 354.450507 398.014385 
L 356.469995 399.690751 
L 358.489483 399.677405 
L 366.567436 405.959849 
L 368.586924 405.970324 
L 370.606413 407.498869 
L 372.625901 399.698522 
L 374.645389 398.154434 
L 376.664877 404.463064 
L 378.684366 407.569992 
L 380.703854 409.322718 
L 382.723342 410.711214 
L 392.820783 418.595862 
L 394.840271 418.593159 
L 396.85976 420.29571 
L 400.898736 413.852437 
L 402.918224 418.767333 
L 404.937712 420.290473 
L 406.957201 423.468693 
L 410.996177 423.362938 
L 417.054642 428.13542 
L 419.07413 428.16718 
L 421.093618 429.603148 
L 427.152083 434.425805 
L 431.191059 434.383571 
L 433.210548 432.712779 
L 435.230036 421.760735 
L 437.249524 427.995709 
L 439.269012 431.152642 
L 445.327477 435.819539 
L 447.346965 435.911947 
L 449.366454 437.545741 
L 451.385942 439.032053 
L 455.424918 438.865649 
L 457.444406 440.54438 
L 459.463895 440.518195 
L 463.502871 443.58272 
L 465.522359 443.770072 
L 467.541848 437.252804 
L 469.561336 432.461907 
L 469.561336 432.461907 
" style="fill:none;stroke:#1f77b4;stroke-linecap:square;stroke-width:1.5;"/>
   </g>
   <g id="patch_13">
    <path d="M 115.444075 452.556 
L 115.444075 259.265574 
" style="fill:none;stroke:#000000;stroke-linecap:square;stroke-linejoin:miter;stroke-width:0.8;"/>
   </g>
   <g id="patch_14">
    <path d="M 486.424062 452.556 
L 486.424062 259.265574 
" style="fill:none;stroke:#000000;stroke-linecap:square;stroke-linejoin:miter;stroke-width:0.8;"/>
   </g>
   <g id="patch_15">
    <path d="M 115.444075 452.556 
L 486.424062 452.556 
" style="fill:none;stroke:#000000;stroke-linecap:square;stroke-linejoin:miter;stroke-width:0.8;"/>
   </g>
   <g id="patch_16">
    <path d="M 115.444075 259.265574 
L 486.424062 259.265574 
" style="fill:none;stroke:#000000;stroke-linecap:square;stroke-linejoin:miter;stroke-width:0.8;"/>
   </g>
  </g>
  <g id="axes_4">
   <g id="patch_17">
    <path d="M 601.868137 452.556 
L 972.848125 452.556 
L 972.848125 259.265574 
L 601.868137 259.265574 
z
" style="fill:#ffffff;"/>
   </g>
   <g id="matplotlib.axis_7">
    <g id="xtick_25">
     <g id="line2d_45">
      <g>
       <use style="stroke:#000000;stroke-width:0.8;" x="616.711376" xlink:href="#m22154f25f8" y="452.556"/>
      </g>
     </g>
     <g id="text_48">
      <!-- 0 -->
      <g transform="translate(613.530126 467.154437)scale(0.1 -0.1)">
       <use xlink:href="#DejaVuSans-48"/>
      </g>
     </g>
    </g>
    <g id="xtick_26">
     <g id="line2d_46">
      <g>
       <use style="stroke:#000000;stroke-width:0.8;" x="667.198582" xlink:href="#m22154f25f8" y="452.556"/>
      </g>
     </g>
     <g id="text_49">
      <!-- 25 -->
      <g transform="translate(660.836082 467.154437)scale(0.1 -0.1)">
       <use xlink:href="#DejaVuSans-50"/>
       <use x="63.623047" xlink:href="#DejaVuSans-53"/>
      </g>
     </g>
    </g>
    <g id="xtick_27">
     <g id="line2d_47">
      <g>
       <use style="stroke:#000000;stroke-width:0.8;" x="717.685787" xlink:href="#m22154f25f8" y="452.556"/>
      </g>
     </g>
     <g id="text_50">
      <!-- 50 -->
      <g transform="translate(711.323287 467.154437)scale(0.1 -0.1)">
       <use xlink:href="#DejaVuSans-53"/>
       <use x="63.623047" xlink:href="#DejaVuSans-48"/>
      </g>
     </g>
    </g>
    <g id="xtick_28">
     <g id="line2d_48">
      <g>
       <use style="stroke:#000000;stroke-width:0.8;" x="768.172993" xlink:href="#m22154f25f8" y="452.556"/>
      </g>
     </g>
     <g id="text_51">
      <!-- 75 -->
      <g transform="translate(761.810493 467.154437)scale(0.1 -0.1)">
       <use xlink:href="#DejaVuSans-55"/>
       <use x="63.623047" xlink:href="#DejaVuSans-53"/>
      </g>
     </g>
    </g>
    <g id="xtick_29">
     <g id="line2d_49">
      <g>
       <use style="stroke:#000000;stroke-width:0.8;" x="818.660199" xlink:href="#m22154f25f8" y="452.556"/>
      </g>
     </g>
     <g id="text_52">
      <!-- 100 -->
      <g transform="translate(809.116449 467.154437)scale(0.1 -0.1)">
       <use xlink:href="#DejaVuSans-49"/>
       <use x="63.623047" xlink:href="#DejaVuSans-48"/>
       <use x="127.246094" xlink:href="#DejaVuSans-48"/>
      </g>
     </g>
    </g>
    <g id="xtick_30">
     <g id="line2d_50">
      <g>
       <use style="stroke:#000000;stroke-width:0.8;" x="869.147404" xlink:href="#m22154f25f8" y="452.556"/>
      </g>
     </g>
     <g id="text_53">
      <!-- 125 -->
      <g transform="translate(859.603654 467.154437)scale(0.1 -0.1)">
       <use xlink:href="#DejaVuSans-49"/>
       <use x="63.623047" xlink:href="#DejaVuSans-50"/>
       <use x="127.246094" xlink:href="#DejaVuSans-53"/>
      </g>
     </g>
    </g>
    <g id="xtick_31">
     <g id="line2d_51">
      <g>
       <use style="stroke:#000000;stroke-width:0.8;" x="919.63461" xlink:href="#m22154f25f8" y="452.556"/>
      </g>
     </g>
     <g id="text_54">
      <!-- 150 -->
      <g transform="translate(910.09086 467.154437)scale(0.1 -0.1)">
       <use xlink:href="#DejaVuSans-49"/>
       <use x="63.623047" xlink:href="#DejaVuSans-53"/>
       <use x="127.246094" xlink:href="#DejaVuSans-48"/>
      </g>
     </g>
    </g>
    <g id="xtick_32">
     <g id="line2d_52">
      <g>
       <use style="stroke:#000000;stroke-width:0.8;" x="970.121816" xlink:href="#m22154f25f8" y="452.556"/>
      </g>
     </g>
     <g id="text_55">
      <!-- 175 -->
      <g transform="translate(960.578066 467.154437)scale(0.1 -0.1)">
       <use xlink:href="#DejaVuSans-49"/>
       <use x="63.623047" xlink:href="#DejaVuSans-55"/>
       <use x="127.246094" xlink:href="#DejaVuSans-53"/>
      </g>
     </g>
    </g>
    <g id="text_56">
     <!-- Cycle -->
     <g transform="translate(773.692506 480.832562)scale(0.1 -0.1)">
      <use xlink:href="#DejaVuSans-67"/>
      <use x="69.824219" xlink:href="#DejaVuSans-121"/>
      <use x="129.003906" xlink:href="#DejaVuSans-99"/>
      <use x="183.984375" xlink:href="#DejaVuSans-108"/>
      <use x="211.767578" xlink:href="#DejaVuSans-101"/>
     </g>
    </g>
   </g>
   <g id="matplotlib.axis_8">
    <g id="ytick_18">
     <g id="line2d_53">
      <g>
       <use style="stroke:#000000;stroke-width:0.8;" x="601.868137" xlink:href="#mc2e6af7ece" y="439.895397"/>
      </g>
     </g>
     <g id="text_57">
      <!-- 1.3 -->
      <g transform="translate(578.965012 443.694616)scale(0.1 -0.1)">
       <defs>
        <path d="M 10.6875 12.40625 
L 21 12.40625 
L 21 0 
L 10.6875 0 
z
" id="DejaVuSans-46"/>
       </defs>
       <use xlink:href="#DejaVuSans-49"/>
       <use x="63.623047" xlink:href="#DejaVuSans-46"/>
       <use x="95.410156" xlink:href="#DejaVuSans-51"/>
      </g>
     </g>
    </g>
    <g id="ytick_19">
     <g id="line2d_54">
      <g>
       <use style="stroke:#000000;stroke-width:0.8;" x="601.868137" xlink:href="#mc2e6af7ece" y="409.015293"/>
      </g>
     </g>
     <g id="text_58">
      <!-- 1.4 -->
      <g transform="translate(578.965012 412.814512)scale(0.1 -0.1)">
       <use xlink:href="#DejaVuSans-49"/>
       <use x="63.623047" xlink:href="#DejaVuSans-46"/>
       <use x="95.410156" xlink:href="#DejaVuSans-52"/>
      </g>
     </g>
    </g>
    <g id="ytick_20">
     <g id="line2d_55">
      <g>
       <use style="stroke:#000000;stroke-width:0.8;" x="601.868137" xlink:href="#mc2e6af7ece" y="378.135189"/>
      </g>
     </g>
     <g id="text_59">
      <!-- 1.5 -->
      <g transform="translate(578.965012 381.934408)scale(0.1 -0.1)">
       <use xlink:href="#DejaVuSans-49"/>
       <use x="63.623047" xlink:href="#DejaVuSans-46"/>
       <use x="95.410156" xlink:href="#DejaVuSans-53"/>
      </g>
     </g>
    </g>
    <g id="ytick_21">
     <g id="line2d_56">
      <g>
       <use style="stroke:#000000;stroke-width:0.8;" x="601.868137" xlink:href="#mc2e6af7ece" y="347.255085"/>
      </g>
     </g>
     <g id="text_60">
      <!-- 1.6 -->
      <g transform="translate(578.965012 351.054304)scale(0.1 -0.1)">
       <use xlink:href="#DejaVuSans-49"/>
       <use x="63.623047" xlink:href="#DejaVuSans-46"/>
       <use x="95.410156" xlink:href="#DejaVuSans-54"/>
      </g>
     </g>
    </g>
    <g id="ytick_22">
     <g id="line2d_57">
      <g>
       <use style="stroke:#000000;stroke-width:0.8;" x="601.868137" xlink:href="#mc2e6af7ece" y="316.374981"/>
      </g>
     </g>
     <g id="text_61">
      <!-- 1.7 -->
      <g transform="translate(578.965012 320.1742)scale(0.1 -0.1)">
       <use xlink:href="#DejaVuSans-49"/>
       <use x="63.623047" xlink:href="#DejaVuSans-46"/>
       <use x="95.410156" xlink:href="#DejaVuSans-55"/>
      </g>
     </g>
    </g>
    <g id="ytick_23">
     <g id="line2d_58">
      <g>
       <use style="stroke:#000000;stroke-width:0.8;" x="601.868137" xlink:href="#mc2e6af7ece" y="285.494877"/>
      </g>
     </g>
     <g id="text_62">
      <!-- 1.8 -->
      <g transform="translate(578.965012 289.294096)scale(0.1 -0.1)">
       <use xlink:href="#DejaVuSans-49"/>
       <use x="63.623047" xlink:href="#DejaVuSans-46"/>
       <use x="95.410156" xlink:href="#DejaVuSans-56"/>
      </g>
     </g>
    </g>
    <g id="text_63">
     <!-- Capacity ($C_{C}$) -->
     <g transform="translate(572.865012 389.360787)rotate(-90)scale(0.1 -0.1)">
      <defs>
       <path d="M 18.109375 8.203125 
L 18.109375 -20.796875 
L 9.078125 -20.796875 
L 9.078125 54.6875 
L 18.109375 54.6875 
L 18.109375 46.390625 
Q 20.953125 51.265625 25.265625 53.625 
Q 29.59375 56 35.59375 56 
Q 45.5625 56 51.78125 48.09375 
Q 58.015625 40.1875 58.015625 27.296875 
Q 58.015625 14.40625 51.78125 6.484375 
Q 45.5625 -1.421875 35.59375 -1.421875 
Q 29.59375 -1.421875 25.265625 0.953125 
Q 20.953125 3.328125 18.109375 8.203125 
z
M 48.6875 27.296875 
Q 48.6875 37.203125 44.609375 42.84375 
Q 40.53125 48.484375 33.40625 48.484375 
Q 26.265625 48.484375 22.1875 42.84375 
Q 18.109375 37.203125 18.109375 27.296875 
Q 18.109375 17.390625 22.1875 11.75 
Q 26.265625 6.109375 33.40625 6.109375 
Q 40.53125 6.109375 44.609375 11.75 
Q 48.6875 17.390625 48.6875 27.296875 
z
" id="DejaVuSans-112"/>
       <path d="M 69.484375 67.28125 
L 67.484375 56.890625 
Q 62.796875 61.625 57.546875 63.921875 
Q 52.296875 66.21875 46.1875 66.21875 
Q 37.84375 66.21875 31.515625 62.203125 
Q 25.203125 58.203125 20.609375 50 
Q 17.671875 44.734375 16.125 38.84375 
Q 14.59375 32.953125 14.59375 27 
Q 14.59375 17.046875 19.75 11.8125 
Q 24.90625 6.59375 34.71875 6.59375 
Q 41.5 6.59375 47.75 8.765625 
Q 54 10.9375 59.90625 15.28125 
L 57.625 3.609375 
Q 51.8125 1.125 45.875 -0.140625 
Q 39.9375 -1.421875 33.984375 -1.421875 
Q 19.96875 -1.421875 12.078125 6.1875 
Q 4.203125 13.8125 4.203125 27.390625 
Q 4.203125 36.078125 7.203125 44.46875 
Q 10.203125 52.875 15.828125 59.8125 
Q 21.78125 67.1875 29.421875 70.703125 
Q 37.0625 74.21875 47.21875 74.21875 
Q 53.46875 74.21875 59.0625 72.484375 
Q 64.65625 70.75 69.484375 67.28125 
z
" id="DejaVuSans-Oblique-67"/>
      </defs>
      <use transform="translate(0 0.015625)" xlink:href="#DejaVuSans-67"/>
      <use transform="translate(69.824219 0.015625)" xlink:href="#DejaVuSans-97"/>
      <use transform="translate(131.103516 0.015625)" xlink:href="#DejaVuSans-112"/>
      <use transform="translate(194.580078 0.015625)" xlink:href="#DejaVuSans-97"/>
      <use transform="translate(255.859375 0.015625)" xlink:href="#DejaVuSans-99"/>
      <use transform="translate(310.839844 0.015625)" xlink:href="#DejaVuSans-105"/>
      <use transform="translate(338.623047 0.015625)" xlink:href="#DejaVuSans-116"/>
      <use transform="translate(377.832031 0.015625)" xlink:href="#DejaVuSans-121"/>
      <use transform="translate(437.011719 0.015625)" xlink:href="#DejaVuSans-32"/>
      <use transform="translate(468.798828 0.015625)" xlink:href="#DejaVuSans-40"/>
      <use transform="translate(507.8125 0.015625)" xlink:href="#DejaVuSans-Oblique-67"/>
      <use transform="translate(577.636719 -16.390625)scale(0.7)" xlink:href="#DejaVuSans-Oblique-67"/>
      <use transform="translate(629.248047 0.015625)" xlink:href="#DejaVuSans-41"/>
     </g>
    </g>
   </g>
   <g id="line2d_59">
    <path clip-path="url(#p3f9934f4cc)" d="M 618.730864 268.051503 
L 620.750352 271.188974 
L 622.769841 274.579009 
L 624.789329 274.605772 
L 626.808817 274.796308 
L 628.828305 274.482519 
L 630.847794 274.641711 
L 632.867282 277.541153 
L 634.88677 277.844685 
L 638.925746 277.892333 
L 640.945235 281.109304 
L 644.984211 281.344439 
L 647.003699 284.692611 
L 649.023188 284.844264 
L 653.062164 284.547378 
L 655.081652 284.637143 
L 657.101141 270.973201 
L 659.120629 270.852362 
L 661.140117 274.323251 
L 663.159605 277.533755 
L 665.179093 277.739758 
L 667.198582 277.595282 
L 669.21807 281.16205 
L 671.237558 280.934134 
L 673.257046 281.181115 
L 675.276535 284.640837 
L 677.296023 284.235883 
L 679.315511 269.498195 
L 681.334999 276.013497 
L 685.373976 282.620568 
L 687.393464 284.071334 
L 689.412952 285.68724 
L 691.43244 289.063618 
L 693.451929 290.768257 
L 695.471417 293.822093 
L 697.490905 293.820846 
L 701.529882 297.132022 
L 703.54937 295.494691 
L 705.568858 297.022926 
L 707.588346 300.400553 
L 709.607834 303.451779 
L 711.627323 305.229934 
L 713.646811 287.463788 
L 715.666299 290.686124 
L 717.685787 295.572844 
L 721.724764 301.901285 
L 725.76374 305.127673 
L 729.802717 311.493905 
L 731.822205 313.122271 
L 733.841693 314.517697 
L 737.88067 318.048726 
L 739.900158 321.036978 
L 741.919646 324.257387 
L 743.939134 324.228024 
L 745.958623 327.579402 
L 747.978111 329.031541 
L 749.997599 330.624896 
L 752.017087 334.083553 
L 756.056064 337.14647 
L 758.075552 338.684963 
L 760.09504 340.422712 
L 762.114528 343.757709 
L 766.153505 346.787491 
L 768.172993 350.229076 
L 770.192481 351.643458 
L 772.21197 351.90468 
L 774.231458 348.636541 
L 776.250946 355.058433 
L 778.270434 358.093385 
L 780.289922 359.679402 
L 782.309411 359.767219 
L 784.328899 361.24706 
L 786.348387 363.042814 
L 790.387364 369.515237 
L 792.406852 369.326558 
L 794.42634 371.141672 
L 796.445828 372.735496 
L 798.465317 345.458203 
L 800.484805 358.418507 
L 804.523781 368.137582 
L 806.543269 369.812128 
L 808.562758 372.898757 
L 814.621222 377.657983 
L 816.640711 380.962446 
L 818.660199 382.499047 
L 822.699175 385.790495 
L 826.738152 379.342036 
L 828.75764 384.063985 
L 830.777128 387.475084 
L 832.796616 392.370538 
L 834.816105 392.294888 
L 836.835593 392.023901 
L 838.855081 393.871022 
L 840.874569 397.073668 
L 842.894058 398.687309 
L 844.913546 398.702608 
L 852.991499 405.18331 
L 855.010987 405.130949 
L 857.030475 406.668908 
L 859.049963 398.703794 
L 861.069452 397.202104 
L 863.08894 403.656138 
L 865.108428 406.859348 
L 867.127916 408.643565 
L 869.147404 410.034082 
L 877.225357 416.662314 
L 879.244846 418.120971 
L 881.264334 418.122282 
L 883.283822 419.905004 
L 887.322799 413.304072 
L 889.342287 418.325644 
L 891.361775 419.890403 
L 893.381263 423.120693 
L 897.42024 423.002769 
L 903.478704 427.854819 
L 905.498193 427.878552 
L 907.517681 429.3941 
L 913.576146 434.284742 
L 915.595634 434.19294 
L 917.615122 434.246487 
L 919.63461 432.523568 
L 921.654098 421.329761 
L 923.673587 427.68828 
L 925.693075 430.931318 
L 929.732051 434.141231 
L 931.75154 435.734262 
L 933.771028 435.818586 
L 935.790516 437.487986 
L 937.810004 438.958829 
L 941.848981 438.842372 
L 943.868469 440.547869 
L 945.887957 440.490301 
L 947.907445 441.91384 
L 949.926934 443.599962 
L 951.946422 443.770072 
L 953.96591 437.111443 
L 955.985398 432.150875 
L 955.985398 432.150875 
" style="fill:none;stroke:#1f77b4;stroke-linecap:square;stroke-width:1.5;"/>
   </g>
   <g id="patch_18">
    <path d="M 601.868137 452.556 
L 601.868137 259.265574 
" style="fill:none;stroke:#000000;stroke-linecap:square;stroke-linejoin:miter;stroke-width:0.8;"/>
   </g>
   <g id="patch_19">
    <path d="M 972.848125 452.556 
L 972.848125 259.265574 
" style="fill:none;stroke:#000000;stroke-linecap:square;stroke-linejoin:miter;stroke-width:0.8;"/>
   </g>
   <g id="patch_20">
    <path d="M 601.868137 452.556 
L 972.848125 452.556 
" style="fill:none;stroke:#000000;stroke-linecap:square;stroke-linejoin:miter;stroke-width:0.8;"/>
   </g>
   <g id="patch_21">
    <path d="M 601.868137 259.265574 
L 972.848125 259.265574 
" style="fill:none;stroke:#000000;stroke-linecap:square;stroke-linejoin:miter;stroke-width:0.8;"/>
   </g>
  </g>
 </g>
 <defs>
  <clipPath id="p0bf10b89ae">
   <rect height="193.290426" width="370.979987" x="115.444075" y="10.204565"/>
  </clipPath>
  <clipPath id="p12b8ebc45f">
   <rect height="193.290426" width="370.979987" x="601.868137" y="10.204565"/>
  </clipPath>
  <clipPath id="p3a5fa7e3a8">
   <rect height="193.290426" width="370.979987" x="115.444075" y="259.265574"/>
  </clipPath>
  <clipPath id="p3f9934f4cc">
   <rect height="193.290426" width="370.979987" x="601.868137" y="259.265574"/>
  </clipPath>
 </defs>
</svg>
