<svg xmlns="http://www.w3.org/2000/svg" xmlns:xlink="http://www.w3.org/1999/xlink" xmlns:lucid="lucid" width="1715" height="1000"><g transform="translate(-25 -100)" lucid:page-tab-id="0_0"><path d="M0 0h1870.4v1323.2H0z" fill="#fff"/><path d="M45 120h1070v960H45zM1140 120h580v960h-580z" stroke="#000" stroke-width="2" fill="#fff"/><path d="M178.67 700h120v60h-120z" fill="none"/><use xlink:href="#a" transform="matrix(1,0,0,1,178.66551264408145,700) translate(19.574999999999996 14.4)"/><use xlink:href="#b" transform="matrix(1,0,0,1,178.66551264408145,700) translate(10.099999999999994 36)"/><use xlink:href="#c" transform="matrix(1,0,0,1,178.66551264408145,700) translate(65 36)"/><use xlink:href="#d" transform="matrix(1,0,0,1,178.66551264408145,700) translate(22.15 57.6)"/><use xlink:href="#e" transform="matrix(1,0,0,1,178.66551264408145,700) translate(43.099999999999994 57.6)"/><use xlink:href="#f" transform="matrix(1,0,0,1,178.66551264408145,700) translate(17.525 79.20000000000002)"/><use xlink:href="#g" transform="matrix(1,0,0,1,178.66551264408145,700) translate(72.475 79.20000000000002)"/><use xlink:href="#h" transform="matrix(1,0,0,1,178.66551264408145,700) translate(25.049999999999997 100.80000000000001)"/><use xlink:href="#i" transform="matrix(1,0,0,1,178.66551264408145,700) translate(20.049999999999997 122.4)"/><use xlink:href="#j" transform="matrix(1,0,0,1,178.66551264408145,700) translate(74.94999999999999 122.4)"/><use xlink:href="#k" transform="matrix(1,0,0,1,178.66551264408145,700) translate(36.55 144)"/><path d="M280 463.6h150v60H280z" fill="none"/><use xlink:href="#l" transform="matrix(1,0,0,1,280,463.6) translate(7.625 14.4)"/><use xlink:href="#m" transform="matrix(1,0,0,1,280,463.6) translate(80.47500000000001 14.4)"/><use xlink:href="#n" transform="matrix(1,0,0,1,280,463.6) translate(2.5749999999999886 36)"/><use xlink:href="#o" transform="matrix(1,0,0,1,280,463.6) translate(31.57499999999999 36)"/><use xlink:href="#p" transform="matrix(1,0,0,1,280,463.6) translate(55.57499999999999 36)"/><use xlink:href="#q" transform="matrix(1,0,0,1,280,463.6) translate(46.55 57.6)"/><use xlink:href="#r" transform="matrix(1,0,0,1,280,463.6) translate(79.55 57.6)"/><use xlink:href="#s" transform="matrix(1,0,0,1,280,463.6) translate(0.04999999999999716 79.20000000000002)"/><use xlink:href="#t" transform="matrix(1,0,0,1,280,463.6) translate(100 79.20000000000002)"/><use xlink:href="#u" transform="matrix(1,0,0,1,280,463.6) translate(7.174999999999997 100.80000000000001)"/><use xlink:href="#v" transform="matrix(1,0,0,1,280,463.6) translate(68.925 100.80000000000001)"/><use xlink:href="#w" transform="matrix(1,0,0,1,280,463.6) translate(127.825 100.80000000000001)"/><use xlink:href="#x" transform="matrix(1,0,0,1,280,463.6) translate(7.574999999999989 122.4)"/><use xlink:href="#y" transform="matrix(1,0,0,1,280,463.6) translate(58.52499999999999 122.4)"/><use xlink:href="#z" transform="matrix(1,0,0,1,280,463.6) translate(117.425 122.4)"/><use xlink:href="#A" transform="matrix(1,0,0,1,280,463.6) translate(2.9000000000000057 144)"/><use xlink:href="#B" transform="matrix(1,0,0,1,280,463.6) translate(43.150000000000006 144)"/><use xlink:href="#C" transform="matrix(1,0,0,1,280,463.6) translate(96.10000000000001 144)"/><use xlink:href="#D" transform="matrix(1,0,0,1,280,463.6) translate(113.10000000000001 144)"/><use xlink:href="#E" transform="matrix(1,0,0,1,280,463.6) translate(137.1 144)"/><use xlink:href="#F" transform="matrix(1,0,0,1,280,463.6) translate(58.525 165.6)"/><use xlink:href="#G" transform="matrix(1,0,0,1,280,463.6) translate(11.599999999999994 187.2)"/><path d="M740 460h240v60H740z" fill="none"/><use xlink:href="#H" transform="matrix(1,0,0,1,740,460) translate(24.22499999999998 14.4)"/><use xlink:href="#I" transform="matrix(1,0,0,1,740,460) translate(87.07499999999999 14.4)"/><use xlink:href="#J" transform="matrix(1,0,0,1,740,460) translate(176.875 14.4)"/><use xlink:href="#K" transform="matrix(1,0,0,1,740,460) translate(5.125 36)"/><use xlink:href="#L" transform="matrix(1,0,0,1,740,460) translate(98.025 36)"/><use xlink:href="#M" transform="matrix(1,0,0,1,740,460) translate(123.97500000000001 36)"/><use xlink:href="#N" transform="matrix(1,0,0,1,740,460) translate(177.875 36)"/><use xlink:href="#g" transform="matrix(1,0,0,1,740,460) translate(204.875 36)"/><use xlink:href="#O" transform="matrix(1,0,0,1,740,460) translate(14.174999999999983 57.6)"/><use xlink:href="#P" transform="matrix(1,0,0,1,740,460) translate(87.07499999999999 57.6)"/><use xlink:href="#Q" transform="matrix(1,0,0,1,740,460) translate(142.975 57.6)"/><use xlink:href="#R" transform="matrix(1,0,0,1,740,460) translate(37.05 79.20000000000002)"/><use xlink:href="#S" transform="matrix(1,0,0,1,740,460) translate(81.05 79.20000000000002)"/><use xlink:href="#T" transform="matrix(1,0,0,1,740,460) translate(111.05 79.20000000000002)"/><use xlink:href="#U" transform="matrix(1,0,0,1,740,460) translate(150.05 79.20000000000002)"/><use xlink:href="#V" transform="matrix(1,0,0,1,740,460) translate(120 100.80000000000001)"/><use xlink:href="#W" transform="matrix(1,0,0,1,740,460) translate(14.175000000000011 122.4)"/><use xlink:href="#X" transform="matrix(1,0,0,1,740,460) translate(68.07500000000002 122.4)"/><use xlink:href="#Y" transform="matrix(1,0,0,1,740,460) translate(95.07500000000002 122.4)"/><use xlink:href="#Z" transform="matrix(1,0,0,1,740,460) translate(180.925 122.4)"/><use xlink:href="#aa" transform="matrix(1,0,0,1,740,460) translate(219.875 122.4)"/><use xlink:href="#ab" transform="matrix(1,0,0,1,740,460) translate(31.599999999999994 144)"/><use xlink:href="#ac" transform="matrix(1,0,0,1,740,460) translate(81.6 144)"/><use xlink:href="#ad" transform="matrix(1,0,0,1,740,460) translate(131.55 144)"/><use xlink:href="#ae" transform="matrix(1,0,0,1,740,460) translate(187.45000000000002 144)"/><use xlink:href="#O" transform="matrix(1,0,0,1,740,460) translate(14.174999999999983 165.6)"/><use xlink:href="#P" transform="matrix(1,0,0,1,740,460) translate(87.07499999999999 165.6)"/><use xlink:href="#af" transform="matrix(1,0,0,1,740,460) translate(142.975 165.6)"/><path d="M460 140h240v60H460z" fill="none"/><use xlink:href="#ag" transform="matrix(1,0,0,1,460,140) translate(22.69999999999999 33.6)"/><use xlink:href="#ah" transform="matrix(1,0,0,1,460,140) translate(107.6 33.6)"/><use xlink:href="#ai" transform="matrix(1,0,0,1,460,140) translate(167.35 33.6)"/><path d="M178.67 140h240v60h-240z" fill="none"/><use xlink:href="#aj" transform="matrix(1,0,0,1,178.66551264408145,140) translate(62.574999999999996 33.6)"/><path d="M80 200h200v100H80z" stroke="#000" stroke-width="2" fill="#fff"/><use xlink:href="#ak" transform="matrix(1,0,0,1,92,212) translate(14.599999999999994 19.15)"/><use xlink:href="#al" transform="matrix(1,0,0,1,92,212) translate(67.55 19.15)"/><use xlink:href="#am" transform="matrix(1,0,0,1,92,212) translate(134.5 19.15)"/><use xlink:href="#an" transform="matrix(1,0,0,1,92,212) translate(28.125 40.75)"/><use xlink:href="#ao" transform="matrix(1,0,0,1,92,212) translate(76.975 40.75)"/><use xlink:href="#ap" transform="matrix(1,0,0,1,92,212) translate(38.175 62.35)"/><use xlink:href="#aq" transform="matrix(1,0,0,1,92,212) translate(103.025 62.35)"/><path d="M340 200h200v100H340z" stroke="#000" stroke-width="2" fill="#fff"/><use xlink:href="#ar" transform="matrix(1,0,0,1,352,212) translate(28.125 31.025)"/><use xlink:href="#ao" transform="matrix(1,0,0,1,352,212) translate(76.975 31.025)"/><use xlink:href="#as" transform="matrix(1,0,0,1,352,212) translate(25.125 52.625)"/><use xlink:href="#at" transform="matrix(1,0,0,1,352,212) translate(92.975 52.625)"/><path d="M70 377.4h200v60H70z" stroke="#000" stroke-width="2" fill="#fff"/><use xlink:href="#au" transform="matrix(1,0,0,1,82,389.4) translate(50.05 21.15)"/><use xlink:href="#av" transform="matrix(1,0,0,1,82,389.4) translate(103.95 21.15)"/><path d="M880 377.4h200v60H880z" stroke="#000" stroke-width="2" fill="#fff"/><use xlink:href="#au" transform="matrix(1,0,0,1,892,389.4) translate(50.05 21.15)"/><use xlink:href="#aw" transform="matrix(1,0,0,1,892,389.4) translate(103.95 21.15)"/><path d="M340 377.4h200v60H340z" stroke="#000" stroke-width="2" fill="#fff"/><use xlink:href="#au" transform="matrix(1,0,0,1,352,389.4) translate(50.05 21.15)"/><use xlink:href="#ax" transform="matrix(1,0,0,1,352,389.4) translate(103.95 21.15)"/><path d="M460 960h200v56.4H460z" stroke="#000" stroke-width="2" fill="#fff"/><use xlink:href="#ay" transform="matrix(1,0,0,1,472,972) translate(20.099999999999994 20.5875)"/><use xlink:href="#az" transform="matrix(1,0,0,1,472,972) translate(90 20.5875)"/><use xlink:href="#aA" transform="matrix(1,0,0,1,472,972) translate(120 20.5875)"/><path d="M340 736.4h200v95.4H340z" stroke="#000" stroke-width="2" fill="#fff"/><use xlink:href="#aB" transform="matrix(1,0,0,1,352,748.4000000000001) translate(4.099999999999994 18.9)"/><use xlink:href="#aC" transform="matrix(1,0,0,1,352,748.4000000000001) translate(63 18.9)"/><use xlink:href="#aD" transform="matrix(1,0,0,1,352,748.4000000000001) translate(78 18.9)"/><use xlink:href="#aE" transform="matrix(1,0,0,1,352,748.4000000000001) translate(115.95 18.9)"/><use xlink:href="#n" transform="matrix(1,0,0,1,352,748.4000000000001) translate(24.599999999999994 40.5)"/><use xlink:href="#aF" transform="matrix(1,0,0,1,352,748.4000000000001) translate(53.599999999999994 40.5)"/><use xlink:href="#aG" transform="matrix(1,0,0,1,352,748.4000000000001) translate(94.5 40.5)"/><use xlink:href="#aH" transform="matrix(1,0,0,1,352,748.4000000000001) translate(127.5 40.5)"/><use xlink:href="#aI" transform="matrix(1,0,0,1,352,748.4000000000001) translate(13.049999999999997 62.1)"/><use xlink:href="#aJ" transform="matrix(1,0,0,1,352,748.4000000000001) translate(113 62.1)"/><path d="M440 439.4v277.5" stroke="#000" stroke-width="2" fill="none"/><path d="M441 439.43h-2v-1.03h2z"/><path d="M440 732.16l-4.64-14.26h9.28z" stroke="#000" stroke-width="2"/><path d="M440 439.4v277.5" stroke="#000" stroke-width="2" fill="none"/><path d="M441 439.43h-2v-1.03h2z"/><path d="M440 732.16l-4.64-14.26h9.28z" stroke="#000" stroke-width="2"/><path d="M880 800h200v95.4H880z" stroke="#000" stroke-width="2" fill="#fff"/><use xlink:href="#aK" transform="matrix(1,0,0,1,892,812) translate(10.099999999999994 18.9)"/><use xlink:href="#aL" transform="matrix(1,0,0,1,892,812) translate(49.05 18.9)"/><use xlink:href="#aM" transform="matrix(1,0,0,1,892,812) translate(60 18.9)"/><use xlink:href="#aN" transform="matrix(1,0,0,1,892,812) translate(110 18.9)"/><use xlink:href="#aO" transform="matrix(1,0,0,1,892,812) translate(159.95000000000002 18.9)"/><use xlink:href="#aP" transform="matrix(1,0,0,1,892,812) translate(47.074999999999996 40.5)"/><use xlink:href="#aQ" transform="matrix(1,0,0,1,892,812) translate(40.1 62.1)"/><path d="M980 439.4v191.3" stroke="#000" stroke-width="2" fill="none"/><path d="M981 439.43h-2v-1.03h2z"/><path d="M980 645.96l-4.64-14.26h9.28z" stroke="#000" stroke-width="2"/><path d="M980 747.6v32.9" stroke="#000" stroke-width="2" fill="none"/><path d="M981 747.63h-2v-1.03h2z"/><path d="M980 795.76l-4.64-14.26h9.28z" stroke="#000" stroke-width="2"/><path d="M1180 402h200v371.8h-200z" stroke="#000" stroke-width="2" fill="#fff"/><g><use xlink:href="#aR" transform="matrix(1,0,0,1,1192,414.0000000000001) translate(45.599999999999994 155.775)"/><use xlink:href="#aS" transform="matrix(1,0,0,1,1192,414.0000000000001) translate(31.074999999999996 177.375)"/><use xlink:href="#aT" transform="matrix(1,0,0,1,1192,414.0000000000001) translate(123.975 177.375)"/><use xlink:href="#aU" transform="matrix(1,0,0,1,1192,414.0000000000001) translate(59.05 198.975)"/></g><path d="M1480 260h200v60h-200z" stroke="#000" stroke-width="2" fill="#fff"/><g><use xlink:href="#aV" transform="matrix(1,0,0,1,1492,272) translate(15.125 21.15)"/><use xlink:href="#aW" transform="matrix(1,0,0,1,1492,272) translate(70.025 21.15)"/></g><path d="M1480 764.6h200v67.2h-200z" stroke="#000" stroke-width="2" fill="#fff"/><g><use xlink:href="#aX" transform="matrix(1,0,0,1,1492,776.6) translate(32.949999999999996 14.4)"/><use xlink:href="#aY" transform="matrix(1,0,0,1,1492,776.6) translate(106.80000000000001 14.4)"/><use xlink:href="#aZ" transform="matrix(1,0,0,1,1492,776.6) translate(46.574999999999996 36)"/></g><path d="M1480 664.1h200v60h-200z" stroke="#000" stroke-width="2" fill="#fff"/><g><use xlink:href="#ba" transform="matrix(1,0,0,1,1492,676.0999999999999) translate(25.599999999999994 21.15)"/><use xlink:href="#aZ" transform="matrix(1,0,0,1,1492,676.0999999999999) translate(67.55 21.15)"/></g><path d="M1480 556.4h200v67.2h-200z" stroke="#000" stroke-width="2" fill="#fff"/><g><use xlink:href="#bb" transform="matrix(1,0,0,1,1492,568.4) translate(37.55 14.4)"/><use xlink:href="#bc" transform="matrix(1,0,0,1,1492,568.4) translate(88.45 14.4)"/><use xlink:href="#bd" transform="matrix(1,0,0,1,1492,568.4) translate(46.574999999999996 36)"/></g><path d="M1480 356.4h200v67.2h-200z" stroke="#000" stroke-width="2" fill="#fff"/><g><use xlink:href="#ba" transform="matrix(1,0,0,1,1492,368.4) translate(25.599999999999994 14.4)"/><use xlink:href="#bd" transform="matrix(1,0,0,1,1492,368.4) translate(67.55 14.4)"/><use xlink:href="#be" transform="matrix(1,0,0,1,1492,368.4) translate(63.05 36)"/></g><path d="M1480 456.4h200v67.2h-200z" stroke="#000" stroke-width="2" fill="#fff"/><g><use xlink:href="#bf" transform="matrix(1,0,0,1,1492,468.4) translate(25.124999999999993 25.4)"/><use xlink:href="#aZ" transform="matrix(1,0,0,1,1492,468.4) translate(68.025 25.4)"/></g><path d="M1480 874.4h200v67.2h-200z" stroke="#000" stroke-width="2" fill="#fff"/><g><use xlink:href="#bg" transform="matrix(1,0,0,1,1492,886.4) translate(26.099999999999994 14.4)"/><use xlink:href="#bh" transform="matrix(1,0,0,1,1492,886.4) translate(99 14.4)"/><use xlink:href="#aZ" transform="matrix(1,0,0,1,1492,886.4) translate(46.574999999999996 36)"/></g><path d="M282 250h38.5" stroke="#000" stroke-width="2" fill="none"/><path d="M282.03 251H281v-2h1.03z"/><path d="M335.76 250l-14.26 4.64v-9.28z" stroke="#000" stroke-width="2"/><path d="M780 200h300v100H780z" stroke="#000" stroke-width="2" fill="#fff"/><g><use xlink:href="#bi" transform="matrix(1,0,0,1,792,212) translate(0 16.493055555555557)"/><use xlink:href="#bj" transform="matrix(1,0,0,1,792,212) translate(0 40.45496961805556)"/><use xlink:href="#bk" transform="matrix(1,0,0,1,792,212) translate(0 67.60381825086806)"/></g><path d="M580 200h200v100H580z" stroke="#000" stroke-width="2" fill="#fff"/><g><use xlink:href="#bl" transform="matrix(1,0,0,1,592,212) translate(9.724999999999994 31.025)"/><use xlink:href="#bm" transform="matrix(1,0,0,1,592,212) translate(69.475 31.025)"/><use xlink:href="#bn" transform="matrix(1,0,0,1,592,212) translate(124.425 31.025)"/><use xlink:href="#bo" transform="matrix(1,0,0,1,592,212) translate(18.125 52.625)"/><use xlink:href="#bp" transform="matrix(1,0,0,1,592,212) translate(103.97500000000001 52.625)"/></g><path d="M542 250h18.5" stroke="#000" stroke-width="2" fill="none"/><path d="M542.03 251H541v-2h1.03z"/><path d="M575.76 250l-14.26 4.64v-9.28z" stroke="#000" stroke-width="2"/><path d="M1382 587.9h48V908h30.5" stroke="#000" stroke-width="2" fill="none"/><path d="M1382.03 588.9H1381v-2h1.03z"/><path d="M1475.76 908l-14.26 4.64v-9.28z" stroke="#000" stroke-width="2"/><path d="M1382 587.9h48v210.3h30.5" stroke="#000" stroke-width="2" fill="none"/><path d="M1382.03 588.9H1381v-2h1.03z"/><path d="M1475.76 798.2l-14.26 4.64v-9.28z" stroke="#000" stroke-width="2"/><path d="M170 439.4v548.8h270.5" stroke="#000" stroke-width="2" fill="none"/><path d="M171 439.43h-2v-1.03h2z"/><path d="M455.76 988.2l-14.26 4.64v-9.28z" stroke="#000" stroke-width="2"/><path d="M440 833.8V900h120v40.5" stroke="#000" stroke-width="2" fill="none"/><path d="M441 833.83h-2v-1.03h2z"/><path d="M560 955.76l-4.64-14.26h9.28z" stroke="#000" stroke-width="2"/><path d="M980 897.4v90.8H679.5" stroke="#000" stroke-width="2" fill="none"/><path d="M981 897.43h-2v-1.03h2z"/><path d="M664.24 988.2l14.26-4.64v9.28z" stroke="#000" stroke-width="2"/><path d="M680 302v36.7H442v19.2" stroke="#000" stroke-width="2" fill="none"/><path d="M681 302.03h-2V301h2z"/><path d="M442 373.16l-4.64-14.26h9.28z" stroke="#000" stroke-width="2"/><path d="M680 302v36.7h300v19.2" stroke="#000" stroke-width="2" fill="none"/><path d="M681 302.03h-2V301h2z"/><path d="M980 373.16l-4.64-14.26h9.28z" stroke="#000" stroke-width="2"/><path d="M1382 587.9h48v106.2h30.5" stroke="#000" stroke-width="2" fill="none"/><path d="M1382.03 588.9H1381v-2h1.03z"/><path d="M1475.76 694.1l-14.26 4.64v-9.28z" stroke="#000" stroke-width="2"/><path d="M680 302v36.7H170v19.2" stroke="#000" stroke-width="2" fill="none"/><path d="M681 302.03h-2V301h2z"/><path d="M170 373.16l-4.64-14.26h9.28z" stroke="#000" stroke-width="2"/><path d="M1382 587.9h78.5" stroke="#000" stroke-width="2" fill="none"/><path d="M1382.03 588.9H1381v-2h1.03z"/><path d="M1475.76 587.9l-14.26 4.64v-9.28z" stroke="#000" stroke-width="2"/><path d="M1382 587.9h48V490h30.5" stroke="#000" stroke-width="2" fill="none"/><path d="M1382.03 588.9H1381v-2h1.03z"/><path d="M1475.76 490l-14.26 4.64v-9.28z" stroke="#000" stroke-width="2"/><path d="M1382 587.9h48V390h30.5" stroke="#000" stroke-width="2" fill="none"/><path d="M1382.03 588.9H1381v-2h1.03z"/><path d="M1475.76 390l-14.26 4.64v-9.28z" stroke="#000" stroke-width="2"/><path d="M1382 587.9h48V290h30.5" stroke="#000" stroke-width="2" fill="none"/><path d="M1382.03 588.9H1381v-2h1.03z"/><path d="M1475.76 290l-14.26 4.64v-9.28z" stroke="#000" stroke-width="2"/><path d="M880 650.2h200v95.4H880z" stroke="#000" stroke-width="2" fill="#fff"/><g><use xlink:href="#aB" transform="matrix(1,0,0,1,892,662.2) translate(4.099999999999994 18.9)"/><use xlink:href="#aC" transform="matrix(1,0,0,1,892,662.2) translate(63 18.9)"/><use xlink:href="#aD" transform="matrix(1,0,0,1,892,662.2) translate(78 18.9)"/><use xlink:href="#aE" transform="matrix(1,0,0,1,892,662.2) translate(115.95 18.9)"/><use xlink:href="#n" transform="matrix(1,0,0,1,892,662.2) translate(24.599999999999994 40.5)"/><use xlink:href="#aF" transform="matrix(1,0,0,1,892,662.2) translate(53.599999999999994 40.5)"/><use xlink:href="#aG" transform="matrix(1,0,0,1,892,662.2) translate(94.5 40.5)"/><use xlink:href="#aH" transform="matrix(1,0,0,1,892,662.2) translate(127.5 40.5)"/><use xlink:href="#aI" transform="matrix(1,0,0,1,892,662.2) translate(13.049999999999997 62.1)"/><use xlink:href="#aJ" transform="matrix(1,0,0,1,892,662.2) translate(113 62.1)"/></g><path d="M610 377.4h200v60H610z" stroke="#000" stroke-width="2" fill="#fff"/><g><use xlink:href="#au" transform="matrix(1,0,0,1,622,389.4) translate(50.05 21.15)"/><use xlink:href="#bq" transform="matrix(1,0,0,1,622,389.4) translate(103.95 21.15)"/></g><path d="M610 806.45h200V860H610z" stroke="#000" stroke-width="2" fill="#fff"/><g><use xlink:href="#br" transform="matrix(1,0,0,1,622,818.4499999999998) translate(9.599999999999994 18.15)"/><use xlink:href="#bs" transform="matrix(1,0,0,1,622,818.4499999999998) translate(60.5 18.15)"/><use xlink:href="#bt" transform="matrix(1,0,0,1,622,818.4499999999998) translate(103.5 18.15)"/><use xlink:href="#bu" transform="matrix(1,0,0,1,622,818.4499999999998) translate(129.45 18.15)"/></g><path d="M710 766.6v20.35" stroke="#000" stroke-width="2" fill="none"/><path d="M711 766.63h-2v-1.03h2z"/><path d="M710 802.2l-4.64-14.25h9.28z" stroke="#000" stroke-width="2"/><path d="M710 439.4v210.3" stroke="#000" stroke-width="2" fill="none"/><path d="M711 439.43h-2v-1.03h2z"/><path d="M710 664.96l-4.64-14.26h9.28z" stroke="#000" stroke-width="2"/><path d="M710 862v38H560v40.5" stroke="#000" stroke-width="2" fill="none"/><path d="M711 862.03h-2V861h2z"/><path d="M560 955.76l-4.64-14.26h9.28z" stroke="#000" stroke-width="2"/><path d="M540 496.4h150v60H540z" fill="none"/><g><use xlink:href="#br" transform="matrix(1,0,0,1,540,496.4) translate(19.624999999999993 14.4)"/><use xlink:href="#bv" transform="matrix(1,0,0,1,540,496.4) translate(70.525 14.4)"/><use xlink:href="#bw" transform="matrix(1,0,0,1,540,496.4) translate(6.174999999999983 36)"/><use xlink:href="#bx" transform="matrix(1,0,0,1,540,496.4) translate(67.02499999999999 36)"/><use xlink:href="#by" transform="matrix(1,0,0,1,540,496.4) translate(37.074999999999996 57.6)"/><use xlink:href="#aT" transform="matrix(1,0,0,1,540,496.4) translate(91.975 57.6)"/><use xlink:href="#bz" transform="matrix(1,0,0,1,540,496.4) translate(9.625 79.20000000000002)"/><use xlink:href="#bA" transform="matrix(1,0,0,1,540,496.4) translate(95.42500000000001 79.20000000000002)"/><use xlink:href="#bB" transform="matrix(1,0,0,1,540,496.4) translate(19.574999999999996 100.80000000000001)"/><use xlink:href="#bC" transform="matrix(1,0,0,1,540,496.4) translate(115.42500000000001 100.80000000000001)"/><use xlink:href="#bD" transform="matrix(1,0,0,1,540,496.4) translate(4.099999999999994 122.4)"/><use xlink:href="#bE" transform="matrix(1,0,0,1,540,496.4) translate(76 122.4)"/><use xlink:href="#bF" transform="matrix(1,0,0,1,540,496.4) translate(14.125 144)"/><use xlink:href="#bG" transform="matrix(1,0,0,1,540,496.4) translate(87.025 144)"/></g><path d="M610 669.2h200v95.4H610z" stroke="#000" stroke-width="2" fill="#fff"/><g><use xlink:href="#aB" transform="matrix(1,0,0,1,622,681.2) translate(4.099999999999994 18.9)"/><use xlink:href="#aC" transform="matrix(1,0,0,1,622,681.2) translate(63 18.9)"/><use xlink:href="#aD" transform="matrix(1,0,0,1,622,681.2) translate(78 18.9)"/><use xlink:href="#aE" transform="matrix(1,0,0,1,622,681.2) translate(115.95 18.9)"/><use xlink:href="#n" transform="matrix(1,0,0,1,622,681.2) translate(24.599999999999994 40.5)"/><use xlink:href="#aF" transform="matrix(1,0,0,1,622,681.2) translate(53.599999999999994 40.5)"/><use xlink:href="#aG" transform="matrix(1,0,0,1,622,681.2) translate(94.5 40.5)"/><use xlink:href="#aH" transform="matrix(1,0,0,1,622,681.2) translate(127.5 40.5)"/><use xlink:href="#aI" transform="matrix(1,0,0,1,622,681.2) translate(13.049999999999997 62.1)"/><use xlink:href="#aJ" transform="matrix(1,0,0,1,622,681.2) translate(113 62.1)"/></g><path d="M680 302v36.7h30v19.2" stroke="#000" stroke-width="2" fill="none"/><path d="M681 302.03h-2V301h2z"/><path d="M710 373.16l-4.64-14.26h9.28z" stroke="#000" stroke-width="2"/><defs><path d="M212-179c-10-28-35-45-73-45-59 0-87 40-87 99 0 60 29 101 89 101 43 0 62-24 78-52l27 14C228-24 195 4 139 4 59 4 22-46 18-125c-6-104 99-153 187-111 19 9 31 26 39 46" id="bH"/><path d="M100-194c62-1 85 37 85 99 1 63-27 99-86 99S16-35 15-95c0-66 28-99 85-99zM99-20c44 1 53-31 53-75 0-43-8-75-51-75s-53 32-53 75 10 74 51 75" id="bI"/><path d="M117-194c89-4 53 116 60 194h-32v-121c0-31-8-49-39-48C34-167 62-67 57 0H25l-1-190h30c1 10-1 24 2 32 11-22 29-35 61-36" id="bJ"/><path d="M135-143c-3-34-86-38-87 0 15 53 115 12 119 90S17 21 10-45l28-5c4 36 97 45 98 0-10-56-113-15-118-90-4-57 82-63 122-42 12 7 21 19 24 35" id="bK"/><path d="M24-231v-30h32v30H24zM24 0v-190h32V0H24" id="bL"/><path d="M85-194c31 0 48 13 60 33l-1-100h32l1 261h-30c-2-10 0-23-3-31C134-8 116 4 85 4 32 4 16-35 15-94c0-66 23-100 70-100zm9 24c-40 0-46 34-46 75 0 40 6 74 45 74 42 0 51-32 51-76 0-42-9-74-50-73" id="bM"/><path d="M100-194c63 0 86 42 84 106H49c0 40 14 67 53 68 26 1 43-12 49-29l28 8c-11 28-37 45-77 45C44 4 14-33 15-96c1-61 26-98 85-98zm52 81c6-60-76-77-97-28-3 7-6 17-6 28h103" id="bN"/><path d="M114-163C36-179 61-72 57 0H25l-1-190h30c1 12-1 29 2 39 6-27 23-49 58-41v29" id="bO"/><g id="a"><use transform="matrix(0.05,0,0,0.05,0,0)" xlink:href="#bH"/><use transform="matrix(0.05,0,0,0.05,12.950000000000001,0)" xlink:href="#bI"/><use transform="matrix(0.05,0,0,0.05,22.950000000000003,0)" xlink:href="#bJ"/><use transform="matrix(0.05,0,0,0.05,32.95,0)" xlink:href="#bK"/><use transform="matrix(0.05,0,0,0.05,41.95,0)" xlink:href="#bL"/><use transform="matrix(0.05,0,0,0.05,45.900000000000006,0)" xlink:href="#bM"/><use transform="matrix(0.05,0,0,0.05,55.900000000000006,0)" xlink:href="#bN"/><use transform="matrix(0.05,0,0,0.05,65.9,0)" xlink:href="#bO"/><use transform="matrix(0.05,0,0,0.05,71.85000000000001,0)" xlink:href="#bK"/></g><path d="M185-189c-5-48-123-54-124 2 14 75 158 14 163 119 3 78-121 87-175 55-17-10-28-26-33-46l33-7c5 56 141 63 141-1 0-78-155-14-162-118-5-82 145-84 179-34 5 7 8 16 11 25" id="bP"/><path d="M177-190C167-65 218 103 67 71c-23-6-38-20-44-43l32-5c15 47 100 32 89-28v-30C133-14 115 1 83 1 29 1 15-40 15-95c0-56 16-97 71-98 29-1 48 16 59 35 1-10 0-23 2-32h30zM94-22c36 0 50-32 50-73 0-42-14-75-50-75-39 0-46 34-46 75s6 73 46 73" id="bQ"/><path d="M24 0v-261h32V0H24" id="bR"/><g id="b"><use transform="matrix(0.05,0,0,0.05,0,0)" xlink:href="#bP"/><use transform="matrix(0.05,0,0,0.05,12,0)" xlink:href="#bL"/><use transform="matrix(0.05,0,0,0.05,15.949999999999998,0)" xlink:href="#bJ"/><use transform="matrix(0.05,0,0,0.05,25.950000000000003,0)" xlink:href="#bQ"/><use transform="matrix(0.05,0,0,0.05,35.95,0)" xlink:href="#bR"/><use transform="matrix(0.05,0,0,0.05,39.900000000000006,0)" xlink:href="#bN"/></g><path d="M179-190L93 31C79 59 56 82 12 73V49c39 6 53-20 64-50L1-190h34L92-34l54-156h33" id="bS"/><path d="M96-169c-40 0-48 33-48 73s9 75 48 75c24 0 41-14 43-38l32 2c-6 37-31 61-74 61-59 0-76-41-82-99-10-93 101-131 147-64 4 7 5 14 7 22l-32 3c-4-21-16-35-41-35" id="bT"/><g id="c"><use transform="matrix(0.05,0,0,0.05,0,0)" xlink:href="#bH"/><use transform="matrix(0.05,0,0,0.05,12.950000000000001,0)" xlink:href="#bS"/><use transform="matrix(0.05,0,0,0.05,21.950000000000003,0)" xlink:href="#bT"/><use transform="matrix(0.05,0,0,0.05,30.950000000000003,0)" xlink:href="#bR"/><use transform="matrix(0.05,0,0,0.05,34.900000000000006,0)" xlink:href="#bN"/></g><path d="M87 75C49 33 22-17 22-94c0-76 28-126 65-167h31c-38 41-64 92-64 168S80 34 118 75H87" id="bU"/><path d="M126-127c33 6 58 20 58 59 0 88-139 92-164 29-3-8-5-16-6-25l32-3c6 27 21 44 54 44 32 0 52-15 52-46 0-38-36-46-79-43v-28c39 1 72-4 72-42 0-27-17-43-46-43-28 0-47 15-49 41l-32-3c6-42 35-63 81-64 48-1 79 21 79 65 0 36-21 52-52 59" id="bV"/><g id="d"><use transform="matrix(0.05,0,0,0.05,0,0)" xlink:href="#bU"/><use transform="matrix(0.05,0,0,0.05,5.95,0)" xlink:href="#bV"/></g><path d="M59-47c-2 24 18 29 38 22v24C64 9 27 4 27-40v-127H5v-23h24l9-43h21v43h35v23H59v120" id="bW"/><path d="M141-36C126-15 110 5 73 4 37 3 15-17 15-53c-1-64 63-63 125-63 3-35-9-54-41-54-24 1-41 7-42 31l-33-3c5-37 33-52 76-52 45 0 72 20 72 64v82c-1 20 7 32 28 27v20c-31 9-61-2-59-35zM48-53c0 20 12 33 32 33 41-3 63-29 60-74-43 2-92-5-92 41" id="bX"/><g id="e"><use transform="matrix(0.05,0,0,0.05,0,0)" xlink:href="#bH"/><use transform="matrix(0.05,0,0,0.05,12.950000000000001,0)" xlink:href="#bO"/><use transform="matrix(0.05,0,0,0.05,18.900000000000002,0)" xlink:href="#bL"/><use transform="matrix(0.05,0,0,0.05,22.85,0)" xlink:href="#bW"/><use transform="matrix(0.05,0,0,0.05,27.85,0)" xlink:href="#bL"/><use transform="matrix(0.05,0,0,0.05,31.8,0)" xlink:href="#bT"/><use transform="matrix(0.05,0,0,0.05,40.8,0)" xlink:href="#bX"/><use transform="matrix(0.05,0,0,0.05,50.8,0)" xlink:href="#bR"/></g><path d="M30-248c87 1 191-15 191 75 0 78-77 80-158 76V0H30v-248zm33 125c57 0 124 11 124-50 0-59-68-47-124-48v98" id="bY"/><g id="f"><use transform="matrix(0.05,0,0,0.05,0,0)" xlink:href="#bY"/><use transform="matrix(0.05,0,0,0.05,12,0)" xlink:href="#bI"/><use transform="matrix(0.05,0,0,0.05,22,0)" xlink:href="#bL"/><use transform="matrix(0.05,0,0,0.05,25.950000000000003,0)" xlink:href="#bJ"/><use transform="matrix(0.05,0,0,0.05,35.95,0)" xlink:href="#bW"/><use transform="matrix(0.05,0,0,0.05,40.95,0)" xlink:href="#bK"/></g><g id="g"><use transform="matrix(0.05,0,0,0.05,0,0)" xlink:href="#bX"/><use transform="matrix(0.05,0,0,0.05,10,0)" xlink:href="#bJ"/><use transform="matrix(0.05,0,0,0.05,20,0)" xlink:href="#bM"/></g><path d="M115-194c55 1 70 41 70 98S169 2 115 4C84 4 66-9 55-30l1 105H24l-1-265h31l2 30c10-21 28-34 59-34zm-8 174c40 0 45-34 45-75s-6-73-45-74c-42 0-51 32-51 76 0 43 10 73 51 73" id="bZ"/><g id="h"><use transform="matrix(0.05,0,0,0.05,0,0)" xlink:href="#bH"/><use transform="matrix(0.05,0,0,0.05,12.950000000000001,0)" xlink:href="#bX"/><use transform="matrix(0.05,0,0,0.05,22.950000000000003,0)" xlink:href="#bZ"/><use transform="matrix(0.05,0,0,0.05,32.95,0)" xlink:href="#bX"/><use transform="matrix(0.05,0,0,0.05,42.95,0)" xlink:href="#bT"/><use transform="matrix(0.05,0,0,0.05,51.95,0)" xlink:href="#bL"/><use transform="matrix(0.05,0,0,0.05,55.900000000000006,0)" xlink:href="#bW"/><use transform="matrix(0.05,0,0,0.05,60.900000000000006,0)" xlink:href="#bS"/></g><path d="M84 4C-5 8 30-112 23-190h32v120c0 31 7 50 39 49 72-2 45-101 50-169h31l1 190h-30c-1-10 1-25-2-33-11 22-28 36-60 37" id="ca"/><g id="i"><use transform="matrix(0.05,0,0,0.05,0,0)" xlink:href="#bM"/><use transform="matrix(0.05,0,0,0.05,10,0)" xlink:href="#ca"/><use transform="matrix(0.05,0,0,0.05,20,0)" xlink:href="#bO"/><use transform="matrix(0.05,0,0,0.05,25.950000000000003,0)" xlink:href="#bL"/><use transform="matrix(0.05,0,0,0.05,29.899999999999995,0)" xlink:href="#bJ"/><use transform="matrix(0.05,0,0,0.05,39.9,0)" xlink:href="#bQ"/></g><path d="M106-169C34-169 62-67 57 0H25v-261h32l-1 103c12-21 28-36 61-36 89 0 53 116 60 194h-32v-121c2-32-8-49-39-48" id="cb"/><g id="j"><use transform="matrix(0.05,0,0,0.05,0,0)" xlink:href="#bW"/><use transform="matrix(0.05,0,0,0.05,5,0)" xlink:href="#cb"/><use transform="matrix(0.05,0,0,0.05,15,0)" xlink:href="#bN"/></g><path d="M33-261c38 41 65 92 65 168S71 34 33 75H2C39 34 66-17 66-93S39-220 2-261h31" id="cc"/><g id="k"><use transform="matrix(0.05,0,0,0.05,0,0)" xlink:href="#bT"/><use transform="matrix(0.05,0,0,0.05,9,0)" xlink:href="#bS"/><use transform="matrix(0.05,0,0,0.05,18,0)" xlink:href="#bT"/><use transform="matrix(0.05,0,0,0.05,27,0)" xlink:href="#bR"/><use transform="matrix(0.05,0,0,0.05,30.950000000000003,0)" xlink:href="#bN"/><use transform="matrix(0.05,0,0,0.05,40.95,0)" xlink:href="#cc"/></g><g id="l"><use transform="matrix(0.05,0,0,0.05,0,0)" xlink:href="#bH"/><use transform="matrix(0.05,0,0,0.05,12.950000000000001,0)" xlink:href="#bO"/><use transform="matrix(0.05,0,0,0.05,18.900000000000002,0)" xlink:href="#bN"/><use transform="matrix(0.05,0,0,0.05,28.900000000000002,0)" xlink:href="#bX"/><use transform="matrix(0.05,0,0,0.05,38.900000000000006,0)" xlink:href="#bW"/><use transform="matrix(0.05,0,0,0.05,43.900000000000006,0)" xlink:href="#bL"/><use transform="matrix(0.05,0,0,0.05,47.85000000000001,0)" xlink:href="#bJ"/><use transform="matrix(0.05,0,0,0.05,57.85,0)" xlink:href="#bQ"/></g><path d="M63-220v92h138v28H63V0H30v-248h175v28H63" id="cd"/><g id="m"><use transform="matrix(0.05,0,0,0.05,0,0)" xlink:href="#cd"/><use transform="matrix(0.05,0,0,0.05,10.950000000000001,0)" xlink:href="#bN"/><use transform="matrix(0.05,0,0,0.05,20.950000000000003,0)" xlink:href="#bX"/><use transform="matrix(0.05,0,0,0.05,30.950000000000003,0)" xlink:href="#bW"/><use transform="matrix(0.05,0,0,0.05,35.95,0)" xlink:href="#ca"/><use transform="matrix(0.05,0,0,0.05,45.95,0)" xlink:href="#bO"/><use transform="matrix(0.05,0,0,0.05,51.900000000000006,0)" xlink:href="#bN"/></g><g id="n"><use transform="matrix(0.05,0,0,0.05,0,0)" xlink:href="#bK"/><use transform="matrix(0.05,0,0,0.05,9,0)" xlink:href="#bN"/><use transform="matrix(0.05,0,0,0.05,19,0)" xlink:href="#bW"/></g><path d="M115-194c53 0 69 39 70 98 0 66-23 100-70 100C84 3 66-7 56-30L54 0H23l1-261h32v101c10-23 28-34 59-34zm-8 174c40 0 45-34 45-75 0-40-5-75-45-74-42 0-51 32-51 76 0 43 10 73 51 73" id="ce"/><g id="o"><use transform="matrix(0.05,0,0,0.05,0,0)" xlink:href="#ce"/><use transform="matrix(0.05,0,0,0.05,10,0)" xlink:href="#bS"/></g><g id="p"><use transform="matrix(0.05,0,0,0.05,0,0)" xlink:href="#bT"/><use transform="matrix(0.05,0,0,0.05,9,0)" xlink:href="#bI"/><use transform="matrix(0.05,0,0,0.05,19,0)" xlink:href="#bJ"/><use transform="matrix(0.05,0,0,0.05,29,0)" xlink:href="#bK"/><use transform="matrix(0.05,0,0,0.05,38,0)" xlink:href="#bL"/><use transform="matrix(0.05,0,0,0.05,41.95,0)" xlink:href="#bM"/><use transform="matrix(0.05,0,0,0.05,51.95,0)" xlink:href="#bN"/><use transform="matrix(0.05,0,0,0.05,61.95,0)" xlink:href="#bO"/><use transform="matrix(0.05,0,0,0.05,67.9,0)" xlink:href="#bL"/><use transform="matrix(0.05,0,0,0.05,71.85000000000001,0)" xlink:href="#bJ"/><use transform="matrix(0.05,0,0,0.05,81.85000000000001,0)" xlink:href="#bQ"/></g><g id="q"><use transform="matrix(0.05,0,0,0.05,0,0)" xlink:href="#bK"/><use transform="matrix(0.05,0,0,0.05,9,0)" xlink:href="#bX"/><use transform="matrix(0.05,0,0,0.05,19,0)" xlink:href="#bS"/></g><path d="M195 0l-74-108L45 0H8l94-129-87-119h37l69 98 67-98h37l-84 118L233 0h-38" id="cf"/><g id="r"><use transform="matrix(0.05,0,0,0.05,0,0)" xlink:href="#bU"/><use transform="matrix(0.05,0,0,0.05,5.95,0)" xlink:href="#cf"/><use transform="matrix(0.05,0,0,0.05,17.95,0)" xlink:href="#cc"/></g><path d="M108 0H70L1-190h34L89-25l56-165h34" id="cg"/><g id="s"><use transform="matrix(0.05,0,0,0.05,0,0)" xlink:href="#bT"/><use transform="matrix(0.05,0,0,0.05,9,0)" xlink:href="#bI"/><use transform="matrix(0.05,0,0,0.05,19,0)" xlink:href="#bJ"/><use transform="matrix(0.05,0,0,0.05,29,0)" xlink:href="#bK"/><use transform="matrix(0.05,0,0,0.05,38,0)" xlink:href="#bN"/><use transform="matrix(0.05,0,0,0.05,48,0)" xlink:href="#bT"/><use transform="matrix(0.05,0,0,0.05,57,0)" xlink:href="#ca"/><use transform="matrix(0.05,0,0,0.05,67,0)" xlink:href="#bW"/><use transform="matrix(0.05,0,0,0.05,72,0)" xlink:href="#bL"/><use transform="matrix(0.05,0,0,0.05,75.95,0)" xlink:href="#cg"/><use transform="matrix(0.05,0,0,0.05,84.95,0)" xlink:href="#bN"/></g><g id="t"><use transform="matrix(0.05,0,0,0.05,0,0)" xlink:href="#bT"/><use transform="matrix(0.05,0,0,0.05,9,0)" xlink:href="#bS"/><use transform="matrix(0.05,0,0,0.05,18,0)" xlink:href="#bT"/><use transform="matrix(0.05,0,0,0.05,27,0)" xlink:href="#bR"/><use transform="matrix(0.05,0,0,0.05,30.950000000000003,0)" xlink:href="#bN"/><use transform="matrix(0.05,0,0,0.05,40.95,0)" xlink:href="#bK"/></g><g id="u"><use transform="matrix(0.05,0,0,0.05,0,0)" xlink:href="#bU"/><use transform="matrix(0.05,0,0,0.05,5.95,0)" xlink:href="#bT"/><use transform="matrix(0.05,0,0,0.05,14.949999999999998,0)" xlink:href="#bO"/><use transform="matrix(0.05,0,0,0.05,20.9,0)" xlink:href="#bL"/><use transform="matrix(0.05,0,0,0.05,24.849999999999998,0)" xlink:href="#bW"/><use transform="matrix(0.05,0,0,0.05,29.849999999999994,0)" xlink:href="#bL"/><use transform="matrix(0.05,0,0,0.05,33.8,0)" xlink:href="#bT"/><use transform="matrix(0.05,0,0,0.05,42.8,0)" xlink:href="#bX"/><use transform="matrix(0.05,0,0,0.05,52.79999999999999,0)" xlink:href="#bR"/></g><g id="v"><use transform="matrix(0.05,0,0,0.05,0,0)" xlink:href="#bZ"/><use transform="matrix(0.05,0,0,0.05,10,0)" xlink:href="#bI"/><use transform="matrix(0.05,0,0,0.05,20,0)" xlink:href="#bL"/><use transform="matrix(0.05,0,0,0.05,23.95,0)" xlink:href="#bJ"/><use transform="matrix(0.05,0,0,0.05,33.95,0)" xlink:href="#bW"/><use transform="matrix(0.05,0,0,0.05,38.95,0)" xlink:href="#bK"/><use transform="matrix(0.05,0,0,0.05,47.95,0)" xlink:href="#cc"/></g><g id="w"><use transform="matrix(0.05,0,0,0.05,0,0)" xlink:href="#bW"/><use transform="matrix(0.05,0,0,0.05,5,0)" xlink:href="#bI"/></g><g id="x"><use transform="matrix(0.05,0,0,0.05,0,0)" xlink:href="#ce"/><use transform="matrix(0.05,0,0,0.05,10,0)" xlink:href="#bN"/><use transform="matrix(0.05,0,0,0.05,20,0)" xlink:href="#bW"/><use transform="matrix(0.05,0,0,0.05,25,0)" xlink:href="#bW"/><use transform="matrix(0.05,0,0,0.05,30,0)" xlink:href="#bN"/><use transform="matrix(0.05,0,0,0.05,40,0)" xlink:href="#bO"/></g><g id="y"><use transform="matrix(0.05,0,0,0.05,0,0)" xlink:href="#bZ"/><use transform="matrix(0.05,0,0,0.05,10,0)" xlink:href="#bO"/><use transform="matrix(0.05,0,0,0.05,15.949999999999998,0)" xlink:href="#bN"/><use transform="matrix(0.05,0,0,0.05,25.950000000000003,0)" xlink:href="#bM"/><use transform="matrix(0.05,0,0,0.05,35.95,0)" xlink:href="#bL"/><use transform="matrix(0.05,0,0,0.05,39.900000000000006,0)" xlink:href="#bT"/><use transform="matrix(0.05,0,0,0.05,48.900000000000006,0)" xlink:href="#bW"/></g><g id="z"><use transform="matrix(0.05,0,0,0.05,0,0)" xlink:href="#bW"/><use transform="matrix(0.05,0,0,0.05,5,0)" xlink:href="#cb"/><use transform="matrix(0.05,0,0,0.05,15,0)" xlink:href="#bN"/></g><path d="M233-177c-1 41-23 64-60 70L243 0h-38l-65-103H63V0H30v-248c88 3 205-21 203 71zM63-129c60-2 137 13 137-47 0-61-80-42-137-45v92" id="ch"/><path d="M232-93c-1 65-40 97-104 97C67 4 28-28 28-90v-158h33c8 89-33 224 67 224 102 0 64-133 71-224h33v155" id="ci"/><path d="M30 0v-248h33v221h125V0H30" id="cj"/><g id="A"><use transform="matrix(0.05,0,0,0.05,0,0)" xlink:href="#ch"/><use transform="matrix(0.05,0,0,0.05,12.950000000000001,0)" xlink:href="#ci"/><use transform="matrix(0.05,0,0,0.05,25.900000000000002,0)" xlink:href="#cj"/></g><path d="M143 0L79-87 56-68V0H24v-261h32v163l83-92h37l-77 82L181 0h-38" id="ck"/><g id="B"><use transform="matrix(0.05,0,0,0.05,0,0)" xlink:href="#bW"/><use transform="matrix(0.05,0,0,0.05,5,0)" xlink:href="#bX"/><use transform="matrix(0.05,0,0,0.05,15,0)" xlink:href="#ck"/><use transform="matrix(0.05,0,0,0.05,24,0)" xlink:href="#bL"/><use transform="matrix(0.05,0,0,0.05,27.950000000000003,0)" xlink:href="#bJ"/><use transform="matrix(0.05,0,0,0.05,37.95,0)" xlink:href="#bQ"/></g><use transform="matrix(0.05,0,0,0.05,0,0)" xlink:href="#cf" id="C"/><g id="D"><use transform="matrix(0.05,0,0,0.05,0,0)" xlink:href="#bX"/><use transform="matrix(0.05,0,0,0.05,10,0)" xlink:href="#bK"/></g><use transform="matrix(0.05,0,0,0.05,0,0)" xlink:href="#bX" id="E"/><path d="M206 0h-36l-40-164L89 0H53L-1-190h32L70-26l43-164h34l41 164 42-164h31" id="cl"/><g id="F"><use transform="matrix(0.05,0,0,0.05,0,0)" xlink:href="#bJ"/><use transform="matrix(0.05,0,0,0.05,10,0)" xlink:href="#bN"/><use transform="matrix(0.05,0,0,0.05,20,0)" xlink:href="#cl"/></g><path d="M210-169c-67 3-38 105-44 169h-31v-121c0-29-5-50-35-48C34-165 62-65 56 0H25l-1-190h30c1 10-1 24 2 32 10-44 99-50 107 0 11-21 27-35 58-36 85-2 47 119 55 194h-31v-121c0-29-5-49-35-48" id="cm"/><g id="G"><use transform="matrix(0.05,0,0,0.05,0,0)" xlink:href="#cb"/><use transform="matrix(0.05,0,0,0.05,10,0)" xlink:href="#bS"/><use transform="matrix(0.05,0,0,0.05,19,0)" xlink:href="#bZ"/><use transform="matrix(0.05,0,0,0.05,29,0)" xlink:href="#bN"/><use transform="matrix(0.05,0,0,0.05,39,0)" xlink:href="#bO"/><use transform="matrix(0.05,0,0,0.05,44.95,0)" xlink:href="#bZ"/><use transform="matrix(0.05,0,0,0.05,54.95,0)" xlink:href="#bX"/><use transform="matrix(0.05,0,0,0.05,64.95,0)" xlink:href="#bO"/><use transform="matrix(0.05,0,0,0.05,70.9,0)" xlink:href="#bX"/><use transform="matrix(0.05,0,0,0.05,80.9,0)" xlink:href="#cm"/><use transform="matrix(0.05,0,0,0.05,95.85000000000001,0)" xlink:href="#bN"/><use transform="matrix(0.05,0,0,0.05,105.85000000000001,0)" xlink:href="#bW"/><use transform="matrix(0.05,0,0,0.05,110.85000000000001,0)" xlink:href="#bN"/><use transform="matrix(0.05,0,0,0.05,120.85000000000001,0)" xlink:href="#bO"/></g><path d="M240 0l2-218c-23 76-54 145-80 218h-23L58-218 59 0H30v-248h44l77 211c21-75 51-140 76-211h43V0h-30" id="cn"/><g id="H"><use transform="matrix(0.05,0,0,0.05,0,0)" xlink:href="#cn"/><use transform="matrix(0.05,0,0,0.05,14.950000000000001,0)" xlink:href="#ca"/><use transform="matrix(0.05,0,0,0.05,24.950000000000003,0)" xlink:href="#bW"/><use transform="matrix(0.05,0,0,0.05,29.950000000000003,0)" xlink:href="#bL"/><use transform="matrix(0.05,0,0,0.05,33.900000000000006,0)" xlink:href="#bZ"/><use transform="matrix(0.05,0,0,0.05,43.900000000000006,0)" xlink:href="#bR"/><use transform="matrix(0.05,0,0,0.05,47.85000000000001,0)" xlink:href="#bN"/></g><path d="M205 0l-28-72H64L36 0H1l101-248h38L239 0h-34zm-38-99l-47-123c-12 45-31 82-46 123h93" id="co"/><g id="I"><use transform="matrix(0.05,0,0,0.05,0,0)" xlink:href="#co"/><use transform="matrix(0.05,0,0,0.05,12,0)" xlink:href="#bR"/><use transform="matrix(0.05,0,0,0.05,15.949999999999998,0)" xlink:href="#bQ"/><use transform="matrix(0.05,0,0,0.05,25.950000000000003,0)" xlink:href="#bI"/><use transform="matrix(0.05,0,0,0.05,35.95,0)" xlink:href="#bO"/><use transform="matrix(0.05,0,0,0.05,41.900000000000006,0)" xlink:href="#bL"/><use transform="matrix(0.05,0,0,0.05,45.85000000000001,0)" xlink:href="#bW"/><use transform="matrix(0.05,0,0,0.05,50.85000000000001,0)" xlink:href="#cb"/><use transform="matrix(0.05,0,0,0.05,60.85,0)" xlink:href="#cm"/><use transform="matrix(0.05,0,0,0.05,75.80000000000001,0)" xlink:href="#bK"/></g><g id="J"><use transform="matrix(0.05,0,0,0.05,0,0)" xlink:href="#cl"/><use transform="matrix(0.05,0,0,0.05,12.950000000000001,0)" xlink:href="#bN"/><use transform="matrix(0.05,0,0,0.05,22.950000000000003,0)" xlink:href="#bO"/><use transform="matrix(0.05,0,0,0.05,28.900000000000002,0)" xlink:href="#bN"/></g><g id="K"><use transform="matrix(0.05,0,0,0.05,0,0)" xlink:href="#bT"/><use transform="matrix(0.05,0,0,0.05,9,0)" xlink:href="#bI"/><use transform="matrix(0.05,0,0,0.05,19,0)" xlink:href="#bJ"/><use transform="matrix(0.05,0,0,0.05,29,0)" xlink:href="#bK"/><use transform="matrix(0.05,0,0,0.05,38,0)" xlink:href="#bL"/><use transform="matrix(0.05,0,0,0.05,41.95,0)" xlink:href="#bM"/><use transform="matrix(0.05,0,0,0.05,51.95,0)" xlink:href="#bN"/><use transform="matrix(0.05,0,0,0.05,61.95,0)" xlink:href="#bO"/><use transform="matrix(0.05,0,0,0.05,67.9,0)" xlink:href="#bN"/><use transform="matrix(0.05,0,0,0.05,77.9,0)" xlink:href="#bM"/></g><path d="M101-234c-31-9-42 10-38 44h38v23H63V0H32v-167H5v-23h27c-7-52 17-82 69-68v24" id="cp"/><g id="L"><use transform="matrix(0.05,0,0,0.05,0,0)" xlink:href="#cp"/><use transform="matrix(0.05,0,0,0.05,5,0)" xlink:href="#bI"/><use transform="matrix(0.05,0,0,0.05,15,0)" xlink:href="#bO"/></g><g id="M"><use transform="matrix(0.05,0,0,0.05,0,0)" xlink:href="#cn"/><use transform="matrix(0.05,0,0,0.05,14.950000000000001,0)" xlink:href="#bI"/><use transform="matrix(0.05,0,0,0.05,24.950000000000003,0)" xlink:href="#bM"/><use transform="matrix(0.05,0,0,0.05,34.95,0)" xlink:href="#bN"/><use transform="matrix(0.05,0,0,0.05,44.95,0)" xlink:href="#bR"/></g><path d="M137 0h-34L2-248h35l83 218 83-218h36" id="cq"/><path d="M101-251c82-7 93 87 43 132L82-64C71-53 59-42 53-27h129V0H18c2-99 128-94 128-182 0-28-16-43-45-43s-46 15-49 41l-32-3c6-41 34-60 81-64" id="cr"/><g id="N"><use transform="matrix(0.05,0,0,0.05,0,0)" xlink:href="#cq"/><use transform="matrix(0.05,0,0,0.05,12,0)" xlink:href="#cr"/></g><g id="O"><use transform="matrix(0.05,0,0,0.05,0,0)" xlink:href="#ch"/><use transform="matrix(0.05,0,0,0.05,12.950000000000001,0)" xlink:href="#bX"/><use transform="matrix(0.05,0,0,0.05,22.950000000000003,0)" xlink:href="#bJ"/><use transform="matrix(0.05,0,0,0.05,32.95,0)" xlink:href="#bM"/><use transform="matrix(0.05,0,0,0.05,42.95,0)" xlink:href="#bI"/><use transform="matrix(0.05,0,0,0.05,52.95,0)" xlink:href="#cm"/></g><g id="P"><use transform="matrix(0.05,0,0,0.05,0,0)" xlink:href="#cd"/><use transform="matrix(0.05,0,0,0.05,10.950000000000001,0)" xlink:href="#bI"/><use transform="matrix(0.05,0,0,0.05,20.950000000000003,0)" xlink:href="#bO"/><use transform="matrix(0.05,0,0,0.05,26.900000000000002,0)" xlink:href="#bN"/><use transform="matrix(0.05,0,0,0.05,36.900000000000006,0)" xlink:href="#bK"/><use transform="matrix(0.05,0,0,0.05,45.900000000000006,0)" xlink:href="#bW"/></g><g id="Q"><use transform="matrix(0.05,0,0,0.05,0,0)" xlink:href="#ch"/><use transform="matrix(0.05,0,0,0.05,12.950000000000001,0)" xlink:href="#bN"/><use transform="matrix(0.05,0,0,0.05,22.950000000000003,0)" xlink:href="#bQ"/><use transform="matrix(0.05,0,0,0.05,32.95,0)" xlink:href="#bO"/><use transform="matrix(0.05,0,0,0.05,38.900000000000006,0)" xlink:href="#bN"/><use transform="matrix(0.05,0,0,0.05,48.900000000000006,0)" xlink:href="#bK"/><use transform="matrix(0.05,0,0,0.05,57.900000000000006,0)" xlink:href="#bK"/><use transform="matrix(0.05,0,0,0.05,66.9,0)" xlink:href="#bI"/><use transform="matrix(0.05,0,0,0.05,76.9,0)" xlink:href="#bO"/></g><g id="R"><use transform="matrix(0.05,0,0,0.05,0,0)" xlink:href="#bQ"/><use transform="matrix(0.05,0,0,0.05,10,0)" xlink:href="#bX"/><use transform="matrix(0.05,0,0,0.05,20,0)" xlink:href="#cg"/><use transform="matrix(0.05,0,0,0.05,29,0)" xlink:href="#bN"/></g><g id="S"><use transform="matrix(0.05,0,0,0.05,0,0)" xlink:href="#bW"/><use transform="matrix(0.05,0,0,0.05,5,0)" xlink:href="#cb"/><use transform="matrix(0.05,0,0,0.05,15,0)" xlink:href="#bN"/></g><g id="T"><use transform="matrix(0.05,0,0,0.05,0,0)" xlink:href="#ce"/><use transform="matrix(0.05,0,0,0.05,10,0)" xlink:href="#bN"/><use transform="matrix(0.05,0,0,0.05,20,0)" xlink:href="#bK"/><use transform="matrix(0.05,0,0,0.05,29,0)" xlink:href="#bW"/></g><g id="U"><use transform="matrix(0.05,0,0,0.05,0,0)" xlink:href="#bO"/><use transform="matrix(0.05,0,0,0.05,5.95,0)" xlink:href="#bN"/><use transform="matrix(0.05,0,0,0.05,15.949999999999998,0)" xlink:href="#bK"/><use transform="matrix(0.05,0,0,0.05,24.95,0)" xlink:href="#ca"/><use transform="matrix(0.05,0,0,0.05,34.95,0)" xlink:href="#bR"/><use transform="matrix(0.05,0,0,0.05,38.900000000000006,0)" xlink:href="#bW"/><use transform="matrix(0.05,0,0,0.05,43.900000000000006,0)" xlink:href="#bK"/></g><g id="W"><use transform="matrix(0.05,0,0,0.05,0,0)" xlink:href="#cn"/><use transform="matrix(0.05,0,0,0.05,14.950000000000001,0)" xlink:href="#bI"/><use transform="matrix(0.05,0,0,0.05,24.950000000000003,0)" xlink:href="#bM"/><use transform="matrix(0.05,0,0,0.05,34.95,0)" xlink:href="#bN"/><use transform="matrix(0.05,0,0,0.05,44.95,0)" xlink:href="#bR"/></g><g id="X"><use transform="matrix(0.05,0,0,0.05,0,0)" xlink:href="#cq"/><use transform="matrix(0.05,0,0,0.05,12,0)" xlink:href="#bV"/></g><path d="M9 0v-24l116-142H16v-24h144v24L44-24h123V0H9" id="cs"/><g id="Y"><use transform="matrix(0.05,0,0,0.05,0,0)" xlink:href="#bI"/><use transform="matrix(0.05,0,0,0.05,10,0)" xlink:href="#bZ"/><use transform="matrix(0.05,0,0,0.05,20,0)" xlink:href="#bW"/><use transform="matrix(0.05,0,0,0.05,25,0)" xlink:href="#bL"/><use transform="matrix(0.05,0,0,0.05,28.950000000000003,0)" xlink:href="#cm"/><use transform="matrix(0.05,0,0,0.05,43.9,0)" xlink:href="#bL"/><use transform="matrix(0.05,0,0,0.05,47.85,0)" xlink:href="#cs"/><use transform="matrix(0.05,0,0,0.05,56.85,0)" xlink:href="#bN"/><use transform="matrix(0.05,0,0,0.05,66.85,0)" xlink:href="#bK"/></g><path d="M141 0L90-78 38 0H4l68-98-65-92h35l48 74 47-74h35l-64 92 68 98h-35" id="ct"/><g id="Z"><use transform="matrix(0.05,0,0,0.05,0,0)" xlink:href="#cn"/><use transform="matrix(0.05,0,0,0.05,14.950000000000001,0)" xlink:href="#bX"/><use transform="matrix(0.05,0,0,0.05,24.950000000000003,0)" xlink:href="#ct"/></g><path d="M16-82v-28h88v28H16" id="cu"/><use transform="matrix(0.05,0,0,0.05,0,0)" xlink:href="#cu" id="aa"/><g id="ab"><use transform="matrix(0.05,0,0,0.05,0,0)" xlink:href="#bM"/><use transform="matrix(0.05,0,0,0.05,10,0)" xlink:href="#bN"/><use transform="matrix(0.05,0,0,0.05,20,0)" xlink:href="#bZ"/><use transform="matrix(0.05,0,0,0.05,30,0)" xlink:href="#bW"/><use transform="matrix(0.05,0,0,0.05,35,0)" xlink:href="#cb"/></g><g id="ac"><use transform="matrix(0.05,0,0,0.05,0,0)" xlink:href="#cb"/><use transform="matrix(0.05,0,0,0.05,10,0)" xlink:href="#bS"/><use transform="matrix(0.05,0,0,0.05,19,0)" xlink:href="#bZ"/><use transform="matrix(0.05,0,0,0.05,29,0)" xlink:href="#bN"/><use transform="matrix(0.05,0,0,0.05,39,0)" xlink:href="#bO"/></g><g id="ad"><use transform="matrix(0.05,0,0,0.05,0,0)" xlink:href="#bZ"/><use transform="matrix(0.05,0,0,0.05,10,0)" xlink:href="#bX"/><use transform="matrix(0.05,0,0,0.05,20,0)" xlink:href="#bO"/><use transform="matrix(0.05,0,0,0.05,25.950000000000003,0)" xlink:href="#bX"/><use transform="matrix(0.05,0,0,0.05,35.95,0)" xlink:href="#cm"/></g><g id="ae"><use transform="matrix(0.05,0,0,0.05,0,0)" xlink:href="#cp"/><use transform="matrix(0.05,0,0,0.05,5,0)" xlink:href="#bI"/><use transform="matrix(0.05,0,0,0.05,15,0)" xlink:href="#bO"/></g><g id="af"><use transform="matrix(0.05,0,0,0.05,0,0)" xlink:href="#ch"/><use transform="matrix(0.05,0,0,0.05,12.950000000000001,0)" xlink:href="#bN"/><use transform="matrix(0.05,0,0,0.05,22.950000000000003,0)" xlink:href="#bQ"/><use transform="matrix(0.05,0,0,0.05,32.95,0)" xlink:href="#bO"/><use transform="matrix(0.05,0,0,0.05,38.900000000000006,0)" xlink:href="#bN"/><use transform="matrix(0.05,0,0,0.05,48.900000000000006,0)" xlink:href="#bK"/><use transform="matrix(0.05,0,0,0.05,57.900000000000006,0)" xlink:href="#bK"/><use transform="matrix(0.05,0,0,0.05,66.9,0)" xlink:href="#bI"/><use transform="matrix(0.05,0,0,0.05,76.9,0)" xlink:href="#bO"/></g><path d="M30 0v-248h187v28H63v79h144v27H63v87h162V0H30" id="cv"/><g id="ag"><use transform="matrix(0.05,0,0,0.05,0,0)" xlink:href="#cv"/><use transform="matrix(0.05,0,0,0.05,12,0)" xlink:href="#ct"/><use transform="matrix(0.05,0,0,0.05,21,0)" xlink:href="#bW"/><use transform="matrix(0.05,0,0,0.05,26,0)" xlink:href="#bO"/><use transform="matrix(0.05,0,0,0.05,31.950000000000003,0)" xlink:href="#bX"/><use transform="matrix(0.05,0,0,0.05,41.95,0)" xlink:href="#bT"/><use transform="matrix(0.05,0,0,0.05,50.95,0)" xlink:href="#bW"/><use transform="matrix(0.05,0,0,0.05,55.95,0)" xlink:href="#bL"/><use transform="matrix(0.05,0,0,0.05,59.900000000000006,0)" xlink:href="#bJ"/><use transform="matrix(0.05,0,0,0.05,69.9,0)" xlink:href="#bQ"/></g><g id="ah"><use transform="matrix(0.05,0,0,0.05,0,0)" xlink:href="#bH"/><use transform="matrix(0.05,0,0,0.05,12.950000000000001,0)" xlink:href="#bO"/><use transform="matrix(0.05,0,0,0.05,18.900000000000002,0)" xlink:href="#bL"/><use transform="matrix(0.05,0,0,0.05,22.85,0)" xlink:href="#bW"/><use transform="matrix(0.05,0,0,0.05,27.85,0)" xlink:href="#bL"/><use transform="matrix(0.05,0,0,0.05,31.8,0)" xlink:href="#bT"/><use transform="matrix(0.05,0,0,0.05,40.8,0)" xlink:href="#bX"/><use transform="matrix(0.05,0,0,0.05,50.8,0)" xlink:href="#bR"/></g><g id="ai"><use transform="matrix(0.05,0,0,0.05,0,0)" xlink:href="#bY"/><use transform="matrix(0.05,0,0,0.05,12,0)" xlink:href="#bI"/><use transform="matrix(0.05,0,0,0.05,22,0)" xlink:href="#bL"/><use transform="matrix(0.05,0,0,0.05,25.950000000000003,0)" xlink:href="#bJ"/><use transform="matrix(0.05,0,0,0.05,35.95,0)" xlink:href="#bW"/><use transform="matrix(0.05,0,0,0.05,40.95,0)" xlink:href="#bK"/></g><g id="aj"><use transform="matrix(0.05,0,0,0.05,0,0)" xlink:href="#bY"/><use transform="matrix(0.05,0,0,0.05,12,0)" xlink:href="#bO"/><use transform="matrix(0.05,0,0,0.05,17.95,0)" xlink:href="#bN"/><use transform="matrix(0.05,0,0,0.05,27.950000000000003,0)" xlink:href="#bZ"/><use transform="matrix(0.05,0,0,0.05,37.95,0)" xlink:href="#bO"/><use transform="matrix(0.05,0,0,0.05,43.900000000000006,0)" xlink:href="#bI"/><use transform="matrix(0.05,0,0,0.05,53.900000000000006,0)" xlink:href="#bT"/><use transform="matrix(0.05,0,0,0.05,62.900000000000006,0)" xlink:href="#bN"/><use transform="matrix(0.05,0,0,0.05,72.9,0)" xlink:href="#bK"/><use transform="matrix(0.05,0,0,0.05,81.9,0)" xlink:href="#bK"/><use transform="matrix(0.05,0,0,0.05,90.9,0)" xlink:href="#bL"/><use transform="matrix(0.05,0,0,0.05,94.85000000000001,0)" xlink:href="#bJ"/><use transform="matrix(0.05,0,0,0.05,104.85000000000001,0)" xlink:href="#bQ"/></g><path d="M190 0L58-211 59 0H30v-248h39L202-35l-2-213h31V0h-41" id="cw"/><g id="ak"><use transform="matrix(0.05,0,0,0.05,0,0)" xlink:href="#cw"/><use transform="matrix(0.05,0,0,0.05,12.950000000000001,0)" xlink:href="#co"/><use transform="matrix(0.05,0,0,0.05,24.950000000000003,0)" xlink:href="#bP"/><use transform="matrix(0.05,0,0,0.05,36.95,0)" xlink:href="#co"/></g><path d="M30-248c118-7 216 8 213 122C240-48 200 0 122 0H30v-248zM63-27c89 8 146-16 146-99s-60-101-146-95v194" id="cx"/><g id="al"><use transform="matrix(0.05,0,0,0.05,0,0)" xlink:href="#cx"/><use transform="matrix(0.05,0,0,0.05,12.950000000000001,0)" xlink:href="#bX"/><use transform="matrix(0.05,0,0,0.05,22.950000000000003,0)" xlink:href="#bW"/><use transform="matrix(0.05,0,0,0.05,27.950000000000003,0)" xlink:href="#bX"/><use transform="matrix(0.05,0,0,0.05,37.95,0)" xlink:href="#bK"/><use transform="matrix(0.05,0,0,0.05,46.95,0)" xlink:href="#bN"/><use transform="matrix(0.05,0,0,0.05,56.95,0)" xlink:href="#bW"/></g><g id="am"><use transform="matrix(0.05,0,0,0.05,0,0)" xlink:href="#cd"/><use transform="matrix(0.05,0,0,0.05,10.950000000000001,0)" xlink:href="#bI"/><use transform="matrix(0.05,0,0,0.05,20.950000000000003,0)" xlink:href="#bO"/></g><g id="an"><use transform="matrix(0.05,0,0,0.05,0,0)" xlink:href="#cj"/><use transform="matrix(0.05,0,0,0.05,10,0)" xlink:href="#bL"/><use transform="matrix(0.05,0,0,0.05,13.949999999999998,0)" xlink:href="#cu"/><use transform="matrix(0.05,0,0,0.05,19.9,0)" xlink:href="#bL"/><use transform="matrix(0.05,0,0,0.05,23.849999999999998,0)" xlink:href="#bI"/><use transform="matrix(0.05,0,0,0.05,33.849999999999994,0)" xlink:href="#bJ"/></g><path d="M160-131c35 5 61 23 61 61C221 17 115-2 30 0v-248c76 3 177-17 177 60 0 33-19 50-47 57zm-97-11c50-1 110 9 110-42 0-47-63-36-110-37v79zm0 115c55-2 124 14 124-45 0-56-70-42-124-44v89" id="cy"/><g id="ao"><use transform="matrix(0.05,0,0,0.05,0,0)" xlink:href="#cy"/><use transform="matrix(0.05,0,0,0.05,12,0)" xlink:href="#bX"/><use transform="matrix(0.05,0,0,0.05,22,0)" xlink:href="#bW"/><use transform="matrix(0.05,0,0,0.05,27,0)" xlink:href="#bW"/><use transform="matrix(0.05,0,0,0.05,32,0)" xlink:href="#bN"/><use transform="matrix(0.05,0,0,0.05,42,0)" xlink:href="#bO"/><use transform="matrix(0.05,0,0,0.05,47.95,0)" xlink:href="#bL"/><use transform="matrix(0.05,0,0,0.05,51.900000000000006,0)" xlink:href="#bN"/><use transform="matrix(0.05,0,0,0.05,61.900000000000006,0)" xlink:href="#bK"/></g><g id="ap"><use transform="matrix(0.05,0,0,0.05,0,0)" xlink:href="#bU"/><use transform="matrix(0.05,0,0,0.05,5.95,0)" xlink:href="#cn"/><use transform="matrix(0.05,0,0,0.05,20.900000000000002,0)" xlink:href="#bX"/><use transform="matrix(0.05,0,0,0.05,30.900000000000002,0)" xlink:href="#bW"/><use transform="matrix(0.05,0,0,0.05,35.900000000000006,0)" xlink:href="#bR"/><use transform="matrix(0.05,0,0,0.05,39.85000000000001,0)" xlink:href="#bX"/><use transform="matrix(0.05,0,0,0.05,49.85000000000001,0)" xlink:href="#ce"/></g><g id="aq"><use transform="matrix(0.05,0,0,0.05,0,0)" xlink:href="#cd"/><use transform="matrix(0.05,0,0,0.05,10.950000000000001,0)" xlink:href="#bL"/><use transform="matrix(0.05,0,0,0.05,14.9,0)" xlink:href="#bR"/><use transform="matrix(0.05,0,0,0.05,18.85,0)" xlink:href="#bN"/><use transform="matrix(0.05,0,0,0.05,28.85,0)" xlink:href="#cc"/></g><g id="ar"><use transform="matrix(0.05,0,0,0.05,0,0)" xlink:href="#cj"/><use transform="matrix(0.05,0,0,0.05,10,0)" xlink:href="#bL"/><use transform="matrix(0.05,0,0,0.05,13.949999999999998,0)" xlink:href="#cu"/><use transform="matrix(0.05,0,0,0.05,19.9,0)" xlink:href="#bL"/><use transform="matrix(0.05,0,0,0.05,23.849999999999998,0)" xlink:href="#bI"/><use transform="matrix(0.05,0,0,0.05,33.849999999999994,0)" xlink:href="#bJ"/></g><g id="as"><use transform="matrix(0.05,0,0,0.05,0,0)" xlink:href="#bU"/><use transform="matrix(0.05,0,0,0.05,5.95,0)" xlink:href="#cw"/><use transform="matrix(0.05,0,0,0.05,18.900000000000002,0)" xlink:href="#ca"/><use transform="matrix(0.05,0,0,0.05,28.900000000000002,0)" xlink:href="#cm"/><use transform="matrix(0.05,0,0,0.05,43.85,0)" xlink:href="#bZ"/><use transform="matrix(0.05,0,0,0.05,53.85,0)" xlink:href="#bS"/></g><path d="M140-251c81 0 123 46 123 126C263-46 219 4 140 4 59 4 17-45 17-125s42-126 123-126zm0 227c63 0 89-41 89-101s-29-99-89-99c-61 0-89 39-89 99S79-25 140-24" id="cz"/><path d="M24-231v-30h32v30H24zM-9 49c24 4 33-6 33-30v-209h32V24c2 40-23 58-65 49V49" id="cA"/><g id="at"><use transform="matrix(0.05,0,0,0.05,0,0)" xlink:href="#cz"/><use transform="matrix(0.05,0,0,0.05,14,0)" xlink:href="#ce"/><use transform="matrix(0.05,0,0,0.05,24,0)" xlink:href="#cA"/><use transform="matrix(0.05,0,0,0.05,27.950000000000003,0)" xlink:href="#bN"/><use transform="matrix(0.05,0,0,0.05,37.95,0)" xlink:href="#bT"/><use transform="matrix(0.05,0,0,0.05,46.95,0)" xlink:href="#bW"/><use transform="matrix(0.05,0,0,0.05,51.95,0)" xlink:href="#cc"/></g><g id="au"><use transform="matrix(0.05,0,0,0.05,0,0)" xlink:href="#cn"/><use transform="matrix(0.05,0,0,0.05,14.950000000000001,0)" xlink:href="#bI"/><use transform="matrix(0.05,0,0,0.05,24.950000000000003,0)" xlink:href="#bM"/><use transform="matrix(0.05,0,0,0.05,34.95,0)" xlink:href="#bN"/><use transform="matrix(0.05,0,0,0.05,44.95,0)" xlink:href="#bR"/></g><path d="M27 0v-27h64v-190l-56 39v-29l58-41h29v221h61V0H27" id="cB"/><g id="av"><use transform="matrix(0.05,0,0,0.05,0,0)" xlink:href="#cq"/><use transform="matrix(0.05,0,0,0.05,12,0)" xlink:href="#cB"/></g><path d="M155-56V0h-30v-56H8v-25l114-167h33v167h35v25h-35zm-30-156c-27 46-58 90-88 131h88v-131" id="cC"/><g id="aw"><use transform="matrix(0.05,0,0,0.05,0,0)" xlink:href="#cq"/><use transform="matrix(0.05,0,0,0.05,12,0)" xlink:href="#cC"/></g><g id="ax"><use transform="matrix(0.05,0,0,0.05,0,0)" xlink:href="#cq"/><use transform="matrix(0.05,0,0,0.05,12,0)" xlink:href="#cr"/></g><g id="ay"><use transform="matrix(0.05,0,0,0.05,0,0)" xlink:href="#bY"/><use transform="matrix(0.05,0,0,0.05,12,0)" xlink:href="#bO"/><use transform="matrix(0.05,0,0,0.05,17.95,0)" xlink:href="#bN"/><use transform="matrix(0.05,0,0,0.05,27.950000000000003,0)" xlink:href="#bM"/><use transform="matrix(0.05,0,0,0.05,37.95,0)" xlink:href="#bL"/><use transform="matrix(0.05,0,0,0.05,41.900000000000006,0)" xlink:href="#bT"/><use transform="matrix(0.05,0,0,0.05,50.900000000000006,0)" xlink:href="#bW"/><use transform="matrix(0.05,0,0,0.05,55.900000000000006,0)" xlink:href="#bK"/></g><g id="az"><use transform="matrix(0.05,0,0,0.05,0,0)" xlink:href="#bW"/><use transform="matrix(0.05,0,0,0.05,5,0)" xlink:href="#cb"/><use transform="matrix(0.05,0,0,0.05,15,0)" xlink:href="#bN"/></g><g id="aA"><use transform="matrix(0.05,0,0,0.05,0,0)" xlink:href="#ch"/><use transform="matrix(0.05,0,0,0.05,12.950000000000001,0)" xlink:href="#ci"/><use transform="matrix(0.05,0,0,0.05,25.900000000000002,0)" xlink:href="#cj"/></g><g id="aB"><use transform="matrix(0.05,0,0,0.05,0,0)" xlink:href="#bH"/><use transform="matrix(0.05,0,0,0.05,12.950000000000001,0)" xlink:href="#bO"/><use transform="matrix(0.05,0,0,0.05,18.900000000000002,0)" xlink:href="#bN"/><use transform="matrix(0.05,0,0,0.05,28.900000000000002,0)" xlink:href="#bX"/><use transform="matrix(0.05,0,0,0.05,38.900000000000006,0)" xlink:href="#bW"/><use transform="matrix(0.05,0,0,0.05,43.900000000000006,0)" xlink:href="#bN"/></g><use transform="matrix(0.05,0,0,0.05,0,0)" xlink:href="#bX" id="aC"/><g id="aD"><use transform="matrix(0.05,0,0,0.05,0,0)" xlink:href="#bJ"/><use transform="matrix(0.05,0,0,0.05,10,0)" xlink:href="#bN"/><use transform="matrix(0.05,0,0,0.05,20,0)" xlink:href="#cl"/></g><g id="aE"><use transform="matrix(0.05,0,0,0.05,0,0)" xlink:href="#cp"/><use transform="matrix(0.05,0,0,0.05,5,0)" xlink:href="#bN"/><use transform="matrix(0.05,0,0,0.05,15,0)" xlink:href="#bX"/><use transform="matrix(0.05,0,0,0.05,25,0)" xlink:href="#bW"/><use transform="matrix(0.05,0,0,0.05,30,0)" xlink:href="#ca"/><use transform="matrix(0.05,0,0,0.05,40,0)" xlink:href="#bO"/><use transform="matrix(0.05,0,0,0.05,45.95,0)" xlink:href="#bN"/></g><g id="aF"><use transform="matrix(0.05,0,0,0.05,0,0)" xlink:href="#cp"/><use transform="matrix(0.05,0,0,0.05,5,0)" xlink:href="#bO"/><use transform="matrix(0.05,0,0,0.05,10.95,0)" xlink:href="#bI"/><use transform="matrix(0.05,0,0,0.05,20.95,0)" xlink:href="#cm"/></g><g id="aG"><use transform="matrix(0.05,0,0,0.05,0,0)" xlink:href="#bK"/><use transform="matrix(0.05,0,0,0.05,9,0)" xlink:href="#bX"/><use transform="matrix(0.05,0,0,0.05,19,0)" xlink:href="#bS"/></g><g id="aH"><use transform="matrix(0.05,0,0,0.05,0,0)" xlink:href="#bU"/><use transform="matrix(0.05,0,0,0.05,5.95,0)" xlink:href="#cf"/><use transform="matrix(0.05,0,0,0.05,17.95,0)" xlink:href="#cc"/></g><g id="aI"><use transform="matrix(0.05,0,0,0.05,0,0)" xlink:href="#bT"/><use transform="matrix(0.05,0,0,0.05,9,0)" xlink:href="#bI"/><use transform="matrix(0.05,0,0,0.05,19,0)" xlink:href="#bJ"/><use transform="matrix(0.05,0,0,0.05,29,0)" xlink:href="#bK"/><use transform="matrix(0.05,0,0,0.05,38,0)" xlink:href="#bN"/><use transform="matrix(0.05,0,0,0.05,48,0)" xlink:href="#bT"/><use transform="matrix(0.05,0,0,0.05,57,0)" xlink:href="#ca"/><use transform="matrix(0.05,0,0,0.05,67,0)" xlink:href="#bW"/><use transform="matrix(0.05,0,0,0.05,72,0)" xlink:href="#bL"/><use transform="matrix(0.05,0,0,0.05,75.95,0)" xlink:href="#cg"/><use transform="matrix(0.05,0,0,0.05,84.95,0)" xlink:href="#bN"/></g><g id="aJ"><use transform="matrix(0.05,0,0,0.05,0,0)" xlink:href="#bT"/><use transform="matrix(0.05,0,0,0.05,9,0)" xlink:href="#bS"/><use transform="matrix(0.05,0,0,0.05,18,0)" xlink:href="#bT"/><use transform="matrix(0.05,0,0,0.05,27,0)" xlink:href="#bR"/><use transform="matrix(0.05,0,0,0.05,30.950000000000003,0)" xlink:href="#bN"/><use transform="matrix(0.05,0,0,0.05,40.95,0)" xlink:href="#bK"/></g><g id="aK"><use transform="matrix(0.05,0,0,0.05,0,0)" xlink:href="#cn"/><use transform="matrix(0.05,0,0,0.05,14.950000000000001,0)" xlink:href="#bX"/><use transform="matrix(0.05,0,0,0.05,24.950000000000003,0)" xlink:href="#ct"/></g><use transform="matrix(0.05,0,0,0.05,0,0)" xlink:href="#cu" id="aL"/><g id="aM"><use transform="matrix(0.05,0,0,0.05,0,0)" xlink:href="#bM"/><use transform="matrix(0.05,0,0,0.05,10,0)" xlink:href="#bN"/><use transform="matrix(0.05,0,0,0.05,20,0)" xlink:href="#bZ"/><use transform="matrix(0.05,0,0,0.05,30,0)" xlink:href="#bW"/><use transform="matrix(0.05,0,0,0.05,35,0)" xlink:href="#cb"/></g><g id="aN"><use transform="matrix(0.05,0,0,0.05,0,0)" xlink:href="#cb"/><use transform="matrix(0.05,0,0,0.05,10,0)" xlink:href="#bS"/><use transform="matrix(0.05,0,0,0.05,19,0)" xlink:href="#bZ"/><use transform="matrix(0.05,0,0,0.05,29,0)" xlink:href="#bN"/><use transform="matrix(0.05,0,0,0.05,39,0)" xlink:href="#bO"/></g><use transform="matrix(0.05,0,0,0.05,0,0)" xlink:href="#cu" id="aO"/><g id="aP"><use transform="matrix(0.05,0,0,0.05,0,0)" xlink:href="#bZ"/><use transform="matrix(0.05,0,0,0.05,10,0)" xlink:href="#bX"/><use transform="matrix(0.05,0,0,0.05,20,0)" xlink:href="#bO"/><use transform="matrix(0.05,0,0,0.05,25.950000000000003,0)" xlink:href="#bX"/><use transform="matrix(0.05,0,0,0.05,35.95,0)" xlink:href="#cm"/><use transform="matrix(0.05,0,0,0.05,50.900000000000006,0)" xlink:href="#bN"/><use transform="matrix(0.05,0,0,0.05,60.900000000000006,0)" xlink:href="#bW"/><use transform="matrix(0.05,0,0,0.05,65.9,0)" xlink:href="#bN"/><use transform="matrix(0.05,0,0,0.05,75.9,0)" xlink:href="#bO"/></g><g id="aQ"><use transform="matrix(0.05,0,0,0.05,0,0)" xlink:href="#bI"/><use transform="matrix(0.05,0,0,0.05,10,0)" xlink:href="#bZ"/><use transform="matrix(0.05,0,0,0.05,20,0)" xlink:href="#bW"/><use transform="matrix(0.05,0,0,0.05,25,0)" xlink:href="#bL"/><use transform="matrix(0.05,0,0,0.05,28.950000000000003,0)" xlink:href="#cm"/><use transform="matrix(0.05,0,0,0.05,43.9,0)" xlink:href="#bL"/><use transform="matrix(0.05,0,0,0.05,47.85,0)" xlink:href="#cs"/><use transform="matrix(0.05,0,0,0.05,56.85,0)" xlink:href="#bX"/><use transform="matrix(0.05,0,0,0.05,66.85,0)" xlink:href="#bW"/><use transform="matrix(0.05,0,0,0.05,71.85,0)" xlink:href="#bL"/><use transform="matrix(0.05,0,0,0.05,75.8,0)" xlink:href="#bI"/><use transform="matrix(0.05,0,0,0.05,85.8,0)" xlink:href="#bJ"/></g><g id="aR"><use transform="matrix(0.05,0,0,0.05,0,0)" xlink:href="#co"/><use transform="matrix(0.05,0,0,0.05,12,0)" xlink:href="#bR"/><use transform="matrix(0.05,0,0,0.05,15.949999999999998,0)" xlink:href="#bQ"/><use transform="matrix(0.05,0,0,0.05,25.950000000000003,0)" xlink:href="#bI"/><use transform="matrix(0.05,0,0,0.05,35.95,0)" xlink:href="#bO"/><use transform="matrix(0.05,0,0,0.05,41.900000000000006,0)" xlink:href="#bL"/><use transform="matrix(0.05,0,0,0.05,45.85000000000001,0)" xlink:href="#bW"/><use transform="matrix(0.05,0,0,0.05,50.85000000000001,0)" xlink:href="#cb"/><use transform="matrix(0.05,0,0,0.05,60.85,0)" xlink:href="#cm"/><use transform="matrix(0.05,0,0,0.05,75.80000000000001,0)" xlink:href="#bK"/></g><g id="aS"><use transform="matrix(0.05,0,0,0.05,0,0)" xlink:href="#bT"/><use transform="matrix(0.05,0,0,0.05,9,0)" xlink:href="#bI"/><use transform="matrix(0.05,0,0,0.05,19,0)" xlink:href="#bJ"/><use transform="matrix(0.05,0,0,0.05,29,0)" xlink:href="#bK"/><use transform="matrix(0.05,0,0,0.05,38,0)" xlink:href="#bL"/><use transform="matrix(0.05,0,0,0.05,41.95,0)" xlink:href="#bM"/><use transform="matrix(0.05,0,0,0.05,51.95,0)" xlink:href="#bN"/><use transform="matrix(0.05,0,0,0.05,61.95,0)" xlink:href="#bO"/><use transform="matrix(0.05,0,0,0.05,67.9,0)" xlink:href="#bN"/><use transform="matrix(0.05,0,0,0.05,77.9,0)" xlink:href="#bM"/></g><g id="aT"><use transform="matrix(0.05,0,0,0.05,0,0)" xlink:href="#cp"/><use transform="matrix(0.05,0,0,0.05,5,0)" xlink:href="#bI"/><use transform="matrix(0.05,0,0,0.05,15,0)" xlink:href="#bO"/></g><g id="aU"><use transform="matrix(0.05,0,0,0.05,0,0)" xlink:href="#cn"/><use transform="matrix(0.05,0,0,0.05,14.950000000000001,0)" xlink:href="#bI"/><use transform="matrix(0.05,0,0,0.05,24.950000000000003,0)" xlink:href="#bM"/><use transform="matrix(0.05,0,0,0.05,34.95,0)" xlink:href="#bN"/><use transform="matrix(0.05,0,0,0.05,44.95,0)" xlink:href="#bR"/><use transform="matrix(0.05,0,0,0.05,48.900000000000006,0)" xlink:href="#bK"/></g><g id="aV"><use transform="matrix(0.05,0,0,0.05,0,0)" xlink:href="#cj"/><use transform="matrix(0.05,0,0,0.05,10,0)" xlink:href="#bL"/><use transform="matrix(0.05,0,0,0.05,13.949999999999998,0)" xlink:href="#bJ"/><use transform="matrix(0.05,0,0,0.05,23.95,0)" xlink:href="#bN"/><use transform="matrix(0.05,0,0,0.05,33.95,0)" xlink:href="#bX"/><use transform="matrix(0.05,0,0,0.05,43.95,0)" xlink:href="#bO"/></g><g id="aW"><use transform="matrix(0.05,0,0,0.05,0,0)" xlink:href="#ch"/><use transform="matrix(0.05,0,0,0.05,12.950000000000001,0)" xlink:href="#bN"/><use transform="matrix(0.05,0,0,0.05,22.950000000000003,0)" xlink:href="#bQ"/><use transform="matrix(0.05,0,0,0.05,32.95,0)" xlink:href="#bO"/><use transform="matrix(0.05,0,0,0.05,38.900000000000006,0)" xlink:href="#bN"/><use transform="matrix(0.05,0,0,0.05,48.900000000000006,0)" xlink:href="#bK"/><use transform="matrix(0.05,0,0,0.05,57.900000000000006,0)" xlink:href="#bK"/><use transform="matrix(0.05,0,0,0.05,66.9,0)" xlink:href="#bL"/><use transform="matrix(0.05,0,0,0.05,70.85000000000001,0)" xlink:href="#bI"/><use transform="matrix(0.05,0,0,0.05,80.85000000000001,0)" xlink:href="#bJ"/></g><g id="aX"><use transform="matrix(0.05,0,0,0.05,0,0)" xlink:href="#cx"/><use transform="matrix(0.05,0,0,0.05,12.950000000000001,0)" xlink:href="#bN"/><use transform="matrix(0.05,0,0,0.05,22.950000000000003,0)" xlink:href="#bT"/><use transform="matrix(0.05,0,0,0.05,31.950000000000003,0)" xlink:href="#bL"/><use transform="matrix(0.05,0,0,0.05,35.900000000000006,0)" xlink:href="#bK"/><use transform="matrix(0.05,0,0,0.05,44.900000000000006,0)" xlink:href="#bL"/><use transform="matrix(0.05,0,0,0.05,48.85000000000001,0)" xlink:href="#bI"/><use transform="matrix(0.05,0,0,0.05,58.85,0)" xlink:href="#bJ"/></g><path d="M127-220V0H93v-220H8v-28h204v28h-85" id="cD"/><g id="aY"><use transform="matrix(0.05,0,0,0.05,0,0)" xlink:href="#cD"/><use transform="matrix(0.05,0,0,0.05,10.3,0)" xlink:href="#bO"/><use transform="matrix(0.05,0,0,0.05,16.25,0)" xlink:href="#bN"/><use transform="matrix(0.05,0,0,0.05,26.25,0)" xlink:href="#bN"/></g><g id="aZ"><use transform="matrix(0.05,0,0,0.05,0,0)" xlink:href="#ch"/><use transform="matrix(0.05,0,0,0.05,12.950000000000001,0)" xlink:href="#bN"/><use transform="matrix(0.05,0,0,0.05,22.950000000000003,0)" xlink:href="#bQ"/><use transform="matrix(0.05,0,0,0.05,32.95,0)" xlink:href="#bO"/><use transform="matrix(0.05,0,0,0.05,38.900000000000006,0)" xlink:href="#bN"/><use transform="matrix(0.05,0,0,0.05,48.900000000000006,0)" xlink:href="#bK"/><use transform="matrix(0.05,0,0,0.05,57.900000000000006,0)" xlink:href="#bK"/><use transform="matrix(0.05,0,0,0.05,66.9,0)" xlink:href="#bI"/><use transform="matrix(0.05,0,0,0.05,76.9,0)" xlink:href="#bO"/></g><g id="ba"><use transform="matrix(0.05,0,0,0.05,0,0)" xlink:href="#cv"/><use transform="matrix(0.05,0,0,0.05,12,0)" xlink:href="#cj"/><use transform="matrix(0.05,0,0,0.05,22,0)" xlink:href="#cn"/></g><g id="bb"><use transform="matrix(0.05,0,0,0.05,0,0)" xlink:href="#cw"/><use transform="matrix(0.05,0,0,0.05,12.950000000000001,0)" xlink:href="#bX"/><use transform="matrix(0.05,0,0,0.05,22.950000000000003,0)" xlink:href="#bL"/><use transform="matrix(0.05,0,0,0.05,26.900000000000002,0)" xlink:href="#cg"/><use transform="matrix(0.05,0,0,0.05,35.900000000000006,0)" xlink:href="#bN"/></g><g id="bc"><use transform="matrix(0.05,0,0,0.05,0,0)" xlink:href="#cy"/><use transform="matrix(0.05,0,0,0.05,12,0)" xlink:href="#bX"/><use transform="matrix(0.05,0,0,0.05,22,0)" xlink:href="#bS"/><use transform="matrix(0.05,0,0,0.05,31,0)" xlink:href="#bN"/><use transform="matrix(0.05,0,0,0.05,41,0)" xlink:href="#bK"/></g><g id="bd"><use transform="matrix(0.05,0,0,0.05,0,0)" xlink:href="#ch"/><use transform="matrix(0.05,0,0,0.05,12.950000000000001,0)" xlink:href="#bN"/><use transform="matrix(0.05,0,0,0.05,22.950000000000003,0)" xlink:href="#bQ"/><use transform="matrix(0.05,0,0,0.05,32.95,0)" xlink:href="#bO"/><use transform="matrix(0.05,0,0,0.05,38.900000000000006,0)" xlink:href="#bN"/><use transform="matrix(0.05,0,0,0.05,48.900000000000006,0)" xlink:href="#bK"/><use transform="matrix(0.05,0,0,0.05,57.900000000000006,0)" xlink:href="#bK"/><use transform="matrix(0.05,0,0,0.05,66.9,0)" xlink:href="#bI"/><use transform="matrix(0.05,0,0,0.05,76.9,0)" xlink:href="#bO"/></g><g id="be"><use transform="matrix(0.05,0,0,0.05,0,0)" xlink:href="#bU"/><use transform="matrix(0.05,0,0,0.05,5.95,0)" xlink:href="#bY"/><use transform="matrix(0.05,0,0,0.05,17.95,0)" xlink:href="#bP"/><use transform="matrix(0.05,0,0,0.05,29.950000000000003,0)" xlink:href="#cz"/><use transform="matrix(0.05,0,0,0.05,43.95,0)" xlink:href="#cc"/></g><g id="bf"><use transform="matrix(0.05,0,0,0.05,0,0)" xlink:href="#co"/><use transform="matrix(0.05,0,0,0.05,12,0)" xlink:href="#ch"/><use transform="matrix(0.05,0,0,0.05,24.950000000000003,0)" xlink:href="#cx"/></g><g id="bg"><use transform="matrix(0.05,0,0,0.05,0,0)" xlink:href="#ch"/><use transform="matrix(0.05,0,0,0.05,12.950000000000001,0)" xlink:href="#bX"/><use transform="matrix(0.05,0,0,0.05,22.950000000000003,0)" xlink:href="#bJ"/><use transform="matrix(0.05,0,0,0.05,32.95,0)" xlink:href="#bM"/><use transform="matrix(0.05,0,0,0.05,42.95,0)" xlink:href="#bI"/><use transform="matrix(0.05,0,0,0.05,52.95,0)" xlink:href="#cm"/></g><g id="bh"><use transform="matrix(0.05,0,0,0.05,0,0)" xlink:href="#cd"/><use transform="matrix(0.05,0,0,0.05,10.950000000000001,0)" xlink:href="#bI"/><use transform="matrix(0.05,0,0,0.05,20.950000000000003,0)" xlink:href="#bO"/><use transform="matrix(0.05,0,0,0.05,26.900000000000002,0)" xlink:href="#bN"/><use transform="matrix(0.05,0,0,0.05,36.900000000000006,0)" xlink:href="#bK"/><use transform="matrix(0.05,0,0,0.05,45.900000000000006,0)" xlink:href="#bW"/></g><path d="M1175-1298H707V0H516v-1298H49v-158h1126v158" id="cE"/><path d="M992-673H361v516h733V0H169v-1456h915v158H361v468h631v157" id="cF"/><path d="M417-1456L893-268l476-1188h249V0h-192c-4-403 4-794 18-1179L966 0H819L342-1176c15 384 23 773 19 1176H169v-1456h248" id="cG"/><path d="M1216-1011c-1 297-202 441-512 441H361V0H169v-1456h537c297-6 510 164 510 445zm-192 2c1-178-126-288-307-289H361v571h345c196 1 318-92 318-282" id="cH"/><path d="M1161-1018c0 201-122 330-278 388l342 618V0h-206L703-589H361V0H168v-1456h482c310-2 511 139 511 438zm-193 0c0-187-120-280-313-280H361v552h295c179 3 313-101 312-272" id="cI"/><path d="M973-380H363L226 0H28l556-1456h168L1309 0h-197zM421-538h495l-248-681" id="cJ"/><path d="M665-137c214 0 337-121 336-332v-987h193v990c-3 300-218 486-529 486-309 0-526-181-525-484v-992h190v986c-1 210 123 333 335 333" id="cK"/><path d="M920 151H4V0h916v151" id="cL"/><path d="M631-137c179 0 314-70 314-231 0-71-25-127-75-166s-141-77-272-115c-165-47-285-106-360-175s-112-154-112-255c0-245 231-397 495-397 206 0 369 89 449 218 43 68 65 142 65 223H942c0-184-129-283-321-283-172 0-299 76-301 236 0 59 26 109 76 150s135 78 256 113c205 59 345 116 436 256 35 53 50 119 50 193-2 256-231 398-507 390C333 12 90-129 80-422h193c0 187 160 285 358 285" id="cM"/><path d="M1222-777c17 480-206 763-650 777H169v-1456h411c408 9 627 269 642 679zm-190 4c3-312-149-522-447-525H361v1141h202c308 0 473-209 469-531v-85" id="cN"/><g id="bi"><use transform="matrix(0.008680555555555556,0,0,0.008680555555555556,0,0)" xlink:href="#cE"/><use transform="matrix(0.008680555555555556,0,0,0.008680555555555556,10.60763888888889,0)" xlink:href="#cF"/><use transform="matrix(0.008680555555555556,0,0,0.008680555555555556,20.711805555555557,0)" xlink:href="#cG"/><use transform="matrix(0.008680555555555556,0,0,0.008680555555555556,36.23263888888889,0)" xlink:href="#cH"/><use transform="matrix(0.008680555555555556,0,0,0.008680555555555556,47.44791666666667,0)" xlink:href="#cF"/><use transform="matrix(0.008680555555555556,0,0,0.008680555555555556,57.55208333333334,0)" xlink:href="#cI"/><use transform="matrix(0.008680555555555556,0,0,0.008680555555555556,68.4982638888889,0)" xlink:href="#cJ"/><use transform="matrix(0.008680555555555556,0,0,0.008680555555555556,80.09548611111113,0)" xlink:href="#cE"/><use transform="matrix(0.008680555555555556,0,0,0.008680555555555556,90.70312500000001,0)" xlink:href="#cK"/><use transform="matrix(0.008680555555555556,0,0,0.008680555555555556,102.2309027777778,0)" xlink:href="#cI"/><use transform="matrix(0.008680555555555556,0,0,0.008680555555555556,113.17708333333336,0)" xlink:href="#cF"/><use transform="matrix(0.008680555555555556,0,0,0.008680555555555556,123.28125000000001,0)" xlink:href="#cL"/><use transform="matrix(0.008680555555555556,0,0,0.008680555555555556,131.30208333333337,0)" xlink:href="#cG"/><use transform="matrix(0.008680555555555556,0,0,0.008680555555555556,146.8229166666667,0)" xlink:href="#cF"/><use transform="matrix(0.008680555555555556,0,0,0.008680555555555556,156.92708333333337,0)" xlink:href="#cJ"/><use transform="matrix(0.008680555555555556,0,0,0.008680555555555556,168.5243055555556,0)" xlink:href="#cM"/><use transform="matrix(0.008680555555555556,0,0,0.008680555555555556,179.0711805555556,0)" xlink:href="#cK"/><use transform="matrix(0.008680555555555556,0,0,0.008680555555555556,190.59895833333337,0)" xlink:href="#cI"/><use transform="matrix(0.008680555555555556,0,0,0.008680555555555556,201.54513888888894,0)" xlink:href="#cF"/><use transform="matrix(0.008680555555555556,0,0,0.008680555555555556,211.64930555555557,0)" xlink:href="#cN"/></g><path d="M651-255l416-1201h210L737 0H567L28-1456h209" id="cO"/><path d="M703-1476c426 0 599 333 586 795-11 408-187 701-584 701-422 0-587-333-587-793 0-282 106-507 280-617 89-56 190-86 305-86zm2 1333c312 0 393-279 393-632 0-308-116-536-395-536-269 0-394 232-394 523v107c-4 298 123 538 396 538" id="cP"/><path d="M362-157h690V0H169v-1456h193v1299" id="cQ"/><path d="M730-137c145 0 253-29 323-105v-327H716v-156h528v534C1148-51 964 20 729 20c-394 0-598-279-607-678v-127c-5-410 194-690 585-691 310-1 499 171 537 447h-192c-36-193-151-289-344-289-285 0-393 220-393 528v119c-5 296 140 534 415 534" id="cR"/><g id="bj"><use transform="matrix(0.008680555555555556,0,0,0.008680555555555556,0,0)" xlink:href="#cO"/><use transform="matrix(0.008680555555555556,0,0,0.008680555555555556,11.197916666666668,0)" xlink:href="#cP"/><use transform="matrix(0.008680555555555556,0,0,0.008680555555555556,23.420138888888893,0)" xlink:href="#cQ"/><use transform="matrix(0.008680555555555556,0,0,0.008680555555555556,30.598958333333336,0)" xlink:href="#cE"/><use transform="matrix(0.008680555555555556,0,0,0.008680555555555556,40.520833333333336,0)" xlink:href="#cJ"/><use transform="matrix(0.008680555555555556,0,0,0.008680555555555556,52.11805555555556,0)" xlink:href="#cR"/><use transform="matrix(0.008680555555555556,0,0,0.008680555555555556,64.22743055555556,0)" xlink:href="#cF"/><use transform="matrix(0.008680555555555556,0,0,0.008680555555555556,74.33159722222223,0)" xlink:href="#cL"/><use transform="matrix(0.008680555555555556,0,0,0.008680555555555556,82.35243055555556,0)" xlink:href="#cG"/><use transform="matrix(0.008680555555555556,0,0,0.008680555555555556,97.8732638888889,0)" xlink:href="#cF"/><use transform="matrix(0.008680555555555556,0,0,0.008680555555555556,107.97743055555556,0)" xlink:href="#cJ"/><use transform="matrix(0.008680555555555556,0,0,0.008680555555555556,119.57465277777779,0)" xlink:href="#cM"/><use transform="matrix(0.008680555555555556,0,0,0.008680555555555556,130.12152777777777,0)" xlink:href="#cK"/><use transform="matrix(0.008680555555555556,0,0,0.008680555555555556,141.64930555555554,0)" xlink:href="#cI"/><use transform="matrix(0.008680555555555556,0,0,0.008680555555555556,152.5954861111111,0)" xlink:href="#cF"/><use transform="matrix(0.008680555555555556,0,0,0.008680555555555556,162.69965277777774,0)" xlink:href="#cN"/></g><g id="bk"><use transform="matrix(0.008680555555555556,0,0,0.008680555555555556,0,0)" xlink:href="#cO"/><use transform="matrix(0.008680555555555556,0,0,0.008680555555555556,11.197916666666668,0)" xlink:href="#cP"/><use transform="matrix(0.008680555555555556,0,0,0.008680555555555556,23.420138888888893,0)" xlink:href="#cQ"/><use transform="matrix(0.008680555555555556,0,0,0.008680555555555556,30.598958333333336,0)" xlink:href="#cE"/><use transform="matrix(0.008680555555555556,0,0,0.008680555555555556,40.520833333333336,0)" xlink:href="#cJ"/><use transform="matrix(0.008680555555555556,0,0,0.008680555555555556,52.11805555555556,0)" xlink:href="#cR"/><use transform="matrix(0.008680555555555556,0,0,0.008680555555555556,64.22743055555556,0)" xlink:href="#cF"/><use transform="matrix(0.008680555555555556,0,0,0.008680555555555556,74.33159722222223,0)" xlink:href="#cL"/><use transform="matrix(0.008680555555555556,0,0,0.008680555555555556,82.35243055555556,0)" xlink:href="#cQ"/><use transform="matrix(0.008680555555555556,0,0,0.008680555555555556,91.35416666666667,0)" xlink:href="#cP"/><use transform="matrix(0.008680555555555556,0,0,0.008680555555555556,103.39409722222223,0)" xlink:href="#cJ"/><use transform="matrix(0.008680555555555556,0,0,0.008680555555555556,114.99131944444444,0)" xlink:href="#cN"/></g><g id="bl"><use transform="matrix(0.05,0,0,0.05,0,0)" xlink:href="#bH"/><use transform="matrix(0.05,0,0,0.05,12.950000000000001,0)" xlink:href="#bO"/><use transform="matrix(0.05,0,0,0.05,18.900000000000002,0)" xlink:href="#bL"/><use transform="matrix(0.05,0,0,0.05,22.85,0)" xlink:href="#bW"/><use transform="matrix(0.05,0,0,0.05,27.85,0)" xlink:href="#bL"/><use transform="matrix(0.05,0,0,0.05,31.8,0)" xlink:href="#bT"/><use transform="matrix(0.05,0,0,0.05,40.8,0)" xlink:href="#bX"/><use transform="matrix(0.05,0,0,0.05,50.8,0)" xlink:href="#bR"/></g><g id="bm"><use transform="matrix(0.05,0,0,0.05,0,0)" xlink:href="#bY"/><use transform="matrix(0.05,0,0,0.05,12,0)" xlink:href="#bI"/><use transform="matrix(0.05,0,0,0.05,22,0)" xlink:href="#bL"/><use transform="matrix(0.05,0,0,0.05,25.950000000000003,0)" xlink:href="#bJ"/><use transform="matrix(0.05,0,0,0.05,35.95,0)" xlink:href="#bW"/><use transform="matrix(0.05,0,0,0.05,40.95,0)" xlink:href="#bK"/></g><g id="bn"><use transform="matrix(0.05,0,0,0.05,0,0)" xlink:href="#cd"/><use transform="matrix(0.05,0,0,0.05,10.950000000000001,0)" xlink:href="#bO"/><use transform="matrix(0.05,0,0,0.05,16.900000000000002,0)" xlink:href="#bI"/><use transform="matrix(0.05,0,0,0.05,26.900000000000002,0)" xlink:href="#cm"/></g><g id="bo"><use transform="matrix(0.05,0,0,0.05,0,0)" xlink:href="#cx"/><use transform="matrix(0.05,0,0,0.05,12.950000000000001,0)" xlink:href="#bL"/><use transform="matrix(0.05,0,0,0.05,16.900000000000002,0)" xlink:href="#bK"/><use transform="matrix(0.05,0,0,0.05,25.900000000000002,0)" xlink:href="#bT"/><use transform="matrix(0.05,0,0,0.05,34.900000000000006,0)" xlink:href="#cb"/><use transform="matrix(0.05,0,0,0.05,44.900000000000006,0)" xlink:href="#bX"/><use transform="matrix(0.05,0,0,0.05,54.900000000000006,0)" xlink:href="#bO"/><use transform="matrix(0.05,0,0,0.05,60.85,0)" xlink:href="#bQ"/><use transform="matrix(0.05,0,0,0.05,70.85000000000001,0)" xlink:href="#bN"/></g><g id="bp"><use transform="matrix(0.05,0,0,0.05,0,0)" xlink:href="#bH"/><use transform="matrix(0.05,0,0,0.05,12.950000000000001,0)" xlink:href="#bS"/><use transform="matrix(0.05,0,0,0.05,21.950000000000003,0)" xlink:href="#bT"/><use transform="matrix(0.05,0,0,0.05,30.950000000000003,0)" xlink:href="#bR"/><use transform="matrix(0.05,0,0,0.05,34.900000000000006,0)" xlink:href="#bN"/><use transform="matrix(0.05,0,0,0.05,44.900000000000006,0)" xlink:href="#bK"/></g><g id="bq"><use transform="matrix(0.05,0,0,0.05,0,0)" xlink:href="#cq"/><use transform="matrix(0.05,0,0,0.05,12,0)" xlink:href="#bV"/></g><g id="br"><use transform="matrix(0.05,0,0,0.05,0,0)" xlink:href="#ci"/><use transform="matrix(0.05,0,0,0.05,12.950000000000001,0)" xlink:href="#bK"/><use transform="matrix(0.05,0,0,0.05,21.950000000000003,0)" xlink:href="#bL"/><use transform="matrix(0.05,0,0,0.05,25.900000000000002,0)" xlink:href="#bJ"/><use transform="matrix(0.05,0,0,0.05,35.900000000000006,0)" xlink:href="#bQ"/></g><g id="bs"><use transform="matrix(0.05,0,0,0.05,0,0)" xlink:href="#bY"/><use transform="matrix(0.05,0,0,0.05,12,0)" xlink:href="#bP"/><use transform="matrix(0.05,0,0,0.05,24,0)" xlink:href="#cz"/></g><g id="bt"><use transform="matrix(0.05,0,0,0.05,0,0)" xlink:href="#cp"/><use transform="matrix(0.05,0,0,0.05,5,0)" xlink:href="#bI"/><use transform="matrix(0.05,0,0,0.05,15,0)" xlink:href="#bO"/></g><g id="bu"><use transform="matrix(0.05,0,0,0.05,0,0)" xlink:href="#cv"/><use transform="matrix(0.05,0,0,0.05,12,0)" xlink:href="#cj"/><use transform="matrix(0.05,0,0,0.05,22,0)" xlink:href="#cn"/></g><g id="bv"><use transform="matrix(0.05,0,0,0.05,0,0)" xlink:href="#bY"/><use transform="matrix(0.05,0,0,0.05,12,0)" xlink:href="#bX"/><use transform="matrix(0.05,0,0,0.05,22,0)" xlink:href="#bO"/><use transform="matrix(0.05,0,0,0.05,27.950000000000003,0)" xlink:href="#bW"/><use transform="matrix(0.05,0,0,0.05,32.95,0)" xlink:href="#bL"/><use transform="matrix(0.05,0,0,0.05,36.900000000000006,0)" xlink:href="#bT"/><use transform="matrix(0.05,0,0,0.05,45.900000000000006,0)" xlink:href="#bR"/><use transform="matrix(0.05,0,0,0.05,49.85000000000001,0)" xlink:href="#bN"/></g><g id="bw"><use transform="matrix(0.05,0,0,0.05,0,0)" xlink:href="#bP"/><use transform="matrix(0.05,0,0,0.05,12,0)" xlink:href="#cl"/><use transform="matrix(0.05,0,0,0.05,24.950000000000003,0)" xlink:href="#bX"/><use transform="matrix(0.05,0,0,0.05,34.95,0)" xlink:href="#bO"/><use transform="matrix(0.05,0,0,0.05,40.900000000000006,0)" xlink:href="#cm"/></g><g id="bx"><use transform="matrix(0.05,0,0,0.05,0,0)" xlink:href="#cz"/><use transform="matrix(0.05,0,0,0.05,14,0)" xlink:href="#bZ"/><use transform="matrix(0.05,0,0,0.05,24,0)" xlink:href="#bW"/><use transform="matrix(0.05,0,0,0.05,29,0)" xlink:href="#bL"/><use transform="matrix(0.05,0,0,0.05,32.95,0)" xlink:href="#cm"/><use transform="matrix(0.05,0,0,0.05,47.900000000000006,0)" xlink:href="#bL"/><use transform="matrix(0.05,0,0,0.05,51.85,0)" xlink:href="#cs"/><use transform="matrix(0.05,0,0,0.05,60.85,0)" xlink:href="#bN"/><use transform="matrix(0.05,0,0,0.05,70.85000000000001,0)" xlink:href="#bO"/></g><g id="by"><use transform="matrix(0.05,0,0,0.05,0,0)" xlink:href="#bU"/><use transform="matrix(0.05,0,0,0.05,5.95,0)" xlink:href="#bY"/><use transform="matrix(0.05,0,0,0.05,17.95,0)" xlink:href="#bP"/><use transform="matrix(0.05,0,0,0.05,29.950000000000003,0)" xlink:href="#cz"/><use transform="matrix(0.05,0,0,0.05,43.95,0)" xlink:href="#cc"/></g><g id="bz"><use transform="matrix(0.05,0,0,0.05,0,0)" xlink:href="#bI"/><use transform="matrix(0.05,0,0,0.05,10,0)" xlink:href="#bZ"/><use transform="matrix(0.05,0,0,0.05,20,0)" xlink:href="#bW"/><use transform="matrix(0.05,0,0,0.05,25,0)" xlink:href="#bL"/><use transform="matrix(0.05,0,0,0.05,28.950000000000003,0)" xlink:href="#cm"/><use transform="matrix(0.05,0,0,0.05,43.9,0)" xlink:href="#bL"/><use transform="matrix(0.05,0,0,0.05,47.85,0)" xlink:href="#cs"/><use transform="matrix(0.05,0,0,0.05,56.85,0)" xlink:href="#bL"/><use transform="matrix(0.05,0,0,0.05,60.800000000000004,0)" xlink:href="#bJ"/><use transform="matrix(0.05,0,0,0.05,70.80000000000001,0)" xlink:href="#bQ"/></g><g id="bA"><use transform="matrix(0.05,0,0,0.05,0,0)" xlink:href="#cb"/><use transform="matrix(0.05,0,0,0.05,10,0)" xlink:href="#bS"/><use transform="matrix(0.05,0,0,0.05,19,0)" xlink:href="#bZ"/><use transform="matrix(0.05,0,0,0.05,29,0)" xlink:href="#bN"/><use transform="matrix(0.05,0,0,0.05,39,0)" xlink:href="#bO"/></g><g id="bB"><use transform="matrix(0.05,0,0,0.05,0,0)" xlink:href="#bZ"/><use transform="matrix(0.05,0,0,0.05,10,0)" xlink:href="#bX"/><use transform="matrix(0.05,0,0,0.05,20,0)" xlink:href="#bO"/><use transform="matrix(0.05,0,0,0.05,25.950000000000003,0)" xlink:href="#bX"/><use transform="matrix(0.05,0,0,0.05,35.95,0)" xlink:href="#cm"/><use transform="matrix(0.05,0,0,0.05,50.900000000000006,0)" xlink:href="#bN"/><use transform="matrix(0.05,0,0,0.05,60.900000000000006,0)" xlink:href="#bW"/><use transform="matrix(0.05,0,0,0.05,65.9,0)" xlink:href="#bN"/><use transform="matrix(0.05,0,0,0.05,75.9,0)" xlink:href="#bO"/><use transform="matrix(0.05,0,0,0.05,81.85000000000001,0)" xlink:href="#bK"/></g><g id="bC"><use transform="matrix(0.05,0,0,0.05,0,0)" xlink:href="#bI"/><use transform="matrix(0.05,0,0,0.05,10,0)" xlink:href="#cp"/></g><g id="bD"><use transform="matrix(0.05,0,0,0.05,0,0)" xlink:href="#cv"/><use transform="matrix(0.05,0,0,0.05,12,0)" xlink:href="#ct"/><use transform="matrix(0.05,0,0,0.05,21,0)" xlink:href="#bW"/><use transform="matrix(0.05,0,0,0.05,26,0)" xlink:href="#bO"/><use transform="matrix(0.05,0,0,0.05,31.950000000000003,0)" xlink:href="#bN"/><use transform="matrix(0.05,0,0,0.05,41.95,0)" xlink:href="#cm"/><use transform="matrix(0.05,0,0,0.05,56.900000000000006,0)" xlink:href="#bN"/></g><g id="bE"><use transform="matrix(0.05,0,0,0.05,0,0)" xlink:href="#cj"/><use transform="matrix(0.05,0,0,0.05,10,0)" xlink:href="#bN"/><use transform="matrix(0.05,0,0,0.05,20,0)" xlink:href="#bX"/><use transform="matrix(0.05,0,0,0.05,30,0)" xlink:href="#bO"/><use transform="matrix(0.05,0,0,0.05,35.95,0)" xlink:href="#bJ"/><use transform="matrix(0.05,0,0,0.05,45.95,0)" xlink:href="#bL"/><use transform="matrix(0.05,0,0,0.05,49.900000000000006,0)" xlink:href="#bJ"/><use transform="matrix(0.05,0,0,0.05,59.900000000000006,0)" xlink:href="#bQ"/></g><g id="bF"><use transform="matrix(0.05,0,0,0.05,0,0)" xlink:href="#cn"/><use transform="matrix(0.05,0,0,0.05,14.950000000000001,0)" xlink:href="#bX"/><use transform="matrix(0.05,0,0,0.05,24.950000000000003,0)" xlink:href="#bT"/><use transform="matrix(0.05,0,0,0.05,33.95,0)" xlink:href="#cb"/><use transform="matrix(0.05,0,0,0.05,43.95,0)" xlink:href="#bL"/><use transform="matrix(0.05,0,0,0.05,47.900000000000006,0)" xlink:href="#bJ"/><use transform="matrix(0.05,0,0,0.05,57.900000000000006,0)" xlink:href="#bN"/></g><g id="bG"><use transform="matrix(0.05,0,0,0.05,0,0)" xlink:href="#bU"/><use transform="matrix(0.05,0,0,0.05,5.95,0)" xlink:href="#cv"/><use transform="matrix(0.05,0,0,0.05,17.95,0)" xlink:href="#cj"/><use transform="matrix(0.05,0,0,0.05,27.950000000000003,0)" xlink:href="#cn"/><use transform="matrix(0.05,0,0,0.05,42.9,0)" xlink:href="#cc"/></g></defs></g></svg>