<svg xmlns="http://www.w3.org/2000/svg" xmlns:xlink="http://www.w3.org/1999/xlink" xmlns:lucid="lucid" width="1320" height="950.69"><g transform="translate(-40 -160)" lucid:page-tab-id="0_0"><path d="M0 0h1870.87v1322.83H0z" fill="#fff"/><path d="M60 180h1280v500H60zM60 705.5h1280v385.2H60z" stroke="#000" stroke-width="2" fill="#fff"/><path d="M122.1 336.5h180v120h-180z" stroke="#000" stroke-width="2" fill="#fff"/><use xlink:href="#a" transform="matrix(1,0,0,1,134.10000000000014,348.5124999999996) translate(7.575000000000003 41.4)"/><use xlink:href="#b" transform="matrix(1,0,0,1,134.10000000000014,348.5124999999996) translate(60.525000000000006 41.4)"/><use xlink:href="#c" transform="matrix(1,0,0,1,134.10000000000014,348.5124999999996) translate(127.47500000000001 41.4)"/><use xlink:href="#d" transform="matrix(1,0,0,1,134.10000000000014,348.5124999999996) translate(19.125 63)"/><use xlink:href="#e" transform="matrix(1,0,0,1,134.10000000000014,348.5124999999996) translate(67.975 63)"/><path d="M642.1 267.4h180v60h-180z" stroke="#000" stroke-width="2" fill="#fff"/><use xlink:href="#f" transform="matrix(1,0,0,1,654.1000000000001,279.41250000000014) translate(14.599999999999994 21.15)"/><use xlink:href="#g" transform="matrix(1,0,0,1,654.1000000000001,279.41250000000014) translate(100.45 21.15)"/><path d="M642.1 367.4h180v60h-180z" stroke="#000" stroke-width="2" fill="#fff"/><use xlink:href="#h" transform="matrix(1,0,0,1,654.1000000000001,379.41250000000014) translate(25.574999999999996 21.15)"/><use xlink:href="#g" transform="matrix(1,0,0,1,654.1000000000001,379.41250000000014) translate(89.475 21.15)"/><path d="M642.1 463.8h180V531h-180z" stroke="#000" stroke-width="2" fill="#fff"/><use xlink:href="#i" transform="matrix(1,0,0,1,654.1000000000001,475.8125000000002) translate(8.049999999999997 25.4)"/><use xlink:href="#j" transform="matrix(1,0,0,1,654.1000000000001,475.8125000000002) translate(13.049999999999997 25.4)"/><use xlink:href="#g" transform="matrix(1,0,0,1,654.1000000000001,475.8125000000002) translate(107 25.4)"/><path d="M372.1 263.8h180V331h-180z" stroke="#000" stroke-width="2" fill="#fff"/><use xlink:href="#k" transform="matrix(1,0,0,1,384.10000000000014,275.8125000000002) translate(45.05 14.4)"/><use xlink:href="#l" transform="matrix(1,0,0,1,384.10000000000014,275.8125000000002) translate(27.599999999999994 36)"/><path d="M372.1 363.8h180V431h-180z" stroke="#000" stroke-width="2" fill="#fff"/><use xlink:href="#m" transform="matrix(1,0,0,1,384.10000000000014,375.8125000000002) translate(55.55 25.4)"/><path d="M372.1 463.8h180V531h-180z" stroke="#000" stroke-width="2" fill="#fff"/><use xlink:href="#n" transform="matrix(1,0,0,1,384.10000000000014,475.8125000000002) translate(25.974999999999994 14.4)"/><use xlink:href="#o" transform="matrix(1,0,0,1,384.10000000000014,475.8125000000002) translate(70.175 14.4)"/><use xlink:href="#p" transform="matrix(1,0,0,1,384.10000000000014,475.8125000000002) translate(27.599999999999994 36)"/><path d="M718.9 567.4h276.8V643H718.9z" stroke="#000" stroke-width="2" fill="#fff"/><use xlink:href="#q" transform="matrix(1,0,0,1,730.9000000000001,579.4125000000004) translate(8.025000000000006 14.4)"/><use xlink:href="#r" transform="matrix(1,0,0,1,730.9000000000001,579.4125000000004) translate(93.87500000000001 14.4)"/><use xlink:href="#s" transform="matrix(1,0,0,1,730.9000000000001,579.4125000000004) translate(140.82500000000002 14.4)"/><use xlink:href="#t" transform="matrix(1,0,0,1,730.9000000000001,579.4125000000004) translate(181.07500000000002 14.4)"/><use xlink:href="#u" transform="matrix(1,0,0,1,730.9000000000001,579.4125000000004) translate(199.025 14.4)"/><use xlink:href="#v" transform="matrix(1,0,0,1,730.9000000000001,579.4125000000004) translate(14.674999999999983 36)"/><use xlink:href="#w" transform="matrix(1,0,0,1,730.9000000000001,579.4125000000004) translate(109.52499999999999 36)"/><use xlink:href="#x" transform="matrix(1,0,0,1,730.9000000000001,579.4125000000004) translate(157.475 36)"/><use xlink:href="#y" transform="matrix(1,0,0,1,730.9000000000001,579.4125000000004) translate(101.525 57.6)"/><path d="M1037.9 217h240v40.84h-240z" stroke="#000" stroke-width="2" fill="#fff"/><use xlink:href="#z" transform="matrix(1,0,0,1,1049.8999999999999,228.98749999999995) translate(35.57499999999999 14.4)"/><use xlink:href="#A" transform="matrix(1,0,0,1,1049.8999999999999,228.98749999999995) translate(100.52499999999999 14.4)"/><path d="M304.1 396.5h33v-99.1h15.5" stroke="#000" stroke-width="2" fill="none"/><path d="M304.13 397.5h-1.03v-2h1.03z"/><path d="M367.86 297.4l-14.26 4.65v-9.27z" stroke="#000" stroke-width="2"/><path d="M304.1 396.5h48.5" stroke="#000" stroke-width="2" fill="none"/><path d="M304.13 397.5h-1.03v-2h1.03z"/><path d="M367.86 396.5l-14.26 4.65v-9.27z" stroke="#000" stroke-width="2"/><path d="M304.1 396.5h33v100.9h15.5" stroke="#000" stroke-width="2" fill="none"/><path d="M304.13 397.5h-1.03v-2h1.03z"/><path d="M367.86 497.4l-14.26 4.65v-9.27z" stroke="#000" stroke-width="2"/><path d="M554.1 397.4h43v-100h25.5" stroke="#000" stroke-width="2" fill="none"/><path d="M554.13 398.4h-1.03v-2h1.03z"/><path d="M637.86 297.4l-14.26 4.65v-9.27z" stroke="#000" stroke-width="2"/><path d="M554.1 397.4h68.5" stroke="#000" stroke-width="2" fill="none"/><path d="M554.13 398.4h-1.03v-2h1.03z"/><path d="M637.86 397.4l-14.26 4.65v-9.27z" stroke="#000" stroke-width="2"/><path d="M554.1 397.4h43v100h25.5" stroke="#000" stroke-width="2" fill="none"/><path d="M554.13 398.4h-1.03v-2h1.03z"/><path d="M637.86 497.4l-14.26 4.65v-9.27z" stroke="#000" stroke-width="2"/><path d="M1037.9 277h240v40.84h-240z" stroke="#000" stroke-width="2" fill="#fff"/><use xlink:href="#B" transform="matrix(1,0,0,1,1049.8999999999999,288.98749999999995) translate(35.625 14.4)"/><use xlink:href="#A" transform="matrix(1,0,0,1,1049.8999999999999,288.98749999999995) translate(100.475 14.4)"/><path d="M1037.9 337h240v40.84h-240z" stroke="#000" stroke-width="2" fill="#fff"/><use xlink:href="#C" transform="matrix(1,0,0,1,1049.8999999999999,348.98749999999995) translate(15.149999999999991 14.4)"/><use xlink:href="#A" transform="matrix(1,0,0,1,1049.8999999999999,348.98749999999995) translate(120.95 14.4)"/><path d="M1037.9 397h240v40.84h-240z" stroke="#000" stroke-width="2" fill="#fff"/><use xlink:href="#B" transform="matrix(1,0,0,1,1049.8999999999999,408.98749999999995) translate(46.125 14.4)"/><use xlink:href="#D" transform="matrix(1,0,0,1,1049.8999999999999,408.98749999999995) translate(110.975 14.4)"/><path d="M1037.9 457h240v40.84h-240z" stroke="#000" stroke-width="2" fill="#fff"/><use xlink:href="#z" transform="matrix(1,0,0,1,1049.8999999999999,468.98749999999995) translate(46.074999999999996 14.4)"/><use xlink:href="#D" transform="matrix(1,0,0,1,1049.8999999999999,468.98749999999995) translate(111.025 14.4)"/><path d="M1037.9 517h240v40.84h-240z" stroke="#000" stroke-width="2" fill="#fff"/><use xlink:href="#E" transform="matrix(1,0,0,1,1049.8999999999999,528.9875) translate(88.4 14.4)"/><path d="M824.1 297.4H930v-60h88.4" stroke="#000" stroke-width="2" fill="none"/><path d="M824.13 298.4h-1.03v-2h1.03z"/><path d="M1033.66 237.4l-14.26 4.65v-9.27z" stroke="#000" stroke-width="2"/><path d="M824.1 297.4H930v60h88.4" stroke="#000" stroke-width="2" fill="none"/><path d="M824.13 298.4h-1.03v-2h1.03z"/><path d="M1033.66 357.4l-14.26 4.65v-9.27z" stroke="#000" stroke-width="2"/><path d="M824.1 297.4H930v120h88.4" stroke="#000" stroke-width="2" fill="none"/><path d="M824.13 298.4h-1.03v-2h1.03z"/><path d="M1033.66 417.4l-14.26 4.65v-9.27z" stroke="#000" stroke-width="2"/><path d="M824.1 297.4H930v180h88.4" stroke="#000" stroke-width="2" fill="none"/><path d="M824.13 298.4h-1.03v-2h1.03z"/><path d="M1033.66 477.4l-14.26 4.65v-9.27z" stroke="#000" stroke-width="2"/><path d="M824.1 297.4H930v240h88.4" stroke="#000" stroke-width="2" fill="none"/><path d="M824.13 298.4h-1.03v-2h1.03z"/><path d="M1033.66 537.4l-14.26 4.65v-9.27z" stroke="#000" stroke-width="2"/><path d="M824.1 297.4h194.3" stroke="#000" stroke-width="2" fill="none"/><path d="M824.13 298.4h-1.03v-2h1.03z"/><path d="M1033.66 297.4l-14.26 4.65v-9.27z" stroke="#000" stroke-width="2"/><path d="M824.1 397.4h33.2v150.5" stroke="#000" stroke-width="2" fill="none"/><path d="M824.13 398.4h-1.03v-2h1.03z"/><path d="M857.3 563.18l-4.64-14.27h9.28z" stroke="#000" stroke-width="2"/><path d="M824.1 497.4h33.2v50.5" stroke="#000" stroke-width="2" fill="none"/><path d="M824.13 498.4h-1.03v-2h1.03z"/><path d="M857.3 563.18l-4.64-14.27h9.28z" stroke="#000" stroke-width="2"/><path d="M122.1 336.5h180v120h-180z" stroke="#000" stroke-width="2" fill="#fff"/><use xlink:href="#a" transform="matrix(1,0,0,1,134.10000000000014,348.5124999999996) translate(7.575000000000003 41.4)"/><use xlink:href="#b" transform="matrix(1,0,0,1,134.10000000000014,348.5124999999996) translate(60.525000000000006 41.4)"/><use xlink:href="#c" transform="matrix(1,0,0,1,134.10000000000014,348.5124999999996) translate(127.47500000000001 41.4)"/><use xlink:href="#d" transform="matrix(1,0,0,1,134.10000000000014,348.5124999999996) translate(19.125 63)"/><use xlink:href="#e" transform="matrix(1,0,0,1,134.10000000000014,348.5124999999996) translate(67.975 63)"/><path d="M560 740h180v86.2H560z" stroke="#000" stroke-width="2" fill="#fff"/><use xlink:href="#F" transform="matrix(1,0,0,1,572,752) translate(5.574999999999989 26.2125)"/><use xlink:href="#G" transform="matrix(1,0,0,1,572,752) translate(70.52499999999999 26.2125)"/><use xlink:href="#H" transform="matrix(1,0,0,1,572,752) translate(60.075 47.8125)"/><path d="M742 783.1h17.75c.14 0 .25-.1.25-.25 0-.14.1-.25.25-.25h.25" stroke="#000" stroke-width="2" fill="none"/><path d="M742.03 784.1H741v-2h1.03z"/><path d="M775.76 782.6l-14.26 4.64v-9.28z" stroke="#000" stroke-width="2"/><path d="M780 740h230v85.2H780z" stroke="#000" stroke-width="2" fill="#fff"/><use xlink:href="#I" transform="matrix(1,0,0,1,792,752) translate(5.805740740740731 25.491666666666667)"/><use xlink:href="#J" transform="matrix(1,0,0,1,792,752) translate(37.30907407407407 25.491666666666667)"/><use xlink:href="#K" transform="matrix(1,0,0,1,792,752) translate(89.21277777777777 25.491666666666667)"/><use xlink:href="#L" transform="matrix(1,0,0,1,792,752) translate(117.09055555555555 25.491666666666667)"/><use xlink:href="#M" transform="matrix(1,0,0,1,792,752) translate(132.0164814814815 25.491666666666667)"/><use xlink:href="#N" transform="matrix(1,0,0,1,792,752) translate(55.88703703703703 46.29166666666667)"/><use xlink:href="#O" transform="matrix(1,0,0,1,792,752) translate(90.50555555555556 46.29166666666667)"/><use xlink:href="#P" transform="matrix(1,0,0,1,792,752) translate(114.57962962962964 46.29166666666667)"/><path d="M1050 740h260v85.2h-260z" stroke="#000" stroke-width="2" fill="#fff"/><use xlink:href="#Q" transform="matrix(1,0,0,1,1062,752) translate(24.568518518518502 25.491666666666667)"/><use xlink:href="#R" transform="matrix(1,0,0,1,1062,752) translate(35.08166666666666 46.29166666666667)"/><use xlink:href="#S" transform="matrix(1,0,0,1,1062,752) translate(98.34833333333333 46.29166666666667)"/><use xlink:href="#T" transform="matrix(1,0,0,1,1062,752) translate(142.59648148148148 46.29166666666667)"/><use xlink:href="#U" transform="matrix(1,0,0,1,1062,752) translate(162.77055555555557 46.29166666666667)"/><path d="M1012 782.6h18.5" stroke="#000" stroke-width="2" fill="none"/><path d="M1012.03 783.6H1011v-2h1.03z"/><path d="M1045.76 782.6l-14.26 4.64v-9.28z" stroke="#000" stroke-width="2"/><path d="M560 853.6h180V940H560z" stroke="#000" stroke-width="2" fill="#fff"/><g><use xlink:href="#V" transform="matrix(1,0,0,1,572,865.5999999999999) translate(27.599999999999994 26.2125)"/><use xlink:href="#W" transform="matrix(1,0,0,1,572,865.5999999999999) translate(19.625 47.8125)"/><use xlink:href="#X" transform="matrix(1,0,0,1,572,865.5999999999999) translate(104.525 47.8125)"/></g><path d="M742 896.8h18.5" stroke="#000" stroke-width="2" fill="none"/><path d="M742.03 897.8H741v-2h1.03z"/><path d="M775.76 896.8l-14.26 4.64v-9.28z" stroke="#000" stroke-width="2"/><path d="M780 853.6h230V940H780z" stroke="#000" stroke-width="2" fill="#fff"/><g><use xlink:href="#Y" transform="matrix(1,0,0,1,792,865.6) translate(11.00574074074072 25.679166666666667)"/><use xlink:href="#J" transform="matrix(1,0,0,1,792,865.6) translate(39.81277777777776 25.679166666666667)"/><use xlink:href="#Z" transform="matrix(1,0,0,1,792,865.6) translate(91.71648148148148 25.679166666666667)"/><use xlink:href="#L" transform="matrix(1,0,0,1,792,865.6) translate(115.74240740740741 25.679166666666667)"/><use xlink:href="#aa" transform="matrix(1,0,0,1,792,865.6) translate(130.66833333333335 25.679166666666667)"/><use xlink:href="#ab" transform="matrix(1,0,0,1,792,865.6) translate(59.73888888888888 46.47916666666667)"/><use xlink:href="#O" transform="matrix(1,0,0,1,792,865.6) translate(90.50555555555556 46.47916666666667)"/><use xlink:href="#ac" transform="matrix(1,0,0,1,792,865.6) translate(114.57962962962964 46.47916666666667)"/></g><path d="M1050 853.6h260V940h-260z" stroke="#000" stroke-width="2" fill="#fff"/><g><use xlink:href="#ad" transform="matrix(1,0,0,1,1062,865.5999999999999) translate(-0.5166666666666657 24.566666666666663)"/><use xlink:href="#R" transform="matrix(1,0,0,1,1062,865.5999999999999) translate(36.42981481481482 45.36666666666667)"/><use xlink:href="#S" transform="matrix(1,0,0,1,1062,865.5999999999999) translate(99.6964814814815 45.36666666666667)"/><use xlink:href="#ae" transform="matrix(1,0,0,1,1062,865.5999999999999) translate(143.94462962962965 45.36666666666667)"/><use xlink:href="#af" transform="matrix(1,0,0,1,1062,865.5999999999999) translate(164.11870370370372 45.36666666666667)"/></g><path d="M1012 896.8h18.5" stroke="#000" stroke-width="2" fill="none"/><path d="M1012.03 897.8H1011v-2h1.03z"/><path d="M1045.76 896.8l-14.26 4.64v-9.28z" stroke="#000" stroke-width="2"/><path d="M560.43 980h180v86.4h-180z" stroke="#000" stroke-width="2" fill="#fff"/><g><use xlink:href="#F" transform="matrix(1,0,0,1,572.4330708661416,992.0000000000001) translate(25.525 26.2125)"/><use xlink:href="#ag" transform="matrix(1,0,0,1,572.4330708661416,992.0000000000001) translate(90.475 26.2125)"/><use xlink:href="#ah" transform="matrix(1,0,0,1,572.4330708661416,992.0000000000001) translate(65.575 47.8125)"/></g><path d="M742.43 1023.2h18.5" stroke="#000" stroke-width="2" fill="none"/><path d="M742.46 1024.2h-1.03v-2h1.03z"/><path d="M776.2 1023.2l-14.27 4.64v-9.28z" stroke="#000" stroke-width="2"/><path d="M780.43 980h230v86.4h-230z" stroke="#000" stroke-width="2" fill="#fff"/><g><use xlink:href="#ai" transform="matrix(1,0,0,1,792.4330708661416,992) translate(5.774444444444441 13.866666666666669)"/><use xlink:href="#aj" transform="matrix(1,0,0,1,792.4330708661416,992) translate(28.418518518518518 13.866666666666669)"/><use xlink:href="#ak" transform="matrix(1,0,0,1,792.4330708661416,992) translate(80.32222222222222 13.866666666666669)"/><use xlink:href="#L" transform="matrix(1,0,0,1,792.4330708661416,992) translate(97.60740740740741 13.866666666666669)"/><use xlink:href="#al" transform="matrix(1,0,0,1,792.4330708661416,992) translate(112.53333333333333 13.866666666666669)"/><use xlink:href="#am" transform="matrix(1,0,0,1,792.4330708661416,992) translate(138.21074074074073 13.866666666666669)"/><use xlink:href="#an" transform="matrix(1,0,0,1,792.4330708661416,992) translate(153.13666666666666 13.866666666666669)"/><use xlink:href="#ao" transform="matrix(1,0,0,1,792.4330708661416,992) translate(167.5811111111111 13.866666666666669)"/><use xlink:href="#ap" transform="matrix(1,0,0,1,792.4330708661416,992) translate(2.2355555555555355 34.66666666666667)"/><use xlink:href="#aq" transform="matrix(1,0,0,1,792.4330708661416,992) translate(30.161481481481466 34.66666666666667)"/><use xlink:href="#ar" transform="matrix(1,0,0,1,792.4330708661416,992) translate(48.18333333333332 34.66666666666667)"/><use xlink:href="#as" transform="matrix(1,0,0,1,792.4330708661416,992) translate(63.10925925925925 34.66666666666667)"/><use xlink:href="#ap" transform="matrix(1,0,0,1,792.4330708661416,992) translate(112.17222222222222 34.66666666666667)"/><use xlink:href="#at" transform="matrix(1,0,0,1,792.4330708661416,992) translate(140.09814814814814 34.66666666666667)"/><use xlink:href="#au" transform="matrix(1,0,0,1,792.4330708661416,992) translate(156.67555555555555 34.66666666666667)"/><use xlink:href="#av" transform="matrix(1,0,0,1,792.4330708661416,992) translate(40.287037037037024 55.466666666666676)"/><use xlink:href="#L" transform="matrix(1,0,0,1,792.4330708661416,992) translate(48.905555555555544 55.466666666666676)"/><use xlink:href="#aw" transform="matrix(1,0,0,1,792.4330708661416,992) translate(63.831481481481475 55.466666666666676)"/><use xlink:href="#ax" transform="matrix(1,0,0,1,792.4330708661416,992) translate(116.65 55.466666666666676)"/><use xlink:href="#ay" transform="matrix(1,0,0,1,792.4330708661416,992) translate(131.09444444444443 55.466666666666676)"/><use xlink:href="#az" transform="matrix(1,0,0,1,792.4330708661416,992) translate(150.35370370370373 55.466666666666676)"/></g><path d="M1050.43 980h260v86.4h-260z" stroke="#000" stroke-width="2" fill="#fff"/><g><use xlink:href="#aA" transform="matrix(1,0,0,1,1062.4330708661416,992.0000000000001) translate(50.01481481481481 25.679166666666667)"/><use xlink:href="#R" transform="matrix(1,0,0,1,1062.4330708661416,992.0000000000001) translate(38.789074074074065 46.47916666666667)"/><use xlink:href="#S" transform="matrix(1,0,0,1,1062.4330708661416,992.0000000000001) translate(102.05574074074073 46.47916666666667)"/><use xlink:href="#aB" transform="matrix(1,0,0,1,1062.4330708661416,992.0000000000001) translate(146.30388888888888 46.47916666666667)"/><use xlink:href="#aC" transform="matrix(1,0,0,1,1062.4330708661416,992.0000000000001) translate(166.47796296296298 46.47916666666667)"/></g><path d="M1012.43 1023.2h18.5" stroke="#000" stroke-width="2" fill="none"/><path d="M1012.46 1024.2h-1.03v-2h1.03z"/><path d="M1046.2 1023.2l-14.27 4.64v-9.28z" stroke="#000" stroke-width="2"/><path d="M80 865.5h180v65.2H80z" stroke="#000" stroke-width="2" fill="#fff"/><g><use xlink:href="#f" transform="matrix(1,0,0,1,92,877.4857142857139) translate(12.625 24.9)"/><use xlink:href="#aD" transform="matrix(1,0,0,1,92,877.4857142857139) translate(98.47500000000001 24.9)"/></g><path d="M260 831.2c0-3.3 2.7-6 6-6h228c3.3 0 6 2.7 6 6v48c0 3.3-2.7 6-6 6H266c-3.3 0-6-2.7-6-6z" stroke="#000" stroke-opacity="0" stroke-width="3" fill="#fff" fill-opacity="0"/><g><use xlink:href="#aE" transform="matrix(1,0,0,1,265,830.2) translate(2.037037037037024 17.34722222222222)"/><use xlink:href="#aF" transform="matrix(1,0,0,1,265,830.2) translate(51.32098765432098 17.34722222222222)"/><use xlink:href="#aG" transform="matrix(1,0,0,1,265,830.2) translate(120.4074074074074 17.34722222222222)"/><use xlink:href="#aH" transform="matrix(1,0,0,1,265,830.2) translate(140.1604938271605 17.34722222222222)"/><use xlink:href="#aI" transform="matrix(1,0,0,1,265,830.2) translate(18.555555555555543 38.68055555555556)"/><use xlink:href="#aJ" transform="matrix(1,0,0,1,265,830.2) translate(38.30864197530863 38.68055555555556)"/><use xlink:href="#aK" transform="matrix(1,0,0,1,265,830.2) translate(107 38.68055555555556)"/><use xlink:href="#aL" transform="matrix(1,0,0,1,265,830.2) translate(145.41975308641975 38.68055555555556)"/></g><path d="M262 898.1h278.5" stroke="#000" stroke-width="2" fill="none"/><path d="M262.03 899.1H261v-2h1.03z"/><path d="M555.76 898.1l-14.26 4.62v-9.27z" stroke="#000" stroke-width="2"/><path d="M262 898.1h238v-115h40.5" stroke="#000" stroke-width="2" fill="none"/><path d="M262.03 899.1H261v-2h1.03z"/><path d="M555.76 783.1l-14.26 4.64v-9.28z" stroke="#000" stroke-width="2"/><path d="M262 898.1h238v125.1h40.93" stroke="#000" stroke-width="2" fill="none"/><path d="M262.03 899.1H261v-2h1.03z"/><path d="M556.2 1023.2l-14.27 4.64v-9.28z" stroke="#000" stroke-width="2"/><defs><path d="M190 0L58-211 59 0H30v-248h39L202-35l-2-213h31V0h-41" id="aM"/><path d="M205 0l-28-72H64L36 0H1l101-248h38L239 0h-34zm-38-99l-47-123c-12 45-31 82-46 123h93" id="aN"/><path d="M185-189c-5-48-123-54-124 2 14 75 158 14 163 119 3 78-121 87-175 55-17-10-28-26-33-46l33-7c5 56 141 63 141-1 0-78-155-14-162-118-5-82 145-84 179-34 5 7 8 16 11 25" id="aO"/><g id="a"><use transform="matrix(0.05,0,0,0.05,0,0)" xlink:href="#aM"/><use transform="matrix(0.05,0,0,0.05,12.950000000000001,0)" xlink:href="#aN"/><use transform="matrix(0.05,0,0,0.05,24.950000000000003,0)" xlink:href="#aO"/><use transform="matrix(0.05,0,0,0.05,36.95,0)" xlink:href="#aN"/></g><path d="M30-248c118-7 216 8 213 122C240-48 200 0 122 0H30v-248zM63-27c89 8 146-16 146-99s-60-101-146-95v194" id="aP"/><path d="M141-36C126-15 110 5 73 4 37 3 15-17 15-53c-1-64 63-63 125-63 3-35-9-54-41-54-24 1-41 7-42 31l-33-3c5-37 33-52 76-52 45 0 72 20 72 64v82c-1 20 7 32 28 27v20c-31 9-61-2-59-35zM48-53c0 20 12 33 32 33 41-3 63-29 60-74-43 2-92-5-92 41" id="aQ"/><path d="M59-47c-2 24 18 29 38 22v24C64 9 27 4 27-40v-127H5v-23h24l9-43h21v43h35v23H59v120" id="aR"/><path d="M135-143c-3-34-86-38-87 0 15 53 115 12 119 90S17 21 10-45l28-5c4 36 97 45 98 0-10-56-113-15-118-90-4-57 82-63 122-42 12 7 21 19 24 35" id="aS"/><path d="M100-194c63 0 86 42 84 106H49c0 40 14 67 53 68 26 1 43-12 49-29l28 8c-11 28-37 45-77 45C44 4 14-33 15-96c1-61 26-98 85-98zm52 81c6-60-76-77-97-28-3 7-6 17-6 28h103" id="aT"/><g id="b"><use transform="matrix(0.05,0,0,0.05,0,0)" xlink:href="#aP"/><use transform="matrix(0.05,0,0,0.05,12.950000000000001,0)" xlink:href="#aQ"/><use transform="matrix(0.05,0,0,0.05,22.950000000000003,0)" xlink:href="#aR"/><use transform="matrix(0.05,0,0,0.05,27.950000000000003,0)" xlink:href="#aQ"/><use transform="matrix(0.05,0,0,0.05,37.95,0)" xlink:href="#aS"/><use transform="matrix(0.05,0,0,0.05,46.95,0)" xlink:href="#aT"/><use transform="matrix(0.05,0,0,0.05,56.95,0)" xlink:href="#aR"/></g><path d="M101-234c-31-9-42 10-38 44h38v23H63V0H32v-167H5v-23h27c-7-52 17-82 69-68v24" id="aU"/><path d="M100-194c62-1 85 37 85 99 1 63-27 99-86 99S16-35 15-95c0-66 28-99 85-99zM99-20c44 1 53-31 53-75 0-43-8-75-51-75s-53 32-53 75 10 74 51 75" id="aV"/><path d="M114-163C36-179 61-72 57 0H25l-1-190h30c1 12-1 29 2 39 6-27 23-49 58-41v29" id="aW"/><g id="c"><use transform="matrix(0.05,0,0,0.05,0,0)" xlink:href="#aU"/><use transform="matrix(0.05,0,0,0.05,5,0)" xlink:href="#aV"/><use transform="matrix(0.05,0,0,0.05,15,0)" xlink:href="#aW"/></g><path d="M30 0v-248h33v221h125V0H30" id="aX"/><path d="M24-231v-30h32v30H24zM24 0v-190h32V0H24" id="aY"/><path d="M16-82v-28h88v28H16" id="aZ"/><path d="M117-194c89-4 53 116 60 194h-32v-121c0-31-8-49-39-48C34-167 62-67 57 0H25l-1-190h30c1 10-1 24 2 32 11-22 29-35 61-36" id="ba"/><g id="d"><use transform="matrix(0.05,0,0,0.05,0,0)" xlink:href="#aX"/><use transform="matrix(0.05,0,0,0.05,10,0)" xlink:href="#aY"/><use transform="matrix(0.05,0,0,0.05,13.949999999999998,0)" xlink:href="#aZ"/><use transform="matrix(0.05,0,0,0.05,19.9,0)" xlink:href="#aY"/><use transform="matrix(0.05,0,0,0.05,23.849999999999998,0)" xlink:href="#aV"/><use transform="matrix(0.05,0,0,0.05,33.849999999999994,0)" xlink:href="#ba"/></g><path d="M115-194c53 0 69 39 70 98 0 66-23 100-70 100C84 3 66-7 56-30L54 0H23l1-261h32v101c10-23 28-34 59-34zm-8 174c40 0 45-34 45-75 0-40-5-75-45-74-42 0-51 32-51 76 0 43 10 73 51 73" id="bb"/><g id="e"><use transform="matrix(0.05,0,0,0.05,0,0)" xlink:href="#bb"/><use transform="matrix(0.05,0,0,0.05,10,0)" xlink:href="#aQ"/><use transform="matrix(0.05,0,0,0.05,20,0)" xlink:href="#aR"/><use transform="matrix(0.05,0,0,0.05,25,0)" xlink:href="#aR"/><use transform="matrix(0.05,0,0,0.05,30,0)" xlink:href="#aT"/><use transform="matrix(0.05,0,0,0.05,40,0)" xlink:href="#aW"/><use transform="matrix(0.05,0,0,0.05,45.95,0)" xlink:href="#aY"/><use transform="matrix(0.05,0,0,0.05,49.900000000000006,0)" xlink:href="#aT"/><use transform="matrix(0.05,0,0,0.05,59.900000000000006,0)" xlink:href="#aS"/></g><path d="M96-169c-40 0-48 33-48 73s9 75 48 75c24 0 41-14 43-38l32 2c-6 37-31 61-74 61-59 0-76-41-82-99-10-93 101-131 147-64 4 7 5 14 7 22l-32 3c-4-21-16-35-41-35" id="bc"/><path d="M106-169C34-169 62-67 57 0H25v-261h32l-1 103c12-21 28-36 61-36 89 0 53 116 60 194h-32v-121c2-32-8-49-39-48" id="bd"/><path d="M177-190C167-65 218 103 67 71c-23-6-38-20-44-43l32-5c15 47 100 32 89-28v-30C133-14 115 1 83 1 29 1 15-40 15-95c0-56 16-97 71-98 29-1 48 16 59 35 1-10 0-23 2-32h30zM94-22c36 0 50-32 50-73 0-42-14-75-50-75-39 0-46 34-46 75s6 73 46 73" id="be"/><g id="f"><use transform="matrix(0.05,0,0,0.05,0,0)" xlink:href="#aP"/><use transform="matrix(0.05,0,0,0.05,12.950000000000001,0)" xlink:href="#aY"/><use transform="matrix(0.05,0,0,0.05,16.900000000000002,0)" xlink:href="#aS"/><use transform="matrix(0.05,0,0,0.05,25.900000000000002,0)" xlink:href="#bc"/><use transform="matrix(0.05,0,0,0.05,34.900000000000006,0)" xlink:href="#bd"/><use transform="matrix(0.05,0,0,0.05,44.900000000000006,0)" xlink:href="#aQ"/><use transform="matrix(0.05,0,0,0.05,54.900000000000006,0)" xlink:href="#aW"/><use transform="matrix(0.05,0,0,0.05,60.85,0)" xlink:href="#be"/><use transform="matrix(0.05,0,0,0.05,70.85000000000001,0)" xlink:href="#aT"/></g><path d="M179-190L93 31C79 59 56 82 12 73V49c39 6 53-20 64-50L1-190h34L92-34l54-156h33" id="bf"/><path d="M24 0v-261h32V0H24" id="bg"/><g id="g"><use transform="matrix(0.05,0,0,0.05,0,0)" xlink:href="#bc"/><use transform="matrix(0.05,0,0,0.05,9,0)" xlink:href="#bf"/><use transform="matrix(0.05,0,0,0.05,18,0)" xlink:href="#bc"/><use transform="matrix(0.05,0,0,0.05,27,0)" xlink:href="#bg"/><use transform="matrix(0.05,0,0,0.05,30.950000000000003,0)" xlink:href="#aT"/></g><path d="M212-179c-10-28-35-45-73-45-59 0-87 40-87 99 0 60 29 101 89 101 43 0 62-24 78-52l27 14C228-24 195 4 139 4 59 4 22-46 18-125c-6-104 99-153 187-111 19 9 31 26 39 46" id="bh"/><g id="h"><use transform="matrix(0.05,0,0,0.05,0,0)" xlink:href="#bh"/><use transform="matrix(0.05,0,0,0.05,12.950000000000001,0)" xlink:href="#bd"/><use transform="matrix(0.05,0,0,0.05,22.950000000000003,0)" xlink:href="#aQ"/><use transform="matrix(0.05,0,0,0.05,32.95,0)" xlink:href="#aW"/><use transform="matrix(0.05,0,0,0.05,38.900000000000006,0)" xlink:href="#be"/><use transform="matrix(0.05,0,0,0.05,48.900000000000006,0)" xlink:href="#aT"/></g><path d="M33 0v-248h34V0H33" id="bi"/><path d="M210-169c-67 3-38 105-44 169h-31v-121c0-29-5-50-35-48C34-165 62-65 56 0H25l-1-190h30c1 10-1 24 2 32 10-44 99-50 107 0 11-21 27-35 58-36 85-2 47 119 55 194h-31v-121c0-29-5-49-35-48" id="bj"/><path d="M115-194c55 1 70 41 70 98S169 2 115 4C84 4 66-9 55-30l1 105H24l-1-265h31l2 30c10-21 28-34 59-34zm-8 174c40 0 45-34 45-75s-6-73-45-74c-42 0-51 32-51 76 0 43 10 73 51 73" id="bk"/><path d="M85-194c31 0 48 13 60 33l-1-100h32l1 261h-30c-2-10 0-23-3-31C134-8 116 4 85 4 32 4 16-35 15-94c0-66 23-100 70-100zm9 24c-40 0-46 34-46 75 0 40 6 74 45 74 42 0 51-32 51-76 0-42-9-74-50-73" id="bl"/><g id="j"><use transform="matrix(0.05,0,0,0.05,0,0)" xlink:href="#bi"/><use transform="matrix(0.05,0,0,0.05,5,0)" xlink:href="#bj"/><use transform="matrix(0.05,0,0,0.05,19.950000000000003,0)" xlink:href="#bk"/><use transform="matrix(0.05,0,0,0.05,29.950000000000003,0)" xlink:href="#aT"/><use transform="matrix(0.05,0,0,0.05,39.95,0)" xlink:href="#bl"/><use transform="matrix(0.05,0,0,0.05,49.95,0)" xlink:href="#aQ"/><use transform="matrix(0.05,0,0,0.05,59.95,0)" xlink:href="#ba"/><use transform="matrix(0.05,0,0,0.05,69.95,0)" xlink:href="#bc"/><use transform="matrix(0.05,0,0,0.05,78.95,0)" xlink:href="#aT"/></g><g id="k"><use transform="matrix(0.05,0,0,0.05,0,0)" xlink:href="#aN"/><use transform="matrix(0.05,0,0,0.05,12,0)" xlink:href="#bj"/><use transform="matrix(0.05,0,0,0.05,26.950000000000003,0)" xlink:href="#bb"/><use transform="matrix(0.05,0,0,0.05,36.95,0)" xlink:href="#aY"/><use transform="matrix(0.05,0,0,0.05,40.900000000000006,0)" xlink:href="#aT"/><use transform="matrix(0.05,0,0,0.05,50.900000000000006,0)" xlink:href="#ba"/><use transform="matrix(0.05,0,0,0.05,60.900000000000006,0)" xlink:href="#aR"/></g><path d="M127-220V0H93v-220H8v-28h204v28h-85" id="bm"/><path d="M84 4C-5 8 30-112 23-190h32v120c0 31 7 50 39 49 72-2 45-101 50-169h31l1 190h-30c-1-10 1-25-2-33-11 22-28 36-60 37" id="bn"/><g id="l"><use transform="matrix(0.05,0,0,0.05,0,0)" xlink:href="#bm"/><use transform="matrix(0.05,0,0,0.05,8.950000000000001,0)" xlink:href="#aT"/><use transform="matrix(0.05,0,0,0.05,18.950000000000003,0)" xlink:href="#bj"/><use transform="matrix(0.05,0,0,0.05,33.900000000000006,0)" xlink:href="#bk"/><use transform="matrix(0.05,0,0,0.05,43.900000000000006,0)" xlink:href="#aT"/><use transform="matrix(0.05,0,0,0.05,53.900000000000006,0)" xlink:href="#aW"/><use transform="matrix(0.05,0,0,0.05,59.85,0)" xlink:href="#aQ"/><use transform="matrix(0.05,0,0,0.05,69.85000000000001,0)" xlink:href="#aR"/><use transform="matrix(0.05,0,0,0.05,74.85000000000001,0)" xlink:href="#bn"/><use transform="matrix(0.05,0,0,0.05,84.85000000000001,0)" xlink:href="#aW"/><use transform="matrix(0.05,0,0,0.05,90.80000000000001,0)" xlink:href="#aT"/></g><g id="m"><use transform="matrix(0.05,0,0,0.05,0,0)" xlink:href="#bh"/><use transform="matrix(0.05,0,0,0.05,12.950000000000001,0)" xlink:href="#bf"/><use transform="matrix(0.05,0,0,0.05,21.950000000000003,0)" xlink:href="#bc"/><use transform="matrix(0.05,0,0,0.05,30.950000000000003,0)" xlink:href="#bg"/><use transform="matrix(0.05,0,0,0.05,34.900000000000006,0)" xlink:href="#aT"/></g><g id="n"><use transform="matrix(0.05,0,0,0.05,0,0)" xlink:href="#bm"/><use transform="matrix(0.05,0,0,0.05,10.3,0)" xlink:href="#aY"/><use transform="matrix(0.05,0,0,0.05,14.25,0)" xlink:href="#bj"/><use transform="matrix(0.05,0,0,0.05,29.200000000000003,0)" xlink:href="#aT"/></g><path d="M87 75C49 33 22-17 22-94c0-76 28-126 65-167h31c-38 41-64 92-64 168S80 34 118 75H87" id="bo"/><path d="M240 0l2-218c-23 76-54 145-80 218h-23L58-218 59 0H30v-248h44l77 211c21-75 51-140 76-211h43V0h-30" id="bp"/><g id="o"><use transform="matrix(0.05,0,0,0.05,0,0)" xlink:href="#bo"/><use transform="matrix(0.05,0,0,0.05,5.95,0)" xlink:href="#bp"/><use transform="matrix(0.05,0,0,0.05,20.900000000000002,0)" xlink:href="#aQ"/><use transform="matrix(0.05,0,0,0.05,30.900000000000002,0)" xlink:href="#aR"/><use transform="matrix(0.05,0,0,0.05,35.900000000000006,0)" xlink:href="#bg"/><use transform="matrix(0.05,0,0,0.05,39.85000000000001,0)" xlink:href="#aQ"/><use transform="matrix(0.05,0,0,0.05,49.85000000000001,0)" xlink:href="#bb"/></g><path d="M137 0h-34L2-248h35l83 218 83-218h36" id="bq"/><path d="M33-261c38 41 65 92 65 168S71 34 33 75H2C39 34 66-17 66-93S39-220 2-261h31" id="br"/><g id="p"><use transform="matrix(0.05,0,0,0.05,0,0)" xlink:href="#aP"/><use transform="matrix(0.05,0,0,0.05,12.950000000000001,0)" xlink:href="#aQ"/><use transform="matrix(0.05,0,0,0.05,22.950000000000003,0)" xlink:href="#aR"/><use transform="matrix(0.05,0,0,0.05,27.950000000000003,0)" xlink:href="#aT"/><use transform="matrix(0.05,0,0,0.05,37.95,0)" xlink:href="#aZ"/><use transform="matrix(0.05,0,0,0.05,43.900000000000006,0)" xlink:href="#bq"/><use transform="matrix(0.05,0,0,0.05,54.900000000000006,0)" xlink:href="#aT"/><use transform="matrix(0.05,0,0,0.05,64.9,0)" xlink:href="#bc"/><use transform="matrix(0.05,0,0,0.05,73.9,0)" xlink:href="#aR"/><use transform="matrix(0.05,0,0,0.05,78.9,0)" xlink:href="#aV"/><use transform="matrix(0.05,0,0,0.05,88.9,0)" xlink:href="#aW"/><use transform="matrix(0.05,0,0,0.05,94.85000000000001,0)" xlink:href="#br"/></g><g id="q"><use transform="matrix(0.05,0,0,0.05,0,0)" xlink:href="#aP"/><use transform="matrix(0.05,0,0,0.05,12.950000000000001,0)" xlink:href="#aY"/><use transform="matrix(0.05,0,0,0.05,16.900000000000002,0)" xlink:href="#aS"/><use transform="matrix(0.05,0,0,0.05,25.900000000000002,0)" xlink:href="#bc"/><use transform="matrix(0.05,0,0,0.05,34.900000000000006,0)" xlink:href="#aQ"/><use transform="matrix(0.05,0,0,0.05,44.900000000000006,0)" xlink:href="#aW"/><use transform="matrix(0.05,0,0,0.05,50.85000000000001,0)" xlink:href="#bl"/><use transform="matrix(0.05,0,0,0.05,60.85,0)" xlink:href="#aT"/><use transform="matrix(0.05,0,0,0.05,70.85000000000001,0)" xlink:href="#bl"/></g><g id="r"><use transform="matrix(0.05,0,0,0.05,0,0)" xlink:href="#aS"/><use transform="matrix(0.05,0,0,0.05,9,0)" xlink:href="#aY"/><use transform="matrix(0.05,0,0,0.05,12.949999999999998,0)" xlink:href="#ba"/><use transform="matrix(0.05,0,0,0.05,22.95,0)" xlink:href="#bc"/><use transform="matrix(0.05,0,0,0.05,31.950000000000003,0)" xlink:href="#aT"/></g><path d="M233-177c-1 41-23 64-60 70L243 0h-38l-65-103H63V0H30v-248c88 3 205-21 203 71zM63-129c60-2 137 13 137-47 0-61-80-42-137-45v92" id="bs"/><path d="M232-93c-1 65-40 97-104 97C67 4 28-28 28-90v-158h33c8 89-33 224 67 224 102 0 64-133 71-224h33v155" id="bt"/><g id="s"><use transform="matrix(0.05,0,0,0.05,0,0)" xlink:href="#bs"/><use transform="matrix(0.05,0,0,0.05,12.950000000000001,0)" xlink:href="#bt"/><use transform="matrix(0.05,0,0,0.05,25.900000000000002,0)" xlink:href="#aX"/></g><g id="t"><use transform="matrix(0.05,0,0,0.05,0,0)" xlink:href="#aY"/><use transform="matrix(0.05,0,0,0.05,3.95,0)" xlink:href="#aS"/></g><g id="u"><use transform="matrix(0.05,0,0,0.05,0,0)" xlink:href="#bb"/><use transform="matrix(0.05,0,0,0.05,10,0)" xlink:href="#aT"/><use transform="matrix(0.05,0,0,0.05,20,0)" xlink:href="#aR"/><use transform="matrix(0.05,0,0,0.05,25,0)" xlink:href="#aR"/><use transform="matrix(0.05,0,0,0.05,30,0)" xlink:href="#aT"/><use transform="matrix(0.05,0,0,0.05,40,0)" xlink:href="#aW"/></g><g id="v"><use transform="matrix(0.05,0,0,0.05,0,0)" xlink:href="#bl"/><use transform="matrix(0.05,0,0,0.05,10,0)" xlink:href="#aT"/><use transform="matrix(0.05,0,0,0.05,20,0)" xlink:href="#aR"/><use transform="matrix(0.05,0,0,0.05,25,0)" xlink:href="#aT"/><use transform="matrix(0.05,0,0,0.05,35,0)" xlink:href="#aW"/><use transform="matrix(0.05,0,0,0.05,40.95,0)" xlink:href="#bj"/><use transform="matrix(0.05,0,0,0.05,55.900000000000006,0)" xlink:href="#aY"/><use transform="matrix(0.05,0,0,0.05,59.85,0)" xlink:href="#ba"/><use transform="matrix(0.05,0,0,0.05,69.85000000000001,0)" xlink:href="#aT"/><use transform="matrix(0.05,0,0,0.05,79.85000000000001,0)" xlink:href="#bl"/></g><g id="w"><use transform="matrix(0.05,0,0,0.05,0,0)" xlink:href="#bn"/><use transform="matrix(0.05,0,0,0.05,10,0)" xlink:href="#aS"/><use transform="matrix(0.05,0,0,0.05,19,0)" xlink:href="#aY"/><use transform="matrix(0.05,0,0,0.05,22.95,0)" xlink:href="#ba"/><use transform="matrix(0.05,0,0,0.05,32.95,0)" xlink:href="#be"/></g><g id="x"><use transform="matrix(0.05,0,0,0.05,0,0)" xlink:href="#aP"/><use transform="matrix(0.05,0,0,0.05,12.950000000000001,0)" xlink:href="#aY"/><use transform="matrix(0.05,0,0,0.05,16.900000000000002,0)" xlink:href="#aS"/><use transform="matrix(0.05,0,0,0.05,25.900000000000002,0)" xlink:href="#bc"/><use transform="matrix(0.05,0,0,0.05,34.900000000000006,0)" xlink:href="#bd"/><use transform="matrix(0.05,0,0,0.05,44.900000000000006,0)" xlink:href="#aQ"/><use transform="matrix(0.05,0,0,0.05,54.900000000000006,0)" xlink:href="#aW"/><use transform="matrix(0.05,0,0,0.05,60.85,0)" xlink:href="#be"/><use transform="matrix(0.05,0,0,0.05,70.85000000000001,0)" xlink:href="#aT"/></g><g id="y"><use transform="matrix(0.05,0,0,0.05,0,0)" xlink:href="#bc"/><use transform="matrix(0.05,0,0,0.05,9,0)" xlink:href="#bf"/><use transform="matrix(0.05,0,0,0.05,18,0)" xlink:href="#bc"/><use transform="matrix(0.05,0,0,0.05,27,0)" xlink:href="#bg"/><use transform="matrix(0.05,0,0,0.05,30.950000000000003,0)" xlink:href="#aT"/><use transform="matrix(0.05,0,0,0.05,40.95,0)" xlink:href="#aS"/></g><g id="z"><use transform="matrix(0.05,0,0,0.05,0,0)" xlink:href="#bq"/><use transform="matrix(0.05,0,0,0.05,11,0)" xlink:href="#aV"/><use transform="matrix(0.05,0,0,0.05,21,0)" xlink:href="#bg"/><use transform="matrix(0.05,0,0,0.05,24.95,0)" xlink:href="#aR"/><use transform="matrix(0.05,0,0,0.05,29.950000000000003,0)" xlink:href="#aQ"/><use transform="matrix(0.05,0,0,0.05,39.95,0)" xlink:href="#be"/><use transform="matrix(0.05,0,0,0.05,49.95,0)" xlink:href="#aT"/></g><g id="A"><use transform="matrix(0.05,0,0,0.05,0,0)" xlink:href="#bp"/><use transform="matrix(0.05,0,0,0.05,14.950000000000001,0)" xlink:href="#aT"/><use transform="matrix(0.05,0,0,0.05,24.950000000000003,0)" xlink:href="#aQ"/><use transform="matrix(0.05,0,0,0.05,34.95,0)" xlink:href="#aS"/><use transform="matrix(0.05,0,0,0.05,43.95,0)" xlink:href="#bn"/><use transform="matrix(0.05,0,0,0.05,53.95,0)" xlink:href="#aW"/><use transform="matrix(0.05,0,0,0.05,59.900000000000006,0)" xlink:href="#aT"/><use transform="matrix(0.05,0,0,0.05,69.9,0)" xlink:href="#bl"/></g><g id="B"><use transform="matrix(0.05,0,0,0.05,0,0)" xlink:href="#bh"/><use transform="matrix(0.05,0,0,0.05,12.950000000000001,0)" xlink:href="#bn"/><use transform="matrix(0.05,0,0,0.05,22.950000000000003,0)" xlink:href="#aW"/><use transform="matrix(0.05,0,0,0.05,28.900000000000002,0)" xlink:href="#aW"/><use transform="matrix(0.05,0,0,0.05,34.85,0)" xlink:href="#aT"/><use transform="matrix(0.05,0,0,0.05,44.85,0)" xlink:href="#ba"/><use transform="matrix(0.05,0,0,0.05,54.85,0)" xlink:href="#aR"/></g><g id="C"><use transform="matrix(0.05,0,0,0.05,0,0)" xlink:href="#bm"/><use transform="matrix(0.05,0,0,0.05,8.950000000000001,0)" xlink:href="#aT"/><use transform="matrix(0.05,0,0,0.05,18.950000000000003,0)" xlink:href="#bj"/><use transform="matrix(0.05,0,0,0.05,33.900000000000006,0)" xlink:href="#bk"/><use transform="matrix(0.05,0,0,0.05,43.900000000000006,0)" xlink:href="#aT"/><use transform="matrix(0.05,0,0,0.05,53.900000000000006,0)" xlink:href="#aW"/><use transform="matrix(0.05,0,0,0.05,59.85,0)" xlink:href="#aQ"/><use transform="matrix(0.05,0,0,0.05,69.85000000000001,0)" xlink:href="#aR"/><use transform="matrix(0.05,0,0,0.05,74.85000000000001,0)" xlink:href="#bn"/><use transform="matrix(0.05,0,0,0.05,84.85000000000001,0)" xlink:href="#aW"/><use transform="matrix(0.05,0,0,0.05,90.80000000000001,0)" xlink:href="#aT"/></g><g id="D"><use transform="matrix(0.05,0,0,0.05,0,0)" xlink:href="#bh"/><use transform="matrix(0.05,0,0,0.05,12.950000000000001,0)" xlink:href="#bd"/><use transform="matrix(0.05,0,0,0.05,22.950000000000003,0)" xlink:href="#aQ"/><use transform="matrix(0.05,0,0,0.05,32.95,0)" xlink:href="#aW"/><use transform="matrix(0.05,0,0,0.05,38.900000000000006,0)" xlink:href="#be"/><use transform="matrix(0.05,0,0,0.05,48.900000000000006,0)" xlink:href="#aT"/></g><g id="E"><use transform="matrix(0.05,0,0,0.05,0,0)" xlink:href="#bm"/><use transform="matrix(0.05,0,0,0.05,10.3,0)" xlink:href="#aY"/><use transform="matrix(0.05,0,0,0.05,14.25,0)" xlink:href="#bj"/><use transform="matrix(0.05,0,0,0.05,29.200000000000003,0)" xlink:href="#aT"/></g><g id="F"><use transform="matrix(0.05,0,0,0.05,0,0)" xlink:href="#bq"/><use transform="matrix(0.05,0,0,0.05,11,0)" xlink:href="#aV"/><use transform="matrix(0.05,0,0,0.05,21,0)" xlink:href="#bg"/><use transform="matrix(0.05,0,0,0.05,24.95,0)" xlink:href="#aR"/><use transform="matrix(0.05,0,0,0.05,29.950000000000003,0)" xlink:href="#aQ"/><use transform="matrix(0.05,0,0,0.05,39.95,0)" xlink:href="#be"/><use transform="matrix(0.05,0,0,0.05,49.95,0)" xlink:href="#aT"/></g><g id="G"><use transform="matrix(0.05,0,0,0.05,0,0)" xlink:href="#bp"/><use transform="matrix(0.05,0,0,0.05,14.950000000000001,0)" xlink:href="#aT"/><use transform="matrix(0.05,0,0,0.05,24.950000000000003,0)" xlink:href="#aQ"/><use transform="matrix(0.05,0,0,0.05,34.95,0)" xlink:href="#aS"/><use transform="matrix(0.05,0,0,0.05,43.95,0)" xlink:href="#bn"/><use transform="matrix(0.05,0,0,0.05,53.95,0)" xlink:href="#aW"/><use transform="matrix(0.05,0,0,0.05,59.900000000000006,0)" xlink:href="#aT"/><use transform="matrix(0.05,0,0,0.05,69.9,0)" xlink:href="#bl"/></g><path d="M108 0H70L1-190h34L89-25l56-165h34" id="bu"/><g id="H"><use transform="matrix(0.05,0,0,0.05,0,0)" xlink:href="#bo"/><use transform="matrix(0.05,0,0,0.05,5.95,0)" xlink:href="#bu"/><use transform="matrix(0.05,0,0,0.05,14.949999999999998,0)" xlink:href="#bj"/><use transform="matrix(0.05,0,0,0.05,29.899999999999995,0)" xlink:href="#br"/></g><g id="I"><use transform="matrix(0.048148148148148155,0,0,0.048148148148148155,0,0)" xlink:href="#bm"/><use transform="matrix(0.03370370370370371,0,0,0.03370370370370371,10.544444444444446,2.4266666666666667)" xlink:href="#bu"/><use transform="matrix(0.03370370370370371,0,0,0.03370370370370371,16.611111111111114,2.4266666666666667)" xlink:href="#bj"/></g><path d="M206 0h-36l-40-164L89 0H53L-1-190h32L70-26l43-164h34l41 164 42-164h31" id="bv"/><g id="J"><use transform="matrix(0.048148148148148155,0,0,0.048148148148148155,0,0)" xlink:href="#bv"/><use transform="matrix(0.048148148148148155,0,0,0.048148148148148155,12.470370370370372,0)" xlink:href="#bd"/><use transform="matrix(0.048148148148148155,0,0,0.048148148148148155,22.1,0)" xlink:href="#aT"/><use transform="matrix(0.048148148148148155,0,0,0.048148148148148155,31.729629629629635,0)" xlink:href="#aW"/><use transform="matrix(0.048148148148148155,0,0,0.048148148148148155,37.45925925925926,0)" xlink:href="#aT"/></g><g id="K"><use transform="matrix(0.048148148148148155,0,0,0.048148148148148155,0,0)" xlink:href="#bu"/><use transform="matrix(0.048148148148148155,0,0,0.048148148148148155,8.666666666666668,0)" xlink:href="#bj"/></g><path d="M18-150v-26h174v26H18zm0 90v-26h174v26H18" id="bw"/><use transform="matrix(0.048148148148148155,0,0,0.048148148148148155,0,0)" xlink:href="#bw" id="L"/><path d="M27 0v-27h64v-190l-56 39v-29l58-41h29v221h61V0H27" id="bx"/><path d="M68-38c1 34 0 65-14 84H32c9-13 17-26 17-46H33v-38h35" id="by"/><g id="M"><use transform="matrix(0.048148148148148155,0,0,0.048148148148148155,0,0)" xlink:href="#bj"/><use transform="matrix(0.048148148148148155,0,0,0.048148148148148155,14.396296296296299,0)" xlink:href="#aY"/><use transform="matrix(0.048148148148148155,0,0,0.048148148148148155,18.200000000000003,0)" xlink:href="#ba"/><use transform="matrix(0.048148148148148155,0,0,0.048148148148148155,27.829629629629633,0)" xlink:href="#bo"/><use transform="matrix(0.048148148148148155,0,0,0.048148148148148155,33.559259259259264,0)" xlink:href="#bu"/><use transform="matrix(0.048148148148148155,0,0,0.048148148148148155,42.225925925925935,0)" xlink:href="#bj"/><use transform="matrix(0.03370370370370371,0,0,0.03370370370370371,56.622222222222234,2.4266666666666667)" xlink:href="#bx"/><use transform="matrix(0.048148148148148155,0,0,0.048148148148148155,63.362962962962975,0)" xlink:href="#by"/></g><path d="M101-251c82-7 93 87 43 132L82-64C71-53 59-42 53-27h129V0H18c2-99 128-94 128-182 0-28-16-43-45-43s-46 15-49 41l-32-3c6-41 34-60 81-64" id="bz"/><g id="N"><use transform="matrix(0.048148148148148155,0,0,0.048148148148148155,0,0)" xlink:href="#bu"/><use transform="matrix(0.048148148148148155,0,0,0.048148148148148155,8.666666666666668,0)" xlink:href="#bj"/><use transform="matrix(0.03370370370370371,0,0,0.03370370370370371,23.062962962962967,2.4266666666666667)" xlink:href="#bz"/></g><path d="M33 0v-38h34V0H33" id="bA"/><g id="O"><use transform="matrix(0.048148148148148155,0,0,0.048148148148148155,0,0)" xlink:href="#bA"/><use transform="matrix(0.048148148148148155,0,0,0.048148148148148155,4.814814814814816,0)" xlink:href="#bA"/><use transform="matrix(0.048148148148148155,0,0,0.048148148148148155,9.629629629629632,0)" xlink:href="#bA"/><use transform="matrix(0.048148148148148155,0,0,0.048148148148148155,14.444444444444446,0)" xlink:href="#by"/></g><g id="P"><use transform="matrix(0.048148148148148155,0,0,0.048148148148148155,0,0)" xlink:href="#bu"/><use transform="matrix(0.048148148148148155,0,0,0.048148148148148155,8.666666666666668,0)" xlink:href="#bj"/><use transform="matrix(0.03370370370370371,0,0,0.03370370370370371,23.062962962962967,2.4266666666666667)" xlink:href="#ba"/><use transform="matrix(0.048148148148148155,0,0,0.048148148148148155,29.803703703703707,0)" xlink:href="#br"/></g><path d="M140-251c81 0 123 46 123 126C263-46 219 4 140 4 59 4 17-45 17-125s42-126 123-126zm0 227c63 0 89-41 89-101s-29-99-89-99c-61 0-89 39-89 99S79-25 140-24" id="bB"/><path d="M143 4C61 4 22-44 18-125c-5-107 100-154 193-111 17 8 29 25 37 43l-32 9c-13-25-37-40-76-40-61 0-88 39-88 99 0 61 29 100 91 101 35 0 62-11 79-27v-45h-74v-28h105v86C228-13 192 4 143 4" id="bC"/><path d="M30 0v-248h187v28H63v79h144v27H63v87h162V0H30" id="bD"/><path d="M-5 72V49h209v23H-5" id="bE"/><g id="Q"><use transform="matrix(0.048148148148148155,0,0,0.048148148148148155,0,0)" xlink:href="#bq"/><use transform="matrix(0.048148148148148155,0,0,0.048148148148148155,11.555555555555557,0)" xlink:href="#bB"/><use transform="matrix(0.048148148148148155,0,0,0.048148148148148155,25.03703703703704,0)" xlink:href="#aX"/><use transform="matrix(0.048148148148148155,0,0,0.048148148148148155,33.36666666666667,0)" xlink:href="#bm"/><use transform="matrix(0.048148148148148155,0,0,0.048148148148148155,42.611111111111114,0)" xlink:href="#aN"/><use transform="matrix(0.048148148148148155,0,0,0.048148148148148155,54.16666666666667,0)" xlink:href="#bC"/><use transform="matrix(0.048148148148148155,0,0,0.048148148148148155,67.64814814814815,0)" xlink:href="#bD"/><use transform="matrix(0.048148148148148155,0,0,0.048148148148148155,79.20370370370371,0)" xlink:href="#bE"/><use transform="matrix(0.048148148148148155,0,0,0.048148148148148155,88.83333333333334,0)" xlink:href="#bp"/><use transform="matrix(0.048148148148148155,0,0,0.048148148148148155,103.22962962962964,0)" xlink:href="#bD"/><use transform="matrix(0.048148148148148155,0,0,0.048148148148148155,114.7851851851852,0)" xlink:href="#aN"/><use transform="matrix(0.048148148148148155,0,0,0.048148148148148155,126.34074074074076,0)" xlink:href="#aO"/><use transform="matrix(0.048148148148148155,0,0,0.048148148148148155,137.89629629629633,0)" xlink:href="#bt"/><use transform="matrix(0.048148148148148155,0,0,0.048148148148148155,150.3666666666667,0)" xlink:href="#bs"/><use transform="matrix(0.048148148148148155,0,0,0.048148148148148155,162.83703703703708,0)" xlink:href="#bD"/><use transform="matrix(0.048148148148148155,0,0,0.048148148148148155,174.39259259259262,0)" xlink:href="#aP"/></g><g id="R"><use transform="matrix(0.048148148148148155,0,0,0.048148148148148155,0,0)" xlink:href="#bo"/><use transform="matrix(0.048148148148148155,0,0,0.048148148148148155,5.72962962962963,0)" xlink:href="#bh"/><use transform="matrix(0.048148148148148155,0,0,0.048148148148148155,18.200000000000003,0)" xlink:href="#aW"/><use transform="matrix(0.048148148148148155,0,0,0.048148148148148155,23.929629629629634,0)" xlink:href="#aY"/><use transform="matrix(0.048148148148148155,0,0,0.048148148148148155,27.733333333333338,0)" xlink:href="#aR"/><use transform="matrix(0.048148148148148155,0,0,0.048148148148148155,32.54814814814815,0)" xlink:href="#aY"/><use transform="matrix(0.048148148148148155,0,0,0.048148148148148155,36.351851851851855,0)" xlink:href="#bc"/><use transform="matrix(0.048148148148148155,0,0,0.048148148148148155,45.01851851851852,0)" xlink:href="#aQ"/><use transform="matrix(0.048148148148148155,0,0,0.048148148148148155,54.64814814814816,0)" xlink:href="#bg"/></g><path d="M30-248c87 1 191-15 191 75 0 78-77 80-158 76V0H30v-248zm33 125c57 0 124 11 124-50 0-59-68-47-124-48v98" id="bF"/><g id="S"><use transform="matrix(0.048148148148148155,0,0,0.048148148148148155,0,0)" xlink:href="#bF"/><use transform="matrix(0.048148148148148155,0,0,0.048148148148148155,11.555555555555557,0)" xlink:href="#aV"/><use transform="matrix(0.048148148148148155,0,0,0.048148148148148155,21.18518518518519,0)" xlink:href="#aY"/><use transform="matrix(0.048148148148148155,0,0,0.048148148148148155,24.988888888888894,0)" xlink:href="#ba"/><use transform="matrix(0.048148148148148155,0,0,0.048148148148148155,34.61851851851853,0)" xlink:href="#aR"/></g><g id="T"><use transform="matrix(0.048148148148148155,0,0,0.048148148148148155,0,0)" xlink:href="#bx"/><use transform="matrix(0.048148148148148155,0,0,0.048148148148148155,9.629629629629632,0)" xlink:href="#br"/></g><g id="U"><use transform="matrix(0.048148148148148155,0,0,0.048148148148148155,0,0)" xlink:href="#bo"/><use transform="matrix(0.048148148148148155,0,0,0.048148148148148155,5.72962962962963,0)" xlink:href="#bm"/><use transform="matrix(0.03370370370370371,0,0,0.03370370370370371,16.274074074074075,2.4266666666666667)" xlink:href="#bu"/><use transform="matrix(0.03370370370370371,0,0,0.03370370370370371,22.340740740740742,2.4266666666666667)" xlink:href="#bj"/><use transform="matrix(0.048148148148148155,0,0,0.048148148148148155,32.41814814814815,0)" xlink:href="#br"/></g><g id="V"><use transform="matrix(0.05,0,0,0.05,0,0)" xlink:href="#bm"/><use transform="matrix(0.05,0,0,0.05,8.950000000000001,0)" xlink:href="#aT"/><use transform="matrix(0.05,0,0,0.05,18.950000000000003,0)" xlink:href="#bj"/><use transform="matrix(0.05,0,0,0.05,33.900000000000006,0)" xlink:href="#bk"/><use transform="matrix(0.05,0,0,0.05,43.900000000000006,0)" xlink:href="#aT"/><use transform="matrix(0.05,0,0,0.05,53.900000000000006,0)" xlink:href="#aW"/><use transform="matrix(0.05,0,0,0.05,59.85,0)" xlink:href="#aQ"/><use transform="matrix(0.05,0,0,0.05,69.85000000000001,0)" xlink:href="#aR"/><use transform="matrix(0.05,0,0,0.05,74.85000000000001,0)" xlink:href="#bn"/><use transform="matrix(0.05,0,0,0.05,84.85000000000001,0)" xlink:href="#aW"/><use transform="matrix(0.05,0,0,0.05,90.80000000000001,0)" xlink:href="#aT"/></g><g id="W"><use transform="matrix(0.05,0,0,0.05,0,0)" xlink:href="#bp"/><use transform="matrix(0.05,0,0,0.05,14.950000000000001,0)" xlink:href="#aT"/><use transform="matrix(0.05,0,0,0.05,24.950000000000003,0)" xlink:href="#aQ"/><use transform="matrix(0.05,0,0,0.05,34.95,0)" xlink:href="#aS"/><use transform="matrix(0.05,0,0,0.05,43.95,0)" xlink:href="#bn"/><use transform="matrix(0.05,0,0,0.05,53.95,0)" xlink:href="#aW"/><use transform="matrix(0.05,0,0,0.05,59.900000000000006,0)" xlink:href="#aT"/><use transform="matrix(0.05,0,0,0.05,69.9,0)" xlink:href="#bl"/></g><g id="X"><use transform="matrix(0.05,0,0,0.05,0,0)" xlink:href="#bo"/><use transform="matrix(0.05,0,0,0.05,5.95,0)" xlink:href="#aR"/><use transform="matrix(0.05,0,0,0.05,10.95,0)" xlink:href="#bj"/><use transform="matrix(0.05,0,0,0.05,25.899999999999995,0)" xlink:href="#br"/></g><g id="Y"><use transform="matrix(0.048148148148148155,0,0,0.048148148148148155,0,0)" xlink:href="#bm"/><use transform="matrix(0.03370370370370371,0,0,0.03370370370370371,10.544444444444446,2.4266666666666667)" xlink:href="#aR"/><use transform="matrix(0.03370370370370371,0,0,0.03370370370370371,13.914814814814816,2.4266666666666667)" xlink:href="#bj"/></g><g id="Z"><use transform="matrix(0.048148148148148155,0,0,0.048148148148148155,0,0)" xlink:href="#aR"/><use transform="matrix(0.048148148148148155,0,0,0.048148148148148155,4.814814814814816,0)" xlink:href="#bj"/></g><g id="aa"><use transform="matrix(0.048148148148148155,0,0,0.048148148148148155,0,0)" xlink:href="#bj"/><use transform="matrix(0.048148148148148155,0,0,0.048148148148148155,14.396296296296299,0)" xlink:href="#aY"/><use transform="matrix(0.048148148148148155,0,0,0.048148148148148155,18.200000000000003,0)" xlink:href="#ba"/><use transform="matrix(0.048148148148148155,0,0,0.048148148148148155,27.829629629629633,0)" xlink:href="#bo"/><use transform="matrix(0.048148148148148155,0,0,0.048148148148148155,33.559259259259264,0)" xlink:href="#aR"/><use transform="matrix(0.048148148148148155,0,0,0.048148148148148155,38.37407407407408,0)" xlink:href="#bj"/><use transform="matrix(0.03370370370370371,0,0,0.03370370370370371,52.77037037037038,2.4266666666666667)" xlink:href="#bx"/><use transform="matrix(0.048148148148148155,0,0,0.048148148148148155,59.51111111111112,0)" xlink:href="#by"/></g><g id="ab"><use transform="matrix(0.048148148148148155,0,0,0.048148148148148155,0,0)" xlink:href="#aR"/><use transform="matrix(0.048148148148148155,0,0,0.048148148148148155,4.814814814814816,0)" xlink:href="#bj"/><use transform="matrix(0.03370370370370371,0,0,0.03370370370370371,19.211111111111116,2.4266666666666667)" xlink:href="#bz"/></g><g id="ac"><use transform="matrix(0.048148148148148155,0,0,0.048148148148148155,0,0)" xlink:href="#aR"/><use transform="matrix(0.048148148148148155,0,0,0.048148148148148155,4.814814814814816,0)" xlink:href="#bj"/><use transform="matrix(0.03370370370370371,0,0,0.03370370370370371,19.211111111111116,2.4266666666666667)" xlink:href="#ba"/><use transform="matrix(0.048148148148148155,0,0,0.048148148148148155,25.951851851851856,0)" xlink:href="#br"/></g><g id="ad"><use transform="matrix(0.048148148148148155,0,0,0.048148148148148155,0,0)" xlink:href="#bm"/><use transform="matrix(0.048148148148148155,0,0,0.048148148148148155,10.544444444444446,0)" xlink:href="#bD"/><use transform="matrix(0.048148148148148155,0,0,0.048148148148148155,22.1,0)" xlink:href="#bp"/><use transform="matrix(0.048148148148148155,0,0,0.048148148148148155,36.4962962962963,0)" xlink:href="#bF"/><use transform="matrix(0.048148148148148155,0,0,0.048148148148148155,48.05185185185186,0)" xlink:href="#bD"/><use transform="matrix(0.048148148148148155,0,0,0.048148148148148155,59.607407407407415,0)" xlink:href="#bs"/><use transform="matrix(0.048148148148148155,0,0,0.048148148148148155,72.07777777777778,0)" xlink:href="#aN"/><use transform="matrix(0.048148148148148155,0,0,0.048148148148148155,82.33333333333334,0)" xlink:href="#bm"/><use transform="matrix(0.048148148148148155,0,0,0.048148148148148155,92.8777777777778,0)" xlink:href="#bt"/><use transform="matrix(0.048148148148148155,0,0,0.048148148148148155,105.34814814814817,0)" xlink:href="#bs"/><use transform="matrix(0.048148148148148155,0,0,0.048148148148148155,117.81851851851853,0)" xlink:href="#bD"/><use transform="matrix(0.048148148148148155,0,0,0.048148148148148155,129.3740740740741,0)" xlink:href="#bE"/><use transform="matrix(0.048148148148148155,0,0,0.048148148148148155,139.0037037037037,0)" xlink:href="#bp"/><use transform="matrix(0.048148148148148155,0,0,0.048148148148148155,153.4,0)" xlink:href="#bD"/><use transform="matrix(0.048148148148148155,0,0,0.048148148148148155,164.95555555555558,0)" xlink:href="#aN"/><use transform="matrix(0.048148148148148155,0,0,0.048148148148148155,176.51111111111112,0)" xlink:href="#aO"/><use transform="matrix(0.048148148148148155,0,0,0.048148148148148155,188.06666666666666,0)" xlink:href="#bt"/><use transform="matrix(0.048148148148148155,0,0,0.048148148148148155,200.537037037037,0)" xlink:href="#bs"/><use transform="matrix(0.048148148148148155,0,0,0.048148148148148155,213.00740740740738,0)" xlink:href="#bD"/><use transform="matrix(0.048148148148148155,0,0,0.048148148148148155,224.56296296296296,0)" xlink:href="#aP"/></g><g id="ae"><use transform="matrix(0.048148148148148155,0,0,0.048148148148148155,0,0)" xlink:href="#bz"/><use transform="matrix(0.048148148148148155,0,0,0.048148148148148155,9.629629629629632,0)" xlink:href="#br"/></g><g id="af"><use transform="matrix(0.048148148148148155,0,0,0.048148148148148155,0,0)" xlink:href="#bo"/><use transform="matrix(0.048148148148148155,0,0,0.048148148148148155,5.72962962962963,0)" xlink:href="#bm"/><use transform="matrix(0.03370370370370371,0,0,0.03370370370370371,16.274074074074075,2.4266666666666667)" xlink:href="#aR"/><use transform="matrix(0.03370370370370371,0,0,0.03370370370370371,19.644444444444446,2.4266666666666667)" xlink:href="#bj"/><use transform="matrix(0.048148148148148155,0,0,0.048148148148148155,29.721851851851856,0)" xlink:href="#br"/></g><g id="ag"><use transform="matrix(0.05,0,0,0.05,0,0)" xlink:href="#aX"/><use transform="matrix(0.05,0,0,0.05,10,0)" xlink:href="#aV"/><use transform="matrix(0.05,0,0,0.05,20,0)" xlink:href="#aQ"/><use transform="matrix(0.05,0,0,0.05,30,0)" xlink:href="#bl"/></g><g id="ah"><use transform="matrix(0.05,0,0,0.05,0,0)" xlink:href="#bo"/><use transform="matrix(0.05,0,0,0.05,5.95,0)" xlink:href="#bu"/><use transform="matrix(0.05,0,0,0.05,14.949999999999998,0)" xlink:href="#bg"/><use transform="matrix(0.05,0,0,0.05,18.9,0)" xlink:href="#br"/></g><g id="ai"><use transform="matrix(0.048148148148148155,0,0,0.048148148148148155,0,0)" xlink:href="#bm"/><use transform="matrix(0.03370370370370371,0,0,0.03370370370370371,10.544444444444446,2.4266666666666667)" xlink:href="#bu"/><use transform="matrix(0.03370370370370371,0,0,0.03370370370370371,16.611111111111114,2.4266666666666667)" xlink:href="#bg"/></g><g id="aj"><use transform="matrix(0.048148148148148155,0,0,0.048148148148148155,0,0)" xlink:href="#bv"/><use transform="matrix(0.048148148148148155,0,0,0.048148148148148155,12.470370370370372,0)" xlink:href="#bd"/><use transform="matrix(0.048148148148148155,0,0,0.048148148148148155,22.1,0)" xlink:href="#aT"/><use transform="matrix(0.048148148148148155,0,0,0.048148148148148155,31.729629629629635,0)" xlink:href="#aW"/><use transform="matrix(0.048148148148148155,0,0,0.048148148148148155,37.45925925925926,0)" xlink:href="#aT"/></g><g id="ak"><use transform="matrix(0.048148148148148155,0,0,0.048148148148148155,0,0)" xlink:href="#bu"/><use transform="matrix(0.048148148148148155,0,0,0.048148148148148155,8.666666666666668,0)" xlink:href="#bg"/></g><g id="al"><use transform="matrix(0.048148148148148155,0,0,0.048148148148148155,0,0)" xlink:href="#bo"/><use transform="matrix(0.048148148148148155,0,0,0.048148148148148155,5.72962962962963,0)" xlink:href="#bu"/><use transform="matrix(0.048148148148148155,0,0,0.048148148148148155,14.396296296296299,0)" xlink:href="#bg"/><use transform="matrix(0.03370370370370371,0,0,0.03370370370370371,18.200000000000003,2.4266666666666667)" xlink:href="#aY"/></g><path d="M18-100v-36l175-74v27L42-118l151 64v27" id="bG"/><use transform="matrix(0.048148148148148155,0,0,0.048148148148148155,0,0)" xlink:href="#bG" id="am"/><use transform="matrix(0.048148148148148155,0,0,0.048148148148148155,0,0)" xlink:href="#bx" id="an"/><g id="ao"><use transform="matrix(0.048148148148148155,0,0,0.048148148148148155,0,0)" xlink:href="#bu"/><use transform="matrix(0.048148148148148155,0,0,0.048148148148148155,8.666666666666668,0)" xlink:href="#aV"/><use transform="matrix(0.048148148148148155,0,0,0.048148148148148155,18.296296296296298,0)" xlink:href="#bg"/><use transform="matrix(0.048148148148148155,0,0,0.048148148148148155,22.1,0)" xlink:href="#aR"/><use transform="matrix(0.048148148148148155,0,0,0.048148148148148155,26.914814814814818,0)" xlink:href="#br"/></g><path d="M234-2c-28 10-62 0-77-18C117 19 8 12 13-65c3-43 29-61 60-76-25-40-17-114 47-108 35 3 59 15 59 50 0 44-40 53-71 69 14 26 32 50 51 72 14-21 24-43 30-72l26 8c-9 33-21 57-38 82 13 13 33 22 57 15v23zM97-151c25-10 52-18 56-48-1-18-13-29-33-29-42 0-39 50-23 77zM42-66c-3 51 71 58 98 28-20-24-41-51-56-80-23 10-40 24-42 52" id="bH"/><g id="ap"><use transform="matrix(0.048148148148148155,0,0,0.048148148148148155,0,0)" xlink:href="#bH"/><use transform="matrix(0.048148148148148155,0,0,0.048148148148148155,11.555555555555557,0)" xlink:href="#bH"/></g><g id="aq"><use transform="matrix(0.048148148148148155,0,0,0.048148148148148155,0,0)" xlink:href="#bo"/><use transform="matrix(0.048148148148148155,0,0,0.048148148148148155,5.72962962962963,0)" xlink:href="#aR"/><use transform="matrix(0.03370370370370371,0,0,0.03370370370370371,10.544444444444446,2.4266666666666667)" xlink:href="#aY"/></g><path d="M18-27v-27l151-64-151-65v-27l175 74v36" id="bI"/><use transform="matrix(0.048148148148148155,0,0,0.048148148148148155,0,0)" xlink:href="#bI" id="ar"/><path d="M54-142c48-35 137-8 131 61C196 18 31 33 14-55l32-4c7 23 22 37 52 37 35-1 51-22 54-58 4-55-73-65-99-34H22l8-134h141v27H59" id="bJ"/><path d="M101-251c68 0 85 55 85 127S166 4 100 4C33 4 14-52 14-124c0-73 17-127 87-127zm-1 229c47 0 54-49 54-102s-4-102-53-102c-51 0-55 48-55 102 0 53 5 102 54 102" id="bK"/><g id="as"><use transform="matrix(0.048148148148148155,0,0,0.048148148148148155,0,0)" xlink:href="#bx"/><use transform="matrix(0.048148148148148155,0,0,0.048148148148148155,9.629629629629632,0)" xlink:href="#bJ"/><use transform="matrix(0.048148148148148155,0,0,0.048148148148148155,19.259259259259263,0)" xlink:href="#bK"/><use transform="matrix(0.048148148148148155,0,0,0.048148148148148155,28.888888888888893,0)" xlink:href="#bK"/><use transform="matrix(0.048148148148148155,0,0,0.048148148148148155,38.518518518518526,0)" xlink:href="#br"/></g><g id="at"><use transform="matrix(0.048148148148148155,0,0,0.048148148148148155,0,0)" xlink:href="#bo"/><use transform="matrix(0.048148148148148155,0,0,0.048148148148148155,5.72962962962963,0)" xlink:href="#aR"/><use transform="matrix(0.03370370370370371,0,0,0.03370370370370371,10.544444444444446,2.4266666666666667)" xlink:href="#aY"/></g><g id="au"><use transform="matrix(0.048148148148148155,0,0,0.048148148148148155,0,0)" xlink:href="#bv"/><use transform="matrix(0.048148148148148155,0,0,0.048148148148148155,12.470370370370372,0)" xlink:href="#bd"/><use transform="matrix(0.048148148148148155,0,0,0.048148148148148155,22.1,0)" xlink:href="#aT"/><use transform="matrix(0.048148148148148155,0,0,0.048148148148148155,31.729629629629635,0)" xlink:href="#aW"/><use transform="matrix(0.048148148148148155,0,0,0.048148148148148155,37.45925925925926,0)" xlink:href="#aT"/></g><use transform="matrix(0.048148148148148155,0,0,0.048148148148148155,0,0)" xlink:href="#aY" id="av"/><g id="aw"><use transform="matrix(0.048148148148148155,0,0,0.048148148148148155,0,0)" xlink:href="#bj"/><use transform="matrix(0.048148148148148155,0,0,0.048148148148148155,14.396296296296299,0)" xlink:href="#aY"/><use transform="matrix(0.048148148148148155,0,0,0.048148148148148155,18.200000000000003,0)" xlink:href="#ba"/><use transform="matrix(0.048148148148148155,0,0,0.048148148148148155,27.829629629629633,0)" xlink:href="#bo"/><use transform="matrix(0.048148148148148155,0,0,0.048148148148148155,33.559259259259264,0)" xlink:href="#bx"/><use transform="matrix(0.048148148148148155,0,0,0.048148148148148155,43.1888888888889,0)" xlink:href="#by"/></g><use transform="matrix(0.048148148148148155,0,0,0.048148148148148155,0,0)" xlink:href="#bz" id="ax"/><g id="ay"><use transform="matrix(0.048148148148148155,0,0,0.048148148148148155,0,0)" xlink:href="#by"/><use transform="matrix(0.048148148148148155,0,0,0.048148148148148155,4.814814814814816,0)" xlink:href="#by"/><use transform="matrix(0.048148148148148155,0,0,0.048148148148148155,9.629629629629632,0)" xlink:href="#by"/></g><g id="az"><use transform="matrix(0.048148148148148155,0,0,0.048148148148148155,0,0)" xlink:href="#ba"/><use transform="matrix(0.048148148148148155,0,0,0.048148148148148155,9.629629629629632,0)" xlink:href="#br"/></g><g id="aA"><use transform="matrix(0.048148148148148155,0,0,0.048148148148148155,0,0)" xlink:href="#bq"/><use transform="matrix(0.048148148148148155,0,0,0.048148148148148155,11.555555555555557,0)" xlink:href="#bB"/><use transform="matrix(0.048148148148148155,0,0,0.048148148148148155,25.03703703703704,0)" xlink:href="#aX"/><use transform="matrix(0.048148148148148155,0,0,0.048148148148148155,33.36666666666667,0)" xlink:href="#bm"/><use transform="matrix(0.048148148148148155,0,0,0.048148148148148155,42.611111111111114,0)" xlink:href="#aN"/><use transform="matrix(0.048148148148148155,0,0,0.048148148148148155,54.16666666666667,0)" xlink:href="#bC"/><use transform="matrix(0.048148148148148155,0,0,0.048148148148148155,67.64814814814815,0)" xlink:href="#bD"/><use transform="matrix(0.048148148148148155,0,0,0.048148148148148155,79.20370370370371,0)" xlink:href="#bE"/><use transform="matrix(0.048148148148148155,0,0,0.048148148148148155,88.83333333333334,0)" xlink:href="#aX"/><use transform="matrix(0.048148148148148155,0,0,0.048148148148148155,98.46296296296298,0)" xlink:href="#bB"/><use transform="matrix(0.048148148148148155,0,0,0.048148148148148155,111.94444444444446,0)" xlink:href="#aN"/><use transform="matrix(0.048148148148148155,0,0,0.048148148148148155,123.50000000000001,0)" xlink:href="#aP"/></g><path d="M126-127c33 6 58 20 58 59 0 88-139 92-164 29-3-8-5-16-6-25l32-3c6 27 21 44 54 44 32 0 52-15 52-46 0-38-36-46-79-43v-28c39 1 72-4 72-42 0-27-17-43-46-43-28 0-47 15-49 41l-32-3c6-42 35-63 81-64 48-1 79 21 79 65 0 36-21 52-52 59" id="bL"/><g id="aB"><use transform="matrix(0.048148148148148155,0,0,0.048148148148148155,0,0)" xlink:href="#bL"/><use transform="matrix(0.048148148148148155,0,0,0.048148148148148155,9.629629629629632,0)" xlink:href="#br"/></g><g id="aC"><use transform="matrix(0.048148148148148155,0,0,0.048148148148148155,0,0)" xlink:href="#bo"/><use transform="matrix(0.048148148148148155,0,0,0.048148148148148155,5.72962962962963,0)" xlink:href="#bm"/><use transform="matrix(0.03370370370370371,0,0,0.03370370370370371,16.274074074074075,2.4266666666666667)" xlink:href="#bu"/><use transform="matrix(0.03370370370370371,0,0,0.03370370370370371,22.340740740740742,2.4266666666666667)" xlink:href="#bg"/><use transform="matrix(0.048148148148148155,0,0,0.048148148148148155,25.003333333333334,0)" xlink:href="#br"/></g><g id="aD"><use transform="matrix(0.05,0,0,0.05,0,0)" xlink:href="#bh"/><use transform="matrix(0.05,0,0,0.05,12.950000000000001,0)" xlink:href="#bf"/><use transform="matrix(0.05,0,0,0.05,21.950000000000003,0)" xlink:href="#bc"/><use transform="matrix(0.05,0,0,0.05,30.950000000000003,0)" xlink:href="#bg"/><use transform="matrix(0.05,0,0,0.05,34.900000000000006,0)" xlink:href="#aT"/></g><g id="aE"><use transform="matrix(0.04938271604938272,0,0,0.04938271604938272,0,0)" xlink:href="#bh"/><use transform="matrix(0.04938271604938272,0,0,0.04938271604938272,12.790123456790125,0)" xlink:href="#bf"/><use transform="matrix(0.04938271604938272,0,0,0.04938271604938272,21.679012345679013,0)" xlink:href="#bc"/><use transform="matrix(0.04938271604938272,0,0,0.04938271604938272,30.567901234567906,0)" xlink:href="#bg"/><use transform="matrix(0.04938271604938272,0,0,0.04938271604938272,34.46913580246914,0)" xlink:href="#aT"/></g><g id="aF"><use transform="matrix(0.04938271604938272,0,0,0.04938271604938272,0,0)" xlink:href="#bc"/><use transform="matrix(0.04938271604938272,0,0,0.04938271604938272,8.88888888888889,0)" xlink:href="#aV"/><use transform="matrix(0.04938271604938272,0,0,0.04938271604938272,18.765432098765434,0)" xlink:href="#ba"/><use transform="matrix(0.04938271604938272,0,0,0.04938271604938272,28.641975308641978,0)" xlink:href="#aS"/><use transform="matrix(0.04938271604938272,0,0,0.04938271604938272,37.53086419753087,0)" xlink:href="#aY"/><use transform="matrix(0.04938271604938272,0,0,0.04938271604938272,41.4320987654321,0)" xlink:href="#aS"/><use transform="matrix(0.04938271604938272,0,0,0.04938271604938272,50.32098765432099,0)" xlink:href="#aR"/><use transform="matrix(0.04938271604938272,0,0,0.04938271604938272,55.25925925925927,0)" xlink:href="#aS"/></g><g id="aG"><use transform="matrix(0.04938271604938272,0,0,0.04938271604938272,0,0)" xlink:href="#aV"/><use transform="matrix(0.04938271604938272,0,0,0.04938271604938272,9.876543209876544,0)" xlink:href="#aU"/></g><g id="aH"><use transform="matrix(0.04938271604938272,0,0,0.04938271604938272,0,0)" xlink:href="#bl"/><use transform="matrix(0.04938271604938272,0,0,0.04938271604938272,9.876543209876544,0)" xlink:href="#aQ"/><use transform="matrix(0.04938271604938272,0,0,0.04938271604938272,19.75308641975309,0)" xlink:href="#aR"/><use transform="matrix(0.04938271604938272,0,0,0.04938271604938272,24.69135802469136,0)" xlink:href="#aQ"/><use transform="matrix(0.04938271604938272,0,0,0.04938271604938272,34.567901234567906,0)" xlink:href="#aZ"/><use transform="matrix(0.04938271604938272,0,0,0.04938271604938272,40.44444444444445,0)" xlink:href="#bk"/><use transform="matrix(0.04938271604938272,0,0,0.04938271604938272,50.320987654320994,0)" xlink:href="#aV"/><use transform="matrix(0.04938271604938272,0,0,0.04938271604938272,60.19753086419754,0)" xlink:href="#aY"/><use transform="matrix(0.04938271604938272,0,0,0.04938271604938272,64.09876543209877,0)" xlink:href="#ba"/><use transform="matrix(0.04938271604938272,0,0,0.04938271604938272,73.97530864197532,0)" xlink:href="#aR"/><use transform="matrix(0.04938271604938272,0,0,0.04938271604938272,78.9135802469136,0)" xlink:href="#aS"/></g><g id="aI"><use transform="matrix(0.04938271604938272,0,0,0.04938271604938272,0,0)" xlink:href="#aQ"/><use transform="matrix(0.04938271604938272,0,0,0.04938271604938272,9.876543209876544,0)" xlink:href="#aR"/></g><g id="aJ"><use transform="matrix(0.04938271604938272,0,0,0.04938271604938272,0,0)" xlink:href="#bl"/><use transform="matrix(0.04938271604938272,0,0,0.04938271604938272,9.876543209876544,0)" xlink:href="#aY"/><use transform="matrix(0.04938271604938272,0,0,0.04938271604938272,13.777777777777779,0)" xlink:href="#aU"/><use transform="matrix(0.04938271604938272,0,0,0.04938271604938272,18.370370370370374,0)" xlink:href="#aU"/><use transform="matrix(0.04938271604938272,0,0,0.04938271604938272,23.308641975308646,0)" xlink:href="#aT"/><use transform="matrix(0.04938271604938272,0,0,0.04938271604938272,33.18518518518519,0)" xlink:href="#aW"/><use transform="matrix(0.04938271604938272,0,0,0.04938271604938272,39.061728395061735,0)" xlink:href="#aT"/><use transform="matrix(0.04938271604938272,0,0,0.04938271604938272,48.93827160493828,0)" xlink:href="#ba"/><use transform="matrix(0.04938271604938272,0,0,0.04938271604938272,58.81481481481482,0)" xlink:href="#aR"/></g><g id="aK"><use transform="matrix(0.04938271604938272,0,0,0.04938271604938272,0,0)" xlink:href="#aR"/><use transform="matrix(0.04938271604938272,0,0,0.04938271604938272,4.938271604938272,0)" xlink:href="#aY"/><use transform="matrix(0.04938271604938272,0,0,0.04938271604938272,8.839506172839506,0)" xlink:href="#bj"/><use transform="matrix(0.04938271604938272,0,0,0.04938271604938272,23.60493827160494,0)" xlink:href="#aT"/></g><g id="aL"><use transform="matrix(0.04938271604938272,0,0,0.04938271604938272,0,0)" xlink:href="#aY"/><use transform="matrix(0.04938271604938272,0,0,0.04938271604938272,3.901234567901235,0)" xlink:href="#ba"/><use transform="matrix(0.04938271604938272,0,0,0.04938271604938272,13.777777777777779,0)" xlink:href="#aR"/><use transform="matrix(0.04938271604938272,0,0,0.04938271604938272,18.71604938271605,0)" xlink:href="#aT"/><use transform="matrix(0.04938271604938272,0,0,0.04938271604938272,28.592592592592595,0)" xlink:href="#aW"/><use transform="matrix(0.04938271604938272,0,0,0.04938271604938272,34.46913580246914,0)" xlink:href="#bu"/><use transform="matrix(0.04938271604938272,0,0,0.04938271604938272,43.358024691358025,0)" xlink:href="#aQ"/><use transform="matrix(0.04938271604938272,0,0,0.04938271604938272,53.23456790123457,0)" xlink:href="#bg"/><use transform="matrix(0.04938271604938272,0,0,0.04938271604938272,57.135802469135804,0)" xlink:href="#aS"/></g></defs></g></svg>