<svg xmlns="http://www.w3.org/2000/svg" xmlns:xlink="http://www.w3.org/1999/xlink" xmlns:lucid="lucid" width="1320" height="945.2"><g transform="translate(-40 -160)" lucid:page-tab-id="0_0"><path d="M0 0h1870.87v1322.83H0z" fill="#fff"/><path d="M60 180h1280v500H60zM60 700h1280v385.2H60z" stroke="#000" stroke-width="2" fill="#fff"/><path d="M122.1 336.5h180v120h-180z" stroke="#000" stroke-width="2" fill="#fff"/><use xlink:href="#a" transform="matrix(1,0,0,1,134.10000000000014,348.5124999999996) translate(7.575000000000003 41.4)"/><use xlink:href="#b" transform="matrix(1,0,0,1,134.10000000000014,348.5124999999996) translate(60.525000000000006 41.4)"/><use xlink:href="#c" transform="matrix(1,0,0,1,134.10000000000014,348.5124999999996) translate(127.47500000000001 41.4)"/><use xlink:href="#d" transform="matrix(1,0,0,1,134.10000000000014,348.5124999999996) translate(19.125 63)"/><use xlink:href="#e" transform="matrix(1,0,0,1,134.10000000000014,348.5124999999996) translate(67.975 63)"/><path d="M642.1 267.4h180v60h-180z" stroke="#000" stroke-width="2" fill="#fff"/><use xlink:href="#f" transform="matrix(1,0,0,1,654.1000000000001,279.41250000000014) translate(14.599999999999994 21.15)"/><use xlink:href="#g" transform="matrix(1,0,0,1,654.1000000000001,279.41250000000014) translate(100.45 21.15)"/><path d="M642.1 367.4h180v60h-180z" stroke="#000" stroke-width="2" fill="#fff"/><use xlink:href="#h" transform="matrix(1,0,0,1,654.1000000000001,379.41250000000014) translate(25.574999999999996 21.15)"/><use xlink:href="#g" transform="matrix(1,0,0,1,654.1000000000001,379.41250000000014) translate(89.475 21.15)"/><path d="M642.1 463.8h180V531h-180z" stroke="#000" stroke-width="2" fill="#fff"/><use xlink:href="#i" transform="matrix(1,0,0,1,654.1000000000001,475.8125000000002) translate(8.049999999999997 25.4)"/><use xlink:href="#j" transform="matrix(1,0,0,1,654.1000000000001,475.8125000000002) translate(13.049999999999997 25.4)"/><use xlink:href="#g" transform="matrix(1,0,0,1,654.1000000000001,475.8125000000002) translate(107 25.4)"/><path d="M372.1 263.8h180V331h-180z" stroke="#000" stroke-width="2" fill="#fff"/><use xlink:href="#k" transform="matrix(1,0,0,1,384.10000000000014,275.8125000000002) translate(45.05 14.4)"/><use xlink:href="#l" transform="matrix(1,0,0,1,384.10000000000014,275.8125000000002) translate(27.599999999999994 36)"/><path d="M372.1 363.8h180V431h-180z" stroke="#000" stroke-width="2" fill="#fff"/><use xlink:href="#m" transform="matrix(1,0,0,1,384.10000000000014,375.8125000000002) translate(55.55 25.4)"/><path d="M372.1 463.8h180V531h-180z" stroke="#000" stroke-width="2" fill="#fff"/><use xlink:href="#n" transform="matrix(1,0,0,1,384.10000000000014,475.8125000000002) translate(25.974999999999994 14.4)"/><use xlink:href="#o" transform="matrix(1,0,0,1,384.10000000000014,475.8125000000002) translate(70.175 14.4)"/><use xlink:href="#p" transform="matrix(1,0,0,1,384.10000000000014,475.8125000000002) translate(27.599999999999994 36)"/><path d="M718.9 567.4h276.8V643H718.9z" stroke="#000" stroke-width="2" fill="#fff"/><use xlink:href="#q" transform="matrix(1,0,0,1,730.9000000000001,579.4125000000004) translate(8.025000000000006 14.4)"/><use xlink:href="#r" transform="matrix(1,0,0,1,730.9000000000001,579.4125000000004) translate(93.87500000000001 14.4)"/><use xlink:href="#s" transform="matrix(1,0,0,1,730.9000000000001,579.4125000000004) translate(140.82500000000002 14.4)"/><use xlink:href="#t" transform="matrix(1,0,0,1,730.9000000000001,579.4125000000004) translate(181.07500000000002 14.4)"/><use xlink:href="#u" transform="matrix(1,0,0,1,730.9000000000001,579.4125000000004) translate(199.025 14.4)"/><use xlink:href="#v" transform="matrix(1,0,0,1,730.9000000000001,579.4125000000004) translate(14.674999999999983 36)"/><use xlink:href="#w" transform="matrix(1,0,0,1,730.9000000000001,579.4125000000004) translate(109.52499999999999 36)"/><use xlink:href="#x" transform="matrix(1,0,0,1,730.9000000000001,579.4125000000004) translate(157.475 36)"/><use xlink:href="#y" transform="matrix(1,0,0,1,730.9000000000001,579.4125000000004) translate(101.525 57.6)"/><path d="M1037.9 217h240v40.84h-240z" stroke="#000" stroke-width="2" fill="#fff"/><use xlink:href="#z" transform="matrix(1,0,0,1,1049.8999999999999,228.98749999999995) translate(35.57499999999999 14.4)"/><use xlink:href="#A" transform="matrix(1,0,0,1,1049.8999999999999,228.98749999999995) translate(100.52499999999999 14.4)"/><path d="M304.1 396.5h33v-99.1h15.5" stroke="#000" stroke-width="2" fill="none"/><path d="M304.13 397.5h-1.03v-2h1.03z"/><path d="M367.86 297.4l-14.26 4.65v-9.27z" stroke="#000" stroke-width="2"/><path d="M304.1 396.5h48.5" stroke="#000" stroke-width="2" fill="none"/><path d="M304.13 397.5h-1.03v-2h1.03z"/><path d="M367.86 396.5l-14.26 4.65v-9.27z" stroke="#000" stroke-width="2"/><path d="M304.1 396.5h33v100.9h15.5" stroke="#000" stroke-width="2" fill="none"/><path d="M304.13 397.5h-1.03v-2h1.03z"/><path d="M367.86 497.4l-14.26 4.65v-9.27z" stroke="#000" stroke-width="2"/><path d="M554.1 397.4h43v-100h25.5" stroke="#000" stroke-width="2" fill="none"/><path d="M554.13 398.4h-1.03v-2h1.03z"/><path d="M637.86 297.4l-14.26 4.65v-9.27z" stroke="#000" stroke-width="2"/><path d="M554.1 397.4h68.5" stroke="#000" stroke-width="2" fill="none"/><path d="M554.13 398.4h-1.03v-2h1.03z"/><path d="M637.86 397.4l-14.26 4.65v-9.27z" stroke="#000" stroke-width="2"/><path d="M554.1 397.4h43v100h25.5" stroke="#000" stroke-width="2" fill="none"/><path d="M554.13 398.4h-1.03v-2h1.03z"/><path d="M637.86 497.4l-14.26 4.65v-9.27z" stroke="#000" stroke-width="2"/><path d="M1037.9 277h240v40.84h-240z" stroke="#000" stroke-width="2" fill="#fff"/><use xlink:href="#B" transform="matrix(1,0,0,1,1049.8999999999999,288.98749999999995) translate(35.625 14.4)"/><use xlink:href="#A" transform="matrix(1,0,0,1,1049.8999999999999,288.98749999999995) translate(100.475 14.4)"/><path d="M1037.9 337h240v40.84h-240z" stroke="#000" stroke-width="2" fill="#fff"/><use xlink:href="#C" transform="matrix(1,0,0,1,1049.8999999999999,348.98749999999995) translate(15.149999999999991 14.4)"/><use xlink:href="#A" transform="matrix(1,0,0,1,1049.8999999999999,348.98749999999995) translate(120.95 14.4)"/><path d="M1037.9 397h240v40.84h-240z" stroke="#000" stroke-width="2" fill="#fff"/><use xlink:href="#B" transform="matrix(1,0,0,1,1049.8999999999999,408.98749999999995) translate(46.125 14.4)"/><use xlink:href="#D" transform="matrix(1,0,0,1,1049.8999999999999,408.98749999999995) translate(110.975 14.4)"/><path d="M1037.9 457h240v40.84h-240z" stroke="#000" stroke-width="2" fill="#fff"/><use xlink:href="#z" transform="matrix(1,0,0,1,1049.8999999999999,468.98749999999995) translate(46.074999999999996 14.4)"/><use xlink:href="#D" transform="matrix(1,0,0,1,1049.8999999999999,468.98749999999995) translate(111.025 14.4)"/><path d="M1037.9 517h240v40.84h-240z" stroke="#000" stroke-width="2" fill="#fff"/><use xlink:href="#E" transform="matrix(1,0,0,1,1049.8999999999999,528.9875) translate(88.4 14.4)"/><path d="M824.1 297.4H930v-60h88.4" stroke="#000" stroke-width="2" fill="none"/><path d="M824.13 298.4h-1.03v-2h1.03z"/><path d="M1033.66 237.4l-14.26 4.65v-9.27z" stroke="#000" stroke-width="2"/><path d="M824.1 297.4H930v60h88.4" stroke="#000" stroke-width="2" fill="none"/><path d="M824.13 298.4h-1.03v-2h1.03z"/><path d="M1033.66 357.4l-14.26 4.65v-9.27z" stroke="#000" stroke-width="2"/><path d="M824.1 297.4H930v120h88.4" stroke="#000" stroke-width="2" fill="none"/><path d="M824.13 298.4h-1.03v-2h1.03z"/><path d="M1033.66 417.4l-14.26 4.65v-9.27z" stroke="#000" stroke-width="2"/><path d="M824.1 297.4H930v180h88.4" stroke="#000" stroke-width="2" fill="none"/><path d="M824.13 298.4h-1.03v-2h1.03z"/><path d="M1033.66 477.4l-14.26 4.65v-9.27z" stroke="#000" stroke-width="2"/><path d="M824.1 297.4H930v240h88.4" stroke="#000" stroke-width="2" fill="none"/><path d="M824.13 298.4h-1.03v-2h1.03z"/><path d="M1033.66 537.4l-14.26 4.65v-9.27z" stroke="#000" stroke-width="2"/><path d="M824.1 297.4h194.3" stroke="#000" stroke-width="2" fill="none"/><path d="M824.13 298.4h-1.03v-2h1.03z"/><path d="M1033.66 297.4l-14.26 4.65v-9.27z" stroke="#000" stroke-width="2"/><path d="M824.1 397.4h33.2v150.5" stroke="#000" stroke-width="2" fill="none"/><path d="M824.13 398.4h-1.03v-2h1.03z"/><path d="M857.3 563.18l-4.64-14.27h9.28z" stroke="#000" stroke-width="2"/><path d="M824.1 497.4h33.2v50.5" stroke="#000" stroke-width="2" fill="none"/><path d="M824.13 498.4h-1.03v-2h1.03z"/><path d="M857.3 563.18l-4.64-14.27h9.28z" stroke="#000" stroke-width="2"/><path d="M122.1 336.5h180v120h-180z" stroke="#000" stroke-width="2" fill="#fff"/><use xlink:href="#a" transform="matrix(1,0,0,1,134.10000000000014,348.5124999999996) translate(7.575000000000003 41.4)"/><use xlink:href="#b" transform="matrix(1,0,0,1,134.10000000000014,348.5124999999996) translate(60.525000000000006 41.4)"/><use xlink:href="#c" transform="matrix(1,0,0,1,134.10000000000014,348.5124999999996) translate(127.47500000000001 41.4)"/><use xlink:href="#d" transform="matrix(1,0,0,1,134.10000000000014,348.5124999999996) translate(19.125 63)"/><use xlink:href="#e" transform="matrix(1,0,0,1,134.10000000000014,348.5124999999996) translate(67.975 63)"/><path d="M560 760h180v65.2H560z" stroke="#000" stroke-width="2" fill="#fff"/><use xlink:href="#z" transform="matrix(1,0,0,1,572,772) translate(5.574999999999989 24.9)"/><use xlink:href="#F" transform="matrix(1,0,0,1,572,772) translate(70.52499999999999 24.9)"/><path d="M742 792.6h18.5" stroke="#000" stroke-width="2" fill="none"/><path d="M742.03 793.6H741v-2h1.03z"/><path d="M775.76 792.6l-14.26 4.64v-9.28z" stroke="#000" stroke-width="2"/><path d="M780 760h230v65.2H780z" stroke="#000" stroke-width="2" fill="#fff"/><use xlink:href="#G" transform="matrix(1,0,0,1,792,772) translate(16.30925925925925 24.366666666666667)"/><use xlink:href="#H" transform="matrix(1,0,0,1,792,772) translate(58.87222222222222 24.366666666666667)"/><use xlink:href="#I" transform="matrix(1,0,0,1,792,772) translate(78.13148148148149 24.366666666666667)"/><use xlink:href="#J" transform="matrix(1,0,0,1,792,772) translate(131.9611111111111 24.366666666666667)"/><path d="M1050 760h260v65.2h-260z" stroke="#000" stroke-width="2" fill="#fff"/><use xlink:href="#K" transform="matrix(1,0,0,1,1062,772) translate(24.568518518518502 13.866666666666669)"/><use xlink:href="#L" transform="matrix(1,0,0,1,1062,772) translate(63.78518518518518 34.66666666666667)"/><use xlink:href="#M" transform="matrix(1,0,0,1,1062,772) translate(127.05185185185185 34.66666666666667)"/><path d="M1012 792.6h18.5" stroke="#000" stroke-width="2" fill="none"/><path d="M1012.03 793.6H1011v-2h1.03z"/><path d="M1045.76 792.6l-14.26 4.64v-9.28z" stroke="#000" stroke-width="2"/><path d="M560 862.6h180v67.2H560z" stroke="#000" stroke-width="2" fill="#fff"/><use xlink:href="#N" transform="matrix(1,0,0,1,572,874.5999999999999) translate(27.599999999999994 14.4)"/><use xlink:href="#A" transform="matrix(1,0,0,1,572,874.5999999999999) translate(38.05 36)"/><path d="M742 896.2h17.5c.28 0 .5-.22.5-.5s.22-.5.5-.5" stroke="#000" stroke-width="2" fill="none"/><path d="M742.03 897.2H741v-2h1.03z"/><path d="M775.76 895.2l-14.26 4.64v-9.28z" stroke="#000" stroke-width="2"/><path d="M780 862.6h230v65.2H780z" stroke="#000" stroke-width="2" fill="#fff"/><g><use xlink:href="#G" transform="matrix(1,0,0,1,792,874.5999999999999) translate(44.18703703703703 13.866666666666669)"/><use xlink:href="#H" transform="matrix(1,0,0,1,792,874.5999999999999) translate(86.75 13.866666666666669)"/><use xlink:href="#O" transform="matrix(1,0,0,1,792,874.5999999999999) translate(106.00925925925927 13.866666666666669)"/><use xlink:href="#P" transform="matrix(1,0,0,1,792,874.5999999999999) translate(54.46666666666666 34.66666666666667)"/></g><path d="M1050 862.6h260v65.2h-260z" stroke="#000" stroke-width="2" fill="#fff"/><g><use xlink:href="#Q" transform="matrix(1,0,0,1,1062,874.5999999999999) translate(-0.5166666666666657 14.066666666666665)"/><use xlink:href="#L" transform="matrix(1,0,0,1,1062,874.5999999999999) translate(63.78518518518518 34.86666666666667)"/><use xlink:href="#M" transform="matrix(1,0,0,1,1062,874.5999999999999) translate(127.05185185185185 34.86666666666667)"/></g><path d="M1012 895.2h18.5" stroke="#000" stroke-width="2" fill="none"/><path d="M1012.03 896.2H1011v-2h1.03z"/><path d="M1045.76 895.2l-14.26 4.64v-9.28z" stroke="#000" stroke-width="2"/><path d="M560 962.6h180v65.2H560z" stroke="#000" stroke-width="2" fill="#fff"/><g><use xlink:href="#z" transform="matrix(1,0,0,1,572,974.6000000000003) translate(25.525 24.9)"/><use xlink:href="#R" transform="matrix(1,0,0,1,572,974.6000000000003) translate(90.475 24.9)"/></g><path d="M742 995.2h18.5" stroke="#000" stroke-width="2" fill="none"/><path d="M742.03 996.2H741v-2h1.03z"/><path d="M775.76 995.2l-14.26 4.64v-9.28z" stroke="#000" stroke-width="2"/><path d="M780 962.6h230v65.2H780z" stroke="#000" stroke-width="2" fill="#fff"/><g><use xlink:href="#S" transform="matrix(1,0,0,1,792,974.5999999999998) translate(11.735185185185173 13.866666666666669)"/><use xlink:href="#T" transform="matrix(1,0,0,1,792,974.5999999999998) translate(50.109259259259254 13.866666666666669)"/><use xlink:href="#U" transform="matrix(1,0,0,1,792,974.5999999999998) translate(87.56851851851852 13.866666666666669)"/><use xlink:href="#V" transform="matrix(1,0,0,1,792,974.5999999999998) translate(101.00185185185185 13.866666666666669)"/><use xlink:href="#W" transform="matrix(1,0,0,1,792,974.5999999999998) translate(149.10185185185188 13.866666666666669)"/><use xlink:href="#X" transform="matrix(1,0,0,1,792,974.5999999999998) translate(21.24444444444444 34.66666666666667)"/><use xlink:href="#Y" transform="matrix(1,0,0,1,792,974.5999999999998) translate(35.68888888888888 34.66666666666667)"/><use xlink:href="#Z" transform="matrix(1,0,0,1,792,974.5999999999998) translate(69.34444444444445 34.66666666666667)"/><use xlink:href="#aa" transform="matrix(1,0,0,1,792,974.5999999999998) translate(108.77777777777779 34.66666666666667)"/><use xlink:href="#ab" transform="matrix(1,0,0,1,792,974.5999999999998) translate(152.11111111111111 34.66666666666667)"/></g><path d="M1050 962.6h260v65.2h-260z" stroke="#000" stroke-width="2" fill="#fff"/><g><use xlink:href="#ac" transform="matrix(1,0,0,1,1062,974.5999999999998) translate(50.01481481481481 13.866666666666669)"/><use xlink:href="#L" transform="matrix(1,0,0,1,1062,974.5999999999998) translate(63.78518518518518 34.66666666666667)"/><use xlink:href="#M" transform="matrix(1,0,0,1,1062,974.5999999999998) translate(127.05185185185185 34.66666666666667)"/></g><path d="M1012 995.2h18.5" stroke="#000" stroke-width="2" fill="none"/><path d="M1012.03 996.2H1011v-2h1.03z"/><path d="M1045.76 995.2l-14.26 4.64v-9.28z" stroke="#000" stroke-width="2"/><path d="M80 864.6h180v65.2H80z" stroke="#000" stroke-width="2" fill="#fff"/><g><use xlink:href="#f" transform="matrix(1,0,0,1,92,876.5999999999997) translate(12.625 24.9)"/><use xlink:href="#ad" transform="matrix(1,0,0,1,92,876.5999999999997) translate(98.47500000000001 24.9)"/></g><path d="M262 897.2h278.5" stroke="#000" stroke-width="2" fill="none"/><path d="M262.03 898.2H261v-2h1.03z"/><path d="M555.76 897.2l-14.26 4.64v-9.28z" stroke="#000" stroke-width="2"/><path d="M262 897.2h248V792.6h30.5" stroke="#000" stroke-width="2" fill="none"/><path d="M262.03 898.2H261v-2h1.03z"/><path d="M555.76 792.6l-14.26 4.64v-9.28z" stroke="#000" stroke-width="2"/><path d="M262 897.2h248v98h30.5" stroke="#000" stroke-width="2" fill="none"/><path d="M262.03 898.2H261v-2h1.03z"/><path d="M555.76 995.2l-14.26 4.64v-9.28z" stroke="#000" stroke-width="2"/><path d="M260 831.2c0-3.3 2.7-6 6-6h228c3.3 0 6 2.7 6 6v48c0 3.3-2.7 6-6 6H266c-3.3 0-6-2.7-6-6z" stroke="#000" stroke-opacity="0" stroke-width="3" fill="#fff" fill-opacity="0"/><g><use xlink:href="#ae" transform="matrix(1,0,0,1,265,830.2) translate(2.037037037037024 17.34722222222222)"/><use xlink:href="#af" transform="matrix(1,0,0,1,265,830.2) translate(51.32098765432098 17.34722222222222)"/><use xlink:href="#ag" transform="matrix(1,0,0,1,265,830.2) translate(120.4074074074074 17.34722222222222)"/><use xlink:href="#ah" transform="matrix(1,0,0,1,265,830.2) translate(140.1604938271605 17.34722222222222)"/><use xlink:href="#ai" transform="matrix(1,0,0,1,265,830.2) translate(18.555555555555543 38.68055555555556)"/><use xlink:href="#aj" transform="matrix(1,0,0,1,265,830.2) translate(38.30864197530863 38.68055555555556)"/><use xlink:href="#ak" transform="matrix(1,0,0,1,265,830.2) translate(107 38.68055555555556)"/><use xlink:href="#al" transform="matrix(1,0,0,1,265,830.2) translate(145.41975308641975 38.68055555555556)"/></g><defs><path d="M190 0L58-211 59 0H30v-248h39L202-35l-2-213h31V0h-41" id="am"/><path d="M205 0l-28-72H64L36 0H1l101-248h38L239 0h-34zm-38-99l-47-123c-12 45-31 82-46 123h93" id="an"/><path d="M185-189c-5-48-123-54-124 2 14 75 158 14 163 119 3 78-121 87-175 55-17-10-28-26-33-46l33-7c5 56 141 63 141-1 0-78-155-14-162-118-5-82 145-84 179-34 5 7 8 16 11 25" id="ao"/><g id="a"><use transform="matrix(0.05,0,0,0.05,0,0)" xlink:href="#am"/><use transform="matrix(0.05,0,0,0.05,12.950000000000001,0)" xlink:href="#an"/><use transform="matrix(0.05,0,0,0.05,24.950000000000003,0)" xlink:href="#ao"/><use transform="matrix(0.05,0,0,0.05,36.95,0)" xlink:href="#an"/></g><path d="M30-248c118-7 216 8 213 122C240-48 200 0 122 0H30v-248zM63-27c89 8 146-16 146-99s-60-101-146-95v194" id="ap"/><path d="M141-36C126-15 110 5 73 4 37 3 15-17 15-53c-1-64 63-63 125-63 3-35-9-54-41-54-24 1-41 7-42 31l-33-3c5-37 33-52 76-52 45 0 72 20 72 64v82c-1 20 7 32 28 27v20c-31 9-61-2-59-35zM48-53c0 20 12 33 32 33 41-3 63-29 60-74-43 2-92-5-92 41" id="aq"/><path d="M59-47c-2 24 18 29 38 22v24C64 9 27 4 27-40v-127H5v-23h24l9-43h21v43h35v23H59v120" id="ar"/><path d="M135-143c-3-34-86-38-87 0 15 53 115 12 119 90S17 21 10-45l28-5c4 36 97 45 98 0-10-56-113-15-118-90-4-57 82-63 122-42 12 7 21 19 24 35" id="as"/><path d="M100-194c63 0 86 42 84 106H49c0 40 14 67 53 68 26 1 43-12 49-29l28 8c-11 28-37 45-77 45C44 4 14-33 15-96c1-61 26-98 85-98zm52 81c6-60-76-77-97-28-3 7-6 17-6 28h103" id="at"/><g id="b"><use transform="matrix(0.05,0,0,0.05,0,0)" xlink:href="#ap"/><use transform="matrix(0.05,0,0,0.05,12.950000000000001,0)" xlink:href="#aq"/><use transform="matrix(0.05,0,0,0.05,22.950000000000003,0)" xlink:href="#ar"/><use transform="matrix(0.05,0,0,0.05,27.950000000000003,0)" xlink:href="#aq"/><use transform="matrix(0.05,0,0,0.05,37.95,0)" xlink:href="#as"/><use transform="matrix(0.05,0,0,0.05,46.95,0)" xlink:href="#at"/><use transform="matrix(0.05,0,0,0.05,56.95,0)" xlink:href="#ar"/></g><path d="M101-234c-31-9-42 10-38 44h38v23H63V0H32v-167H5v-23h27c-7-52 17-82 69-68v24" id="au"/><path d="M100-194c62-1 85 37 85 99 1 63-27 99-86 99S16-35 15-95c0-66 28-99 85-99zM99-20c44 1 53-31 53-75 0-43-8-75-51-75s-53 32-53 75 10 74 51 75" id="av"/><path d="M114-163C36-179 61-72 57 0H25l-1-190h30c1 12-1 29 2 39 6-27 23-49 58-41v29" id="aw"/><g id="c"><use transform="matrix(0.05,0,0,0.05,0,0)" xlink:href="#au"/><use transform="matrix(0.05,0,0,0.05,5,0)" xlink:href="#av"/><use transform="matrix(0.05,0,0,0.05,15,0)" xlink:href="#aw"/></g><path d="M30 0v-248h33v221h125V0H30" id="ax"/><path d="M24-231v-30h32v30H24zM24 0v-190h32V0H24" id="ay"/><path d="M16-82v-28h88v28H16" id="az"/><path d="M117-194c89-4 53 116 60 194h-32v-121c0-31-8-49-39-48C34-167 62-67 57 0H25l-1-190h30c1 10-1 24 2 32 11-22 29-35 61-36" id="aA"/><g id="d"><use transform="matrix(0.05,0,0,0.05,0,0)" xlink:href="#ax"/><use transform="matrix(0.05,0,0,0.05,10,0)" xlink:href="#ay"/><use transform="matrix(0.05,0,0,0.05,13.949999999999998,0)" xlink:href="#az"/><use transform="matrix(0.05,0,0,0.05,19.9,0)" xlink:href="#ay"/><use transform="matrix(0.05,0,0,0.05,23.849999999999998,0)" xlink:href="#av"/><use transform="matrix(0.05,0,0,0.05,33.849999999999994,0)" xlink:href="#aA"/></g><path d="M115-194c53 0 69 39 70 98 0 66-23 100-70 100C84 3 66-7 56-30L54 0H23l1-261h32v101c10-23 28-34 59-34zm-8 174c40 0 45-34 45-75 0-40-5-75-45-74-42 0-51 32-51 76 0 43 10 73 51 73" id="aB"/><g id="e"><use transform="matrix(0.05,0,0,0.05,0,0)" xlink:href="#aB"/><use transform="matrix(0.05,0,0,0.05,10,0)" xlink:href="#aq"/><use transform="matrix(0.05,0,0,0.05,20,0)" xlink:href="#ar"/><use transform="matrix(0.05,0,0,0.05,25,0)" xlink:href="#ar"/><use transform="matrix(0.05,0,0,0.05,30,0)" xlink:href="#at"/><use transform="matrix(0.05,0,0,0.05,40,0)" xlink:href="#aw"/><use transform="matrix(0.05,0,0,0.05,45.95,0)" xlink:href="#ay"/><use transform="matrix(0.05,0,0,0.05,49.900000000000006,0)" xlink:href="#at"/><use transform="matrix(0.05,0,0,0.05,59.900000000000006,0)" xlink:href="#as"/></g><path d="M96-169c-40 0-48 33-48 73s9 75 48 75c24 0 41-14 43-38l32 2c-6 37-31 61-74 61-59 0-76-41-82-99-10-93 101-131 147-64 4 7 5 14 7 22l-32 3c-4-21-16-35-41-35" id="aC"/><path d="M106-169C34-169 62-67 57 0H25v-261h32l-1 103c12-21 28-36 61-36 89 0 53 116 60 194h-32v-121c2-32-8-49-39-48" id="aD"/><path d="M177-190C167-65 218 103 67 71c-23-6-38-20-44-43l32-5c15 47 100 32 89-28v-30C133-14 115 1 83 1 29 1 15-40 15-95c0-56 16-97 71-98 29-1 48 16 59 35 1-10 0-23 2-32h30zM94-22c36 0 50-32 50-73 0-42-14-75-50-75-39 0-46 34-46 75s6 73 46 73" id="aE"/><g id="f"><use transform="matrix(0.05,0,0,0.05,0,0)" xlink:href="#ap"/><use transform="matrix(0.05,0,0,0.05,12.950000000000001,0)" xlink:href="#ay"/><use transform="matrix(0.05,0,0,0.05,16.900000000000002,0)" xlink:href="#as"/><use transform="matrix(0.05,0,0,0.05,25.900000000000002,0)" xlink:href="#aC"/><use transform="matrix(0.05,0,0,0.05,34.900000000000006,0)" xlink:href="#aD"/><use transform="matrix(0.05,0,0,0.05,44.900000000000006,0)" xlink:href="#aq"/><use transform="matrix(0.05,0,0,0.05,54.900000000000006,0)" xlink:href="#aw"/><use transform="matrix(0.05,0,0,0.05,60.85,0)" xlink:href="#aE"/><use transform="matrix(0.05,0,0,0.05,70.85000000000001,0)" xlink:href="#at"/></g><path d="M179-190L93 31C79 59 56 82 12 73V49c39 6 53-20 64-50L1-190h34L92-34l54-156h33" id="aF"/><path d="M24 0v-261h32V0H24" id="aG"/><g id="g"><use transform="matrix(0.05,0,0,0.05,0,0)" xlink:href="#aC"/><use transform="matrix(0.05,0,0,0.05,9,0)" xlink:href="#aF"/><use transform="matrix(0.05,0,0,0.05,18,0)" xlink:href="#aC"/><use transform="matrix(0.05,0,0,0.05,27,0)" xlink:href="#aG"/><use transform="matrix(0.05,0,0,0.05,30.950000000000003,0)" xlink:href="#at"/></g><path d="M212-179c-10-28-35-45-73-45-59 0-87 40-87 99 0 60 29 101 89 101 43 0 62-24 78-52l27 14C228-24 195 4 139 4 59 4 22-46 18-125c-6-104 99-153 187-111 19 9 31 26 39 46" id="aH"/><g id="h"><use transform="matrix(0.05,0,0,0.05,0,0)" xlink:href="#aH"/><use transform="matrix(0.05,0,0,0.05,12.950000000000001,0)" xlink:href="#aD"/><use transform="matrix(0.05,0,0,0.05,22.950000000000003,0)" xlink:href="#aq"/><use transform="matrix(0.05,0,0,0.05,32.95,0)" xlink:href="#aw"/><use transform="matrix(0.05,0,0,0.05,38.900000000000006,0)" xlink:href="#aE"/><use transform="matrix(0.05,0,0,0.05,48.900000000000006,0)" xlink:href="#at"/></g><path d="M33 0v-248h34V0H33" id="aI"/><path d="M210-169c-67 3-38 105-44 169h-31v-121c0-29-5-50-35-48C34-165 62-65 56 0H25l-1-190h30c1 10-1 24 2 32 10-44 99-50 107 0 11-21 27-35 58-36 85-2 47 119 55 194h-31v-121c0-29-5-49-35-48" id="aJ"/><path d="M115-194c55 1 70 41 70 98S169 2 115 4C84 4 66-9 55-30l1 105H24l-1-265h31l2 30c10-21 28-34 59-34zm-8 174c40 0 45-34 45-75s-6-73-45-74c-42 0-51 32-51 76 0 43 10 73 51 73" id="aK"/><path d="M85-194c31 0 48 13 60 33l-1-100h32l1 261h-30c-2-10 0-23-3-31C134-8 116 4 85 4 32 4 16-35 15-94c0-66 23-100 70-100zm9 24c-40 0-46 34-46 75 0 40 6 74 45 74 42 0 51-32 51-76 0-42-9-74-50-73" id="aL"/><g id="j"><use transform="matrix(0.05,0,0,0.05,0,0)" xlink:href="#aI"/><use transform="matrix(0.05,0,0,0.05,5,0)" xlink:href="#aJ"/><use transform="matrix(0.05,0,0,0.05,19.950000000000003,0)" xlink:href="#aK"/><use transform="matrix(0.05,0,0,0.05,29.950000000000003,0)" xlink:href="#at"/><use transform="matrix(0.05,0,0,0.05,39.95,0)" xlink:href="#aL"/><use transform="matrix(0.05,0,0,0.05,49.95,0)" xlink:href="#aq"/><use transform="matrix(0.05,0,0,0.05,59.95,0)" xlink:href="#aA"/><use transform="matrix(0.05,0,0,0.05,69.95,0)" xlink:href="#aC"/><use transform="matrix(0.05,0,0,0.05,78.95,0)" xlink:href="#at"/></g><g id="k"><use transform="matrix(0.05,0,0,0.05,0,0)" xlink:href="#an"/><use transform="matrix(0.05,0,0,0.05,12,0)" xlink:href="#aJ"/><use transform="matrix(0.05,0,0,0.05,26.950000000000003,0)" xlink:href="#aB"/><use transform="matrix(0.05,0,0,0.05,36.95,0)" xlink:href="#ay"/><use transform="matrix(0.05,0,0,0.05,40.900000000000006,0)" xlink:href="#at"/><use transform="matrix(0.05,0,0,0.05,50.900000000000006,0)" xlink:href="#aA"/><use transform="matrix(0.05,0,0,0.05,60.900000000000006,0)" xlink:href="#ar"/></g><path d="M127-220V0H93v-220H8v-28h204v28h-85" id="aM"/><path d="M84 4C-5 8 30-112 23-190h32v120c0 31 7 50 39 49 72-2 45-101 50-169h31l1 190h-30c-1-10 1-25-2-33-11 22-28 36-60 37" id="aN"/><g id="l"><use transform="matrix(0.05,0,0,0.05,0,0)" xlink:href="#aM"/><use transform="matrix(0.05,0,0,0.05,8.950000000000001,0)" xlink:href="#at"/><use transform="matrix(0.05,0,0,0.05,18.950000000000003,0)" xlink:href="#aJ"/><use transform="matrix(0.05,0,0,0.05,33.900000000000006,0)" xlink:href="#aK"/><use transform="matrix(0.05,0,0,0.05,43.900000000000006,0)" xlink:href="#at"/><use transform="matrix(0.05,0,0,0.05,53.900000000000006,0)" xlink:href="#aw"/><use transform="matrix(0.05,0,0,0.05,59.85,0)" xlink:href="#aq"/><use transform="matrix(0.05,0,0,0.05,69.85000000000001,0)" xlink:href="#ar"/><use transform="matrix(0.05,0,0,0.05,74.85000000000001,0)" xlink:href="#aN"/><use transform="matrix(0.05,0,0,0.05,84.85000000000001,0)" xlink:href="#aw"/><use transform="matrix(0.05,0,0,0.05,90.80000000000001,0)" xlink:href="#at"/></g><g id="m"><use transform="matrix(0.05,0,0,0.05,0,0)" xlink:href="#aH"/><use transform="matrix(0.05,0,0,0.05,12.950000000000001,0)" xlink:href="#aF"/><use transform="matrix(0.05,0,0,0.05,21.950000000000003,0)" xlink:href="#aC"/><use transform="matrix(0.05,0,0,0.05,30.950000000000003,0)" xlink:href="#aG"/><use transform="matrix(0.05,0,0,0.05,34.900000000000006,0)" xlink:href="#at"/></g><g id="n"><use transform="matrix(0.05,0,0,0.05,0,0)" xlink:href="#aM"/><use transform="matrix(0.05,0,0,0.05,10.3,0)" xlink:href="#ay"/><use transform="matrix(0.05,0,0,0.05,14.25,0)" xlink:href="#aJ"/><use transform="matrix(0.05,0,0,0.05,29.200000000000003,0)" xlink:href="#at"/></g><path d="M87 75C49 33 22-17 22-94c0-76 28-126 65-167h31c-38 41-64 92-64 168S80 34 118 75H87" id="aO"/><path d="M240 0l2-218c-23 76-54 145-80 218h-23L58-218 59 0H30v-248h44l77 211c21-75 51-140 76-211h43V0h-30" id="aP"/><g id="o"><use transform="matrix(0.05,0,0,0.05,0,0)" xlink:href="#aO"/><use transform="matrix(0.05,0,0,0.05,5.95,0)" xlink:href="#aP"/><use transform="matrix(0.05,0,0,0.05,20.900000000000002,0)" xlink:href="#aq"/><use transform="matrix(0.05,0,0,0.05,30.900000000000002,0)" xlink:href="#ar"/><use transform="matrix(0.05,0,0,0.05,35.900000000000006,0)" xlink:href="#aG"/><use transform="matrix(0.05,0,0,0.05,39.85000000000001,0)" xlink:href="#aq"/><use transform="matrix(0.05,0,0,0.05,49.85000000000001,0)" xlink:href="#aB"/></g><path d="M137 0h-34L2-248h35l83 218 83-218h36" id="aQ"/><path d="M33-261c38 41 65 92 65 168S71 34 33 75H2C39 34 66-17 66-93S39-220 2-261h31" id="aR"/><g id="p"><use transform="matrix(0.05,0,0,0.05,0,0)" xlink:href="#ap"/><use transform="matrix(0.05,0,0,0.05,12.950000000000001,0)" xlink:href="#aq"/><use transform="matrix(0.05,0,0,0.05,22.950000000000003,0)" xlink:href="#ar"/><use transform="matrix(0.05,0,0,0.05,27.950000000000003,0)" xlink:href="#at"/><use transform="matrix(0.05,0,0,0.05,37.95,0)" xlink:href="#az"/><use transform="matrix(0.05,0,0,0.05,43.900000000000006,0)" xlink:href="#aQ"/><use transform="matrix(0.05,0,0,0.05,54.900000000000006,0)" xlink:href="#at"/><use transform="matrix(0.05,0,0,0.05,64.9,0)" xlink:href="#aC"/><use transform="matrix(0.05,0,0,0.05,73.9,0)" xlink:href="#ar"/><use transform="matrix(0.05,0,0,0.05,78.9,0)" xlink:href="#av"/><use transform="matrix(0.05,0,0,0.05,88.9,0)" xlink:href="#aw"/><use transform="matrix(0.05,0,0,0.05,94.85000000000001,0)" xlink:href="#aR"/></g><g id="q"><use transform="matrix(0.05,0,0,0.05,0,0)" xlink:href="#ap"/><use transform="matrix(0.05,0,0,0.05,12.950000000000001,0)" xlink:href="#ay"/><use transform="matrix(0.05,0,0,0.05,16.900000000000002,0)" xlink:href="#as"/><use transform="matrix(0.05,0,0,0.05,25.900000000000002,0)" xlink:href="#aC"/><use transform="matrix(0.05,0,0,0.05,34.900000000000006,0)" xlink:href="#aq"/><use transform="matrix(0.05,0,0,0.05,44.900000000000006,0)" xlink:href="#aw"/><use transform="matrix(0.05,0,0,0.05,50.85000000000001,0)" xlink:href="#aL"/><use transform="matrix(0.05,0,0,0.05,60.85,0)" xlink:href="#at"/><use transform="matrix(0.05,0,0,0.05,70.85000000000001,0)" xlink:href="#aL"/></g><g id="r"><use transform="matrix(0.05,0,0,0.05,0,0)" xlink:href="#as"/><use transform="matrix(0.05,0,0,0.05,9,0)" xlink:href="#ay"/><use transform="matrix(0.05,0,0,0.05,12.949999999999998,0)" xlink:href="#aA"/><use transform="matrix(0.05,0,0,0.05,22.95,0)" xlink:href="#aC"/><use transform="matrix(0.05,0,0,0.05,31.950000000000003,0)" xlink:href="#at"/></g><path d="M233-177c-1 41-23 64-60 70L243 0h-38l-65-103H63V0H30v-248c88 3 205-21 203 71zM63-129c60-2 137 13 137-47 0-61-80-42-137-45v92" id="aS"/><path d="M232-93c-1 65-40 97-104 97C67 4 28-28 28-90v-158h33c8 89-33 224 67 224 102 0 64-133 71-224h33v155" id="aT"/><g id="s"><use transform="matrix(0.05,0,0,0.05,0,0)" xlink:href="#aS"/><use transform="matrix(0.05,0,0,0.05,12.950000000000001,0)" xlink:href="#aT"/><use transform="matrix(0.05,0,0,0.05,25.900000000000002,0)" xlink:href="#ax"/></g><g id="t"><use transform="matrix(0.05,0,0,0.05,0,0)" xlink:href="#ay"/><use transform="matrix(0.05,0,0,0.05,3.95,0)" xlink:href="#as"/></g><g id="u"><use transform="matrix(0.05,0,0,0.05,0,0)" xlink:href="#aB"/><use transform="matrix(0.05,0,0,0.05,10,0)" xlink:href="#at"/><use transform="matrix(0.05,0,0,0.05,20,0)" xlink:href="#ar"/><use transform="matrix(0.05,0,0,0.05,25,0)" xlink:href="#ar"/><use transform="matrix(0.05,0,0,0.05,30,0)" xlink:href="#at"/><use transform="matrix(0.05,0,0,0.05,40,0)" xlink:href="#aw"/></g><g id="v"><use transform="matrix(0.05,0,0,0.05,0,0)" xlink:href="#aL"/><use transform="matrix(0.05,0,0,0.05,10,0)" xlink:href="#at"/><use transform="matrix(0.05,0,0,0.05,20,0)" xlink:href="#ar"/><use transform="matrix(0.05,0,0,0.05,25,0)" xlink:href="#at"/><use transform="matrix(0.05,0,0,0.05,35,0)" xlink:href="#aw"/><use transform="matrix(0.05,0,0,0.05,40.95,0)" xlink:href="#aJ"/><use transform="matrix(0.05,0,0,0.05,55.900000000000006,0)" xlink:href="#ay"/><use transform="matrix(0.05,0,0,0.05,59.85,0)" xlink:href="#aA"/><use transform="matrix(0.05,0,0,0.05,69.85000000000001,0)" xlink:href="#at"/><use transform="matrix(0.05,0,0,0.05,79.85000000000001,0)" xlink:href="#aL"/></g><g id="w"><use transform="matrix(0.05,0,0,0.05,0,0)" xlink:href="#aN"/><use transform="matrix(0.05,0,0,0.05,10,0)" xlink:href="#as"/><use transform="matrix(0.05,0,0,0.05,19,0)" xlink:href="#ay"/><use transform="matrix(0.05,0,0,0.05,22.95,0)" xlink:href="#aA"/><use transform="matrix(0.05,0,0,0.05,32.95,0)" xlink:href="#aE"/></g><g id="x"><use transform="matrix(0.05,0,0,0.05,0,0)" xlink:href="#ap"/><use transform="matrix(0.05,0,0,0.05,12.950000000000001,0)" xlink:href="#ay"/><use transform="matrix(0.05,0,0,0.05,16.900000000000002,0)" xlink:href="#as"/><use transform="matrix(0.05,0,0,0.05,25.900000000000002,0)" xlink:href="#aC"/><use transform="matrix(0.05,0,0,0.05,34.900000000000006,0)" xlink:href="#aD"/><use transform="matrix(0.05,0,0,0.05,44.900000000000006,0)" xlink:href="#aq"/><use transform="matrix(0.05,0,0,0.05,54.900000000000006,0)" xlink:href="#aw"/><use transform="matrix(0.05,0,0,0.05,60.85,0)" xlink:href="#aE"/><use transform="matrix(0.05,0,0,0.05,70.85000000000001,0)" xlink:href="#at"/></g><g id="y"><use transform="matrix(0.05,0,0,0.05,0,0)" xlink:href="#aC"/><use transform="matrix(0.05,0,0,0.05,9,0)" xlink:href="#aF"/><use transform="matrix(0.05,0,0,0.05,18,0)" xlink:href="#aC"/><use transform="matrix(0.05,0,0,0.05,27,0)" xlink:href="#aG"/><use transform="matrix(0.05,0,0,0.05,30.950000000000003,0)" xlink:href="#at"/><use transform="matrix(0.05,0,0,0.05,40.95,0)" xlink:href="#as"/></g><g id="z"><use transform="matrix(0.05,0,0,0.05,0,0)" xlink:href="#aQ"/><use transform="matrix(0.05,0,0,0.05,11,0)" xlink:href="#av"/><use transform="matrix(0.05,0,0,0.05,21,0)" xlink:href="#aG"/><use transform="matrix(0.05,0,0,0.05,24.95,0)" xlink:href="#ar"/><use transform="matrix(0.05,0,0,0.05,29.950000000000003,0)" xlink:href="#aq"/><use transform="matrix(0.05,0,0,0.05,39.95,0)" xlink:href="#aE"/><use transform="matrix(0.05,0,0,0.05,49.95,0)" xlink:href="#at"/></g><g id="A"><use transform="matrix(0.05,0,0,0.05,0,0)" xlink:href="#aP"/><use transform="matrix(0.05,0,0,0.05,14.950000000000001,0)" xlink:href="#at"/><use transform="matrix(0.05,0,0,0.05,24.950000000000003,0)" xlink:href="#aq"/><use transform="matrix(0.05,0,0,0.05,34.95,0)" xlink:href="#as"/><use transform="matrix(0.05,0,0,0.05,43.95,0)" xlink:href="#aN"/><use transform="matrix(0.05,0,0,0.05,53.95,0)" xlink:href="#aw"/><use transform="matrix(0.05,0,0,0.05,59.900000000000006,0)" xlink:href="#at"/><use transform="matrix(0.05,0,0,0.05,69.9,0)" xlink:href="#aL"/></g><g id="B"><use transform="matrix(0.05,0,0,0.05,0,0)" xlink:href="#aH"/><use transform="matrix(0.05,0,0,0.05,12.950000000000001,0)" xlink:href="#aN"/><use transform="matrix(0.05,0,0,0.05,22.950000000000003,0)" xlink:href="#aw"/><use transform="matrix(0.05,0,0,0.05,28.900000000000002,0)" xlink:href="#aw"/><use transform="matrix(0.05,0,0,0.05,34.85,0)" xlink:href="#at"/><use transform="matrix(0.05,0,0,0.05,44.85,0)" xlink:href="#aA"/><use transform="matrix(0.05,0,0,0.05,54.85,0)" xlink:href="#ar"/></g><g id="C"><use transform="matrix(0.05,0,0,0.05,0,0)" xlink:href="#aM"/><use transform="matrix(0.05,0,0,0.05,8.950000000000001,0)" xlink:href="#at"/><use transform="matrix(0.05,0,0,0.05,18.950000000000003,0)" xlink:href="#aJ"/><use transform="matrix(0.05,0,0,0.05,33.900000000000006,0)" xlink:href="#aK"/><use transform="matrix(0.05,0,0,0.05,43.900000000000006,0)" xlink:href="#at"/><use transform="matrix(0.05,0,0,0.05,53.900000000000006,0)" xlink:href="#aw"/><use transform="matrix(0.05,0,0,0.05,59.85,0)" xlink:href="#aq"/><use transform="matrix(0.05,0,0,0.05,69.85000000000001,0)" xlink:href="#ar"/><use transform="matrix(0.05,0,0,0.05,74.85000000000001,0)" xlink:href="#aN"/><use transform="matrix(0.05,0,0,0.05,84.85000000000001,0)" xlink:href="#aw"/><use transform="matrix(0.05,0,0,0.05,90.80000000000001,0)" xlink:href="#at"/></g><g id="D"><use transform="matrix(0.05,0,0,0.05,0,0)" xlink:href="#aH"/><use transform="matrix(0.05,0,0,0.05,12.950000000000001,0)" xlink:href="#aD"/><use transform="matrix(0.05,0,0,0.05,22.950000000000003,0)" xlink:href="#aq"/><use transform="matrix(0.05,0,0,0.05,32.95,0)" xlink:href="#aw"/><use transform="matrix(0.05,0,0,0.05,38.900000000000006,0)" xlink:href="#aE"/><use transform="matrix(0.05,0,0,0.05,48.900000000000006,0)" xlink:href="#at"/></g><g id="E"><use transform="matrix(0.05,0,0,0.05,0,0)" xlink:href="#aM"/><use transform="matrix(0.05,0,0,0.05,10.3,0)" xlink:href="#ay"/><use transform="matrix(0.05,0,0,0.05,14.25,0)" xlink:href="#aJ"/><use transform="matrix(0.05,0,0,0.05,29.200000000000003,0)" xlink:href="#at"/></g><g id="F"><use transform="matrix(0.05,0,0,0.05,0,0)" xlink:href="#aP"/><use transform="matrix(0.05,0,0,0.05,14.950000000000001,0)" xlink:href="#at"/><use transform="matrix(0.05,0,0,0.05,24.950000000000003,0)" xlink:href="#aq"/><use transform="matrix(0.05,0,0,0.05,34.95,0)" xlink:href="#as"/><use transform="matrix(0.05,0,0,0.05,43.95,0)" xlink:href="#aN"/><use transform="matrix(0.05,0,0,0.05,53.95,0)" xlink:href="#aw"/><use transform="matrix(0.05,0,0,0.05,59.900000000000006,0)" xlink:href="#at"/><use transform="matrix(0.05,0,0,0.05,69.9,0)" xlink:href="#aL"/></g><g id="G"><use transform="matrix(0.048148148148148155,0,0,0.048148148148148155,0,0)" xlink:href="#aM"/><use transform="matrix(0.048148148148148155,0,0,0.048148148148148155,9.91851851851852,0)" xlink:href="#ay"/><use transform="matrix(0.048148148148148155,0,0,0.048148148148148155,13.722222222222225,0)" xlink:href="#aJ"/><use transform="matrix(0.048148148148148155,0,0,0.048148148148148155,28.118518518518524,0)" xlink:href="#at"/></g><g id="H"><use transform="matrix(0.048148148148148155,0,0,0.048148148148148155,0,0)" xlink:href="#aq"/><use transform="matrix(0.048148148148148155,0,0,0.048148148148148155,9.629629629629632,0)" xlink:href="#ar"/></g><path d="M206 0h-36l-40-164L89 0H53L-1-190h32L70-26l43-164h34l41 164 42-164h31" id="aU"/><g id="I"><use transform="matrix(0.048148148148148155,0,0,0.048148148148148155,0,0)" xlink:href="#aG"/><use transform="matrix(0.048148148148148155,0,0,0.048148148148148155,3.8037037037037043,0)" xlink:href="#av"/><use transform="matrix(0.048148148148148155,0,0,0.048148148148148155,13.433333333333335,0)" xlink:href="#aU"/><use transform="matrix(0.048148148148148155,0,0,0.048148148148148155,25.90370370370371,0)" xlink:href="#at"/><use transform="matrix(0.048148148148148155,0,0,0.048148148148148155,35.53333333333334,0)" xlink:href="#as"/><use transform="matrix(0.048148148148148155,0,0,0.048148148148148155,44.2,0)" xlink:href="#ar"/></g><g id="J"><use transform="matrix(0.048148148148148155,0,0,0.048148148148148155,0,0)" xlink:href="#aQ"/><use transform="matrix(0.048148148148148155,0,0,0.048148148148148155,10.592592592592593,0)" xlink:href="#av"/><use transform="matrix(0.048148148148148155,0,0,0.048148148148148155,20.222222222222225,0)" xlink:href="#aG"/><use transform="matrix(0.048148148148148155,0,0,0.048148148148148155,24.02592592592593,0)" xlink:href="#ar"/><use transform="matrix(0.048148148148148155,0,0,0.048148148148148155,28.840740740740745,0)" xlink:href="#aq"/><use transform="matrix(0.048148148148148155,0,0,0.048148148148148155,38.470370370370375,0)" xlink:href="#aE"/><use transform="matrix(0.048148148148148155,0,0,0.048148148148148155,48.10000000000001,0)" xlink:href="#at"/></g><path d="M140-251c81 0 123 46 123 126C263-46 219 4 140 4 59 4 17-45 17-125s42-126 123-126zm0 227c63 0 89-41 89-101s-29-99-89-99c-61 0-89 39-89 99S79-25 140-24" id="aV"/><path d="M143 4C61 4 22-44 18-125c-5-107 100-154 193-111 17 8 29 25 37 43l-32 9c-13-25-37-40-76-40-61 0-88 39-88 99 0 61 29 100 91 101 35 0 62-11 79-27v-45h-74v-28h105v86C228-13 192 4 143 4" id="aW"/><path d="M30 0v-248h187v28H63v79h144v27H63v87h162V0H30" id="aX"/><path d="M-5 72V49h209v23H-5" id="aY"/><g id="K"><use transform="matrix(0.048148148148148155,0,0,0.048148148148148155,0,0)" xlink:href="#aQ"/><use transform="matrix(0.048148148148148155,0,0,0.048148148148148155,11.555555555555557,0)" xlink:href="#aV"/><use transform="matrix(0.048148148148148155,0,0,0.048148148148148155,25.03703703703704,0)" xlink:href="#ax"/><use transform="matrix(0.048148148148148155,0,0,0.048148148148148155,33.36666666666667,0)" xlink:href="#aM"/><use transform="matrix(0.048148148148148155,0,0,0.048148148148148155,42.611111111111114,0)" xlink:href="#an"/><use transform="matrix(0.048148148148148155,0,0,0.048148148148148155,54.16666666666667,0)" xlink:href="#aW"/><use transform="matrix(0.048148148148148155,0,0,0.048148148148148155,67.64814814814815,0)" xlink:href="#aX"/><use transform="matrix(0.048148148148148155,0,0,0.048148148148148155,79.20370370370371,0)" xlink:href="#aY"/><use transform="matrix(0.048148148148148155,0,0,0.048148148148148155,88.83333333333334,0)" xlink:href="#aP"/><use transform="matrix(0.048148148148148155,0,0,0.048148148148148155,103.22962962962964,0)" xlink:href="#aX"/><use transform="matrix(0.048148148148148155,0,0,0.048148148148148155,114.7851851851852,0)" xlink:href="#an"/><use transform="matrix(0.048148148148148155,0,0,0.048148148148148155,126.34074074074076,0)" xlink:href="#ao"/><use transform="matrix(0.048148148148148155,0,0,0.048148148148148155,137.89629629629633,0)" xlink:href="#aT"/><use transform="matrix(0.048148148148148155,0,0,0.048148148148148155,150.3666666666667,0)" xlink:href="#aS"/><use transform="matrix(0.048148148148148155,0,0,0.048148148148148155,162.83703703703708,0)" xlink:href="#aX"/><use transform="matrix(0.048148148148148155,0,0,0.048148148148148155,174.39259259259262,0)" xlink:href="#ap"/></g><g id="L"><use transform="matrix(0.048148148148148155,0,0,0.048148148148148155,0,0)" xlink:href="#aO"/><use transform="matrix(0.048148148148148155,0,0,0.048148148148148155,5.72962962962963,0)" xlink:href="#aH"/><use transform="matrix(0.048148148148148155,0,0,0.048148148148148155,18.200000000000003,0)" xlink:href="#aw"/><use transform="matrix(0.048148148148148155,0,0,0.048148148148148155,23.929629629629634,0)" xlink:href="#ay"/><use transform="matrix(0.048148148148148155,0,0,0.048148148148148155,27.733333333333338,0)" xlink:href="#ar"/><use transform="matrix(0.048148148148148155,0,0,0.048148148148148155,32.54814814814815,0)" xlink:href="#ay"/><use transform="matrix(0.048148148148148155,0,0,0.048148148148148155,36.351851851851855,0)" xlink:href="#aC"/><use transform="matrix(0.048148148148148155,0,0,0.048148148148148155,45.01851851851852,0)" xlink:href="#aq"/><use transform="matrix(0.048148148148148155,0,0,0.048148148148148155,54.64814814814816,0)" xlink:href="#aG"/></g><path d="M30-248c87 1 191-15 191 75 0 78-77 80-158 76V0H30v-248zm33 125c57 0 124 11 124-50 0-59-68-47-124-48v98" id="aZ"/><g id="M"><use transform="matrix(0.048148148148148155,0,0,0.048148148148148155,0,0)" xlink:href="#aZ"/><use transform="matrix(0.048148148148148155,0,0,0.048148148148148155,11.555555555555557,0)" xlink:href="#av"/><use transform="matrix(0.048148148148148155,0,0,0.048148148148148155,21.18518518518519,0)" xlink:href="#ay"/><use transform="matrix(0.048148148148148155,0,0,0.048148148148148155,24.988888888888894,0)" xlink:href="#aA"/><use transform="matrix(0.048148148148148155,0,0,0.048148148148148155,34.61851851851853,0)" xlink:href="#ar"/><use transform="matrix(0.048148148148148155,0,0,0.048148148148148155,39.433333333333344,0)" xlink:href="#aR"/></g><g id="N"><use transform="matrix(0.05,0,0,0.05,0,0)" xlink:href="#aM"/><use transform="matrix(0.05,0,0,0.05,8.950000000000001,0)" xlink:href="#at"/><use transform="matrix(0.05,0,0,0.05,18.950000000000003,0)" xlink:href="#aJ"/><use transform="matrix(0.05,0,0,0.05,33.900000000000006,0)" xlink:href="#aK"/><use transform="matrix(0.05,0,0,0.05,43.900000000000006,0)" xlink:href="#at"/><use transform="matrix(0.05,0,0,0.05,53.900000000000006,0)" xlink:href="#aw"/><use transform="matrix(0.05,0,0,0.05,59.85,0)" xlink:href="#aq"/><use transform="matrix(0.05,0,0,0.05,69.85000000000001,0)" xlink:href="#ar"/><use transform="matrix(0.05,0,0,0.05,74.85000000000001,0)" xlink:href="#aN"/><use transform="matrix(0.05,0,0,0.05,84.85000000000001,0)" xlink:href="#aw"/><use transform="matrix(0.05,0,0,0.05,90.80000000000001,0)" xlink:href="#at"/></g><g id="O"><use transform="matrix(0.048148148148148155,0,0,0.048148148148148155,0,0)" xlink:href="#aD"/><use transform="matrix(0.048148148148148155,0,0,0.048148148148148155,9.629629629629632,0)" xlink:href="#ay"/><use transform="matrix(0.048148148148148155,0,0,0.048148148148148155,13.433333333333335,0)" xlink:href="#aE"/><use transform="matrix(0.048148148148148155,0,0,0.048148148148148155,23.062962962962967,0)" xlink:href="#aD"/><use transform="matrix(0.048148148148148155,0,0,0.048148148148148155,32.6925925925926,0)" xlink:href="#at"/><use transform="matrix(0.048148148148148155,0,0,0.048148148148148155,42.32222222222223,0)" xlink:href="#as"/><use transform="matrix(0.048148148148148155,0,0,0.048148148148148155,50.988888888888894,0)" xlink:href="#ar"/></g><g id="P"><use transform="matrix(0.048148148148148155,0,0,0.048148148148148155,0,0)" xlink:href="#aM"/><use transform="matrix(0.048148148148148155,0,0,0.048148148148148155,8.61851851851852,0)" xlink:href="#at"/><use transform="matrix(0.048148148148148155,0,0,0.048148148148148155,18.248148148148154,0)" xlink:href="#aJ"/><use transform="matrix(0.048148148148148155,0,0,0.048148148148148155,32.64444444444445,0)" xlink:href="#aK"/><use transform="matrix(0.048148148148148155,0,0,0.048148148148148155,42.274074074074086,0)" xlink:href="#at"/><use transform="matrix(0.048148148148148155,0,0,0.048148148148148155,51.90370370370372,0)" xlink:href="#aw"/><use transform="matrix(0.048148148148148155,0,0,0.048148148148148155,57.63333333333334,0)" xlink:href="#aq"/><use transform="matrix(0.048148148148148155,0,0,0.048148148148148155,67.26296296296297,0)" xlink:href="#ar"/><use transform="matrix(0.048148148148148155,0,0,0.048148148148148155,72.07777777777778,0)" xlink:href="#aN"/><use transform="matrix(0.048148148148148155,0,0,0.048148148148148155,81.70740740740742,0)" xlink:href="#aw"/><use transform="matrix(0.048148148148148155,0,0,0.048148148148148155,87.43703703703704,0)" xlink:href="#at"/></g><g id="Q"><use transform="matrix(0.048148148148148155,0,0,0.048148148148148155,0,0)" xlink:href="#aM"/><use transform="matrix(0.048148148148148155,0,0,0.048148148148148155,10.544444444444446,0)" xlink:href="#aX"/><use transform="matrix(0.048148148148148155,0,0,0.048148148148148155,22.1,0)" xlink:href="#aP"/><use transform="matrix(0.048148148148148155,0,0,0.048148148148148155,36.4962962962963,0)" xlink:href="#aZ"/><use transform="matrix(0.048148148148148155,0,0,0.048148148148148155,48.05185185185186,0)" xlink:href="#aX"/><use transform="matrix(0.048148148148148155,0,0,0.048148148148148155,59.607407407407415,0)" xlink:href="#aS"/><use transform="matrix(0.048148148148148155,0,0,0.048148148148148155,72.07777777777778,0)" xlink:href="#an"/><use transform="matrix(0.048148148148148155,0,0,0.048148148148148155,82.33333333333334,0)" xlink:href="#aM"/><use transform="matrix(0.048148148148148155,0,0,0.048148148148148155,92.8777777777778,0)" xlink:href="#aT"/><use transform="matrix(0.048148148148148155,0,0,0.048148148148148155,105.34814814814817,0)" xlink:href="#aS"/><use transform="matrix(0.048148148148148155,0,0,0.048148148148148155,117.81851851851853,0)" xlink:href="#aX"/><use transform="matrix(0.048148148148148155,0,0,0.048148148148148155,129.3740740740741,0)" xlink:href="#aY"/><use transform="matrix(0.048148148148148155,0,0,0.048148148148148155,139.0037037037037,0)" xlink:href="#aP"/><use transform="matrix(0.048148148148148155,0,0,0.048148148148148155,153.4,0)" xlink:href="#aX"/><use transform="matrix(0.048148148148148155,0,0,0.048148148148148155,164.95555555555558,0)" xlink:href="#an"/><use transform="matrix(0.048148148148148155,0,0,0.048148148148148155,176.51111111111112,0)" xlink:href="#ao"/><use transform="matrix(0.048148148148148155,0,0,0.048148148148148155,188.06666666666666,0)" xlink:href="#aT"/><use transform="matrix(0.048148148148148155,0,0,0.048148148148148155,200.537037037037,0)" xlink:href="#aS"/><use transform="matrix(0.048148148148148155,0,0,0.048148148148148155,213.00740740740738,0)" xlink:href="#aX"/><use transform="matrix(0.048148148148148155,0,0,0.048148148148148155,224.56296296296296,0)" xlink:href="#ap"/></g><g id="R"><use transform="matrix(0.05,0,0,0.05,0,0)" xlink:href="#ax"/><use transform="matrix(0.05,0,0,0.05,10,0)" xlink:href="#av"/><use transform="matrix(0.05,0,0,0.05,20,0)" xlink:href="#aq"/><use transform="matrix(0.05,0,0,0.05,30,0)" xlink:href="#aL"/></g><path d="M63-220v92h138v28H63V0H30v-248h175v28H63" id="ba"/><g id="S"><use transform="matrix(0.048148148148148155,0,0,0.048148148148148155,0,0)" xlink:href="#ba"/><use transform="matrix(0.048148148148148155,0,0,0.048148148148148155,10.544444444444446,0)" xlink:href="#ay"/><use transform="matrix(0.048148148148148155,0,0,0.048148148148148155,14.34814814814815,0)" xlink:href="#aw"/><use transform="matrix(0.048148148148148155,0,0,0.048148148148148155,20.07777777777778,0)" xlink:href="#as"/><use transform="matrix(0.048148148148148155,0,0,0.048148148148148155,28.744444444444447,0)" xlink:href="#ar"/></g><g id="T"><use transform="matrix(0.048148148148148155,0,0,0.048148148148148155,0,0)" xlink:href="#ar"/><use transform="matrix(0.048148148148148155,0,0,0.048148148148148155,4.814814814814816,0)" xlink:href="#ay"/><use transform="matrix(0.048148148148148155,0,0,0.048148148148148155,8.61851851851852,0)" xlink:href="#aJ"/><use transform="matrix(0.048148148148148155,0,0,0.048148148148148155,23.01481481481482,0)" xlink:href="#at"/></g><g id="U"><use transform="matrix(0.048148148148148155,0,0,0.048148148148148155,0,0)" xlink:href="#ay"/><use transform="matrix(0.048148148148148155,0,0,0.048148148148148155,3.8037037037037043,0)" xlink:href="#ar"/></g><g id="V"><use transform="matrix(0.048148148148148155,0,0,0.048148148148148155,0,0)" xlink:href="#aL"/><use transform="matrix(0.048148148148148155,0,0,0.048148148148148155,9.629629629629632,0)" xlink:href="#aw"/><use transform="matrix(0.048148148148148155,0,0,0.048148148148148155,15.359259259259261,0)" xlink:href="#av"/><use transform="matrix(0.048148148148148155,0,0,0.048148148148148155,24.988888888888894,0)" xlink:href="#aK"/><use transform="matrix(0.048148148148148155,0,0,0.048148148148148155,34.61851851851853,0)" xlink:href="#as"/></g><g id="W"><use transform="matrix(0.048148148148148155,0,0,0.048148148148148155,0,0)" xlink:href="#aB"/><use transform="matrix(0.048148148148148155,0,0,0.048148148148148155,9.629629629629632,0)" xlink:href="#at"/><use transform="matrix(0.048148148148148155,0,0,0.048148148148148155,19.259259259259263,0)" xlink:href="#aG"/><use transform="matrix(0.048148148148148155,0,0,0.048148148148148155,23.062962962962967,0)" xlink:href="#av"/><use transform="matrix(0.048148148148148155,0,0,0.048148148148148155,32.6925925925926,0)" xlink:href="#aU"/></g><path d="M27 0v-27h64v-190l-56 39v-29l58-41h29v221h61V0H27" id="bb"/><use transform="matrix(0.048148148148148155,0,0,0.048148148148148155,0,0)" xlink:href="#bb" id="X"/><g id="Y"><use transform="matrix(0.048148148148148155,0,0,0.048148148148148155,0,0)" xlink:href="#aQ"/><use transform="matrix(0.048148148148148155,0,0,0.048148148148148155,10.592592592592593,0)" xlink:href="#av"/><use transform="matrix(0.048148148148148155,0,0,0.048148148148148155,20.222222222222225,0)" xlink:href="#aG"/><use transform="matrix(0.048148148148148155,0,0,0.048148148148148155,24.02592592592593,0)" xlink:href="#ar"/></g><g id="Z"><use transform="matrix(0.048148148148148155,0,0,0.048148148148148155,0,0)" xlink:href="#aq"/><use transform="matrix(0.048148148148148155,0,0,0.048148148148148155,9.629629629629632,0)" xlink:href="#au"/><use transform="matrix(0.048148148148148155,0,0,0.048148148148148155,14.444444444444446,0)" xlink:href="#ar"/><use transform="matrix(0.048148148148148155,0,0,0.048148148148148155,19.259259259259263,0)" xlink:href="#at"/><use transform="matrix(0.048148148148148155,0,0,0.048148148148148155,28.888888888888893,0)" xlink:href="#aw"/></g><path d="M54-142c48-35 137-8 131 61C196 18 31 33 14-55l32-4c7 23 22 37 52 37 35-1 51-22 54-58 4-55-73-65-99-34H22l8-134h141v27H59" id="bc"/><path d="M101-251c68 0 85 55 85 127S166 4 100 4C33 4 14-52 14-124c0-73 17-127 87-127zm-1 229c47 0 54-49 54-102s-4-102-53-102c-51 0-55 48-55 102 0 53 5 102 54 102" id="bd"/><g id="aa"><use transform="matrix(0.048148148148148155,0,0,0.048148148148148155,0,0)" xlink:href="#bb"/><use transform="matrix(0.048148148148148155,0,0,0.048148148148148155,9.629629629629632,0)" xlink:href="#bc"/><use transform="matrix(0.048148148148148155,0,0,0.048148148148148155,19.259259259259263,0)" xlink:href="#bd"/><use transform="matrix(0.048148148148148155,0,0,0.048148148148148155,28.888888888888893,0)" xlink:href="#bd"/></g><g id="ab"><use transform="matrix(0.048148148148148155,0,0,0.048148148148148155,0,0)" xlink:href="#ar"/><use transform="matrix(0.048148148148148155,0,0,0.048148148148148155,4.814814814814816,0)" xlink:href="#ay"/><use transform="matrix(0.048148148148148155,0,0,0.048148148148148155,8.61851851851852,0)" xlink:href="#aJ"/><use transform="matrix(0.048148148148148155,0,0,0.048148148148148155,23.01481481481482,0)" xlink:href="#at"/></g><g id="ac"><use transform="matrix(0.048148148148148155,0,0,0.048148148148148155,0,0)" xlink:href="#aQ"/><use transform="matrix(0.048148148148148155,0,0,0.048148148148148155,11.555555555555557,0)" xlink:href="#aV"/><use transform="matrix(0.048148148148148155,0,0,0.048148148148148155,25.03703703703704,0)" xlink:href="#ax"/><use transform="matrix(0.048148148148148155,0,0,0.048148148148148155,33.36666666666667,0)" xlink:href="#aM"/><use transform="matrix(0.048148148148148155,0,0,0.048148148148148155,42.611111111111114,0)" xlink:href="#an"/><use transform="matrix(0.048148148148148155,0,0,0.048148148148148155,54.16666666666667,0)" xlink:href="#aW"/><use transform="matrix(0.048148148148148155,0,0,0.048148148148148155,67.64814814814815,0)" xlink:href="#aX"/><use transform="matrix(0.048148148148148155,0,0,0.048148148148148155,79.20370370370371,0)" xlink:href="#aY"/><use transform="matrix(0.048148148148148155,0,0,0.048148148148148155,88.83333333333334,0)" xlink:href="#ax"/><use transform="matrix(0.048148148148148155,0,0,0.048148148148148155,98.46296296296298,0)" xlink:href="#aV"/><use transform="matrix(0.048148148148148155,0,0,0.048148148148148155,111.94444444444446,0)" xlink:href="#an"/><use transform="matrix(0.048148148148148155,0,0,0.048148148148148155,123.50000000000001,0)" xlink:href="#ap"/></g><g id="ad"><use transform="matrix(0.05,0,0,0.05,0,0)" xlink:href="#aH"/><use transform="matrix(0.05,0,0,0.05,12.950000000000001,0)" xlink:href="#aF"/><use transform="matrix(0.05,0,0,0.05,21.950000000000003,0)" xlink:href="#aC"/><use transform="matrix(0.05,0,0,0.05,30.950000000000003,0)" xlink:href="#aG"/><use transform="matrix(0.05,0,0,0.05,34.900000000000006,0)" xlink:href="#at"/></g><g id="ae"><use transform="matrix(0.04938271604938272,0,0,0.04938271604938272,0,0)" xlink:href="#aH"/><use transform="matrix(0.04938271604938272,0,0,0.04938271604938272,12.790123456790125,0)" xlink:href="#aF"/><use transform="matrix(0.04938271604938272,0,0,0.04938271604938272,21.679012345679013,0)" xlink:href="#aC"/><use transform="matrix(0.04938271604938272,0,0,0.04938271604938272,30.567901234567906,0)" xlink:href="#aG"/><use transform="matrix(0.04938271604938272,0,0,0.04938271604938272,34.46913580246914,0)" xlink:href="#at"/></g><g id="af"><use transform="matrix(0.04938271604938272,0,0,0.04938271604938272,0,0)" xlink:href="#aC"/><use transform="matrix(0.04938271604938272,0,0,0.04938271604938272,8.88888888888889,0)" xlink:href="#av"/><use transform="matrix(0.04938271604938272,0,0,0.04938271604938272,18.765432098765434,0)" xlink:href="#aA"/><use transform="matrix(0.04938271604938272,0,0,0.04938271604938272,28.641975308641978,0)" xlink:href="#as"/><use transform="matrix(0.04938271604938272,0,0,0.04938271604938272,37.53086419753087,0)" xlink:href="#ay"/><use transform="matrix(0.04938271604938272,0,0,0.04938271604938272,41.4320987654321,0)" xlink:href="#as"/><use transform="matrix(0.04938271604938272,0,0,0.04938271604938272,50.32098765432099,0)" xlink:href="#ar"/><use transform="matrix(0.04938271604938272,0,0,0.04938271604938272,55.25925925925927,0)" xlink:href="#as"/></g><g id="ag"><use transform="matrix(0.04938271604938272,0,0,0.04938271604938272,0,0)" xlink:href="#av"/><use transform="matrix(0.04938271604938272,0,0,0.04938271604938272,9.876543209876544,0)" xlink:href="#au"/></g><g id="ah"><use transform="matrix(0.04938271604938272,0,0,0.04938271604938272,0,0)" xlink:href="#aL"/><use transform="matrix(0.04938271604938272,0,0,0.04938271604938272,9.876543209876544,0)" xlink:href="#aq"/><use transform="matrix(0.04938271604938272,0,0,0.04938271604938272,19.75308641975309,0)" xlink:href="#ar"/><use transform="matrix(0.04938271604938272,0,0,0.04938271604938272,24.69135802469136,0)" xlink:href="#aq"/><use transform="matrix(0.04938271604938272,0,0,0.04938271604938272,34.567901234567906,0)" xlink:href="#az"/><use transform="matrix(0.04938271604938272,0,0,0.04938271604938272,40.44444444444445,0)" xlink:href="#aK"/><use transform="matrix(0.04938271604938272,0,0,0.04938271604938272,50.320987654320994,0)" xlink:href="#av"/><use transform="matrix(0.04938271604938272,0,0,0.04938271604938272,60.19753086419754,0)" xlink:href="#ay"/><use transform="matrix(0.04938271604938272,0,0,0.04938271604938272,64.09876543209877,0)" xlink:href="#aA"/><use transform="matrix(0.04938271604938272,0,0,0.04938271604938272,73.97530864197532,0)" xlink:href="#ar"/><use transform="matrix(0.04938271604938272,0,0,0.04938271604938272,78.9135802469136,0)" xlink:href="#as"/></g><g id="ai"><use transform="matrix(0.04938271604938272,0,0,0.04938271604938272,0,0)" xlink:href="#aq"/><use transform="matrix(0.04938271604938272,0,0,0.04938271604938272,9.876543209876544,0)" xlink:href="#ar"/></g><g id="aj"><use transform="matrix(0.04938271604938272,0,0,0.04938271604938272,0,0)" xlink:href="#aL"/><use transform="matrix(0.04938271604938272,0,0,0.04938271604938272,9.876543209876544,0)" xlink:href="#ay"/><use transform="matrix(0.04938271604938272,0,0,0.04938271604938272,13.777777777777779,0)" xlink:href="#au"/><use transform="matrix(0.04938271604938272,0,0,0.04938271604938272,18.370370370370374,0)" xlink:href="#au"/><use transform="matrix(0.04938271604938272,0,0,0.04938271604938272,23.308641975308646,0)" xlink:href="#at"/><use transform="matrix(0.04938271604938272,0,0,0.04938271604938272,33.18518518518519,0)" xlink:href="#aw"/><use transform="matrix(0.04938271604938272,0,0,0.04938271604938272,39.061728395061735,0)" xlink:href="#at"/><use transform="matrix(0.04938271604938272,0,0,0.04938271604938272,48.93827160493828,0)" xlink:href="#aA"/><use transform="matrix(0.04938271604938272,0,0,0.04938271604938272,58.81481481481482,0)" xlink:href="#ar"/></g><g id="ak"><use transform="matrix(0.04938271604938272,0,0,0.04938271604938272,0,0)" xlink:href="#ar"/><use transform="matrix(0.04938271604938272,0,0,0.04938271604938272,4.938271604938272,0)" xlink:href="#ay"/><use transform="matrix(0.04938271604938272,0,0,0.04938271604938272,8.839506172839506,0)" xlink:href="#aJ"/><use transform="matrix(0.04938271604938272,0,0,0.04938271604938272,23.60493827160494,0)" xlink:href="#at"/></g><path d="M108 0H70L1-190h34L89-25l56-165h34" id="be"/><g id="al"><use transform="matrix(0.04938271604938272,0,0,0.04938271604938272,0,0)" xlink:href="#ay"/><use transform="matrix(0.04938271604938272,0,0,0.04938271604938272,3.901234567901235,0)" xlink:href="#aA"/><use transform="matrix(0.04938271604938272,0,0,0.04938271604938272,13.777777777777779,0)" xlink:href="#ar"/><use transform="matrix(0.04938271604938272,0,0,0.04938271604938272,18.71604938271605,0)" xlink:href="#at"/><use transform="matrix(0.04938271604938272,0,0,0.04938271604938272,28.592592592592595,0)" xlink:href="#aw"/><use transform="matrix(0.04938271604938272,0,0,0.04938271604938272,34.46913580246914,0)" xlink:href="#be"/><use transform="matrix(0.04938271604938272,0,0,0.04938271604938272,43.358024691358025,0)" xlink:href="#aq"/><use transform="matrix(0.04938271604938272,0,0,0.04938271604938272,53.23456790123457,0)" xlink:href="#aG"/><use transform="matrix(0.04938271604938272,0,0,0.04938271604938272,57.135802469135804,0)" xlink:href="#as"/></g></defs></g></svg>